<?xml version="1.0"?>
<!-- Generated by SVGo -->
<svg width="526.000mm" height="260.351mm"
     viewBox="0.000 0.000 526.000 260.351"
     xmlns="http://www.w3.org/2000/svg" 
     xmlns:xlink="http://www.w3.org/1999/xlink">
<polygon points="521.000,255.351 5.000,255.351 5.000,235.351 521.000,235.351" style="fill:none;stroke-width:0.050000mm;stroke:black"/>
<polygon points="520.887,234.351 5.112,234.351 5.112,46.000 520.887,46.000" style="fill:none;stroke-width:0.050000mm;stroke:black"/>
<polygon points="515.424,227.924 515.006,228.137 514.674,228.469 514.461,228.887 514.387,229.351 514.461,229.814 514.674,230.232 515.006,230.564 515.424,230.777 515.887,230.851 516.351,230.777 516.769,230.564 517.101,230.232 517.314,229.814 517.387,229.351 517.314,228.887 517.101,228.469 516.769,228.137 516.351,227.924 515.887,227.851" style="fill:none;stroke-width:0.050000mm;stroke:black"/>
<polygon points="346.832,227.924 346.414,228.137 346.082,228.469 345.869,228.887 345.796,229.351 345.869,229.814 346.082,230.232 346.414,230.564 346.832,230.777 347.296,230.851 347.759,230.777 348.177,230.564 348.509,230.232 348.722,229.814 348.796,229.351 348.722,228.887 348.509,228.469 348.177,228.137 347.759,227.924 347.296,227.851" style="fill:none;stroke-width:0.050000mm;stroke:black"/>
<polygon points="178.240,227.924 177.822,228.137 177.490,228.469 177.277,228.887 177.203,229.351 177.277,229.814 177.490,230.232 177.822,230.564 178.240,230.777 178.704,230.851 179.167,230.777 179.585,230.564 179.917,230.232 180.130,229.814 180.204,229.351 180.130,228.887 179.917,228.469 179.585,228.137 179.167,227.924 178.704,227.851" style="fill:none;stroke-width:0.050000mm;stroke:black"/>
<polygon points="9.648,227.924 9.230,228.137 8.898,228.469 8.685,228.887 8.611,229.351 8.685,229.814 8.898,230.232 9.230,230.564 9.648,230.777 10.111,230.851 10.575,230.777 10.993,230.564 11.325,230.232 11.538,229.814 11.611,229.351 11.538,228.887 11.325,228.469 10.993,228.137 10.575,227.924 10.111,227.851" style="fill:none;stroke-width:0.050000mm;stroke:black"/>
<polygon points="191.705,207.825 191.705,212.525 152.080,212.525 152.080,209.295 145.330,209.295 145.330,212.525 144.505,212.525 144.505,215.325 145.330,215.325 145.330,221.595 147.055,221.595 147.055,222.795 150.355,222.795 150.355,221.595 152.080,221.595 152.080,217.125 191.705,217.125 191.705,221.825 205.705,221.825 205.705,217.125 245.330,217.125 245.330,221.595 247.055,221.595 247.055,222.795 250.355,222.795 250.355,221.595 252.080,221.595 252.080,215.325 252.905,215.325 252.905,212.525 252.080,212.525 252.080,209.295 245.330,209.295 245.330,212.525 205.705,212.525 205.705,207.825" style="fill:none;stroke-width:0.050000mm;stroke:black"/>
<polygon points="441.737,207.825 441.737,212.525 440.212,212.525 440.212,209.295 433.462,209.295 433.462,212.525 432.637,212.525 432.637,215.325 433.462,215.325 433.462,221.595 435.187,221.595 435.187,222.795 438.487,222.795 438.487,221.595 440.212,221.595 440.212,217.125 441.737,217.125 441.737,221.825 455.737,221.825 455.737,217.125 457.262,217.125 457.262,221.595 458.987,221.595 458.987,222.795 462.287,222.795 462.287,221.595 464.012,221.595 464.012,215.325 464.837,215.325 464.837,212.525 464.012,212.525 464.012,209.295 457.262,209.295 457.262,212.525 455.737,212.525 455.737,207.825" style="fill:none;stroke-width:0.050000mm;stroke:black"/>
<polygon points="22.637,207.825 22.637,221.825 36.637,221.825 36.637,207.825" style="fill:none;stroke-width:0.050000mm;stroke:black"/>
<polygon points="41.687,207.825 41.687,221.825 55.687,221.825 55.687,207.825" style="fill:none;stroke-width:0.050000mm;stroke:black"/>
<polygon points="72.643,207.825 72.643,221.825 86.643,221.825 86.643,207.825" style="fill:none;stroke-width:0.050000mm;stroke:black"/>
<polygon points="96.455,207.825 96.455,221.825 110.455,221.825 110.455,207.825" style="fill:none;stroke-width:0.050000mm;stroke:black"/>
<polygon points="120.268,207.825 120.268,221.825 134.268,221.825 134.268,207.825" style="fill:none;stroke-width:0.050000mm;stroke:black"/>
<polygon points="263.143,207.825 263.143,221.825 277.143,221.825 277.143,207.825" style="fill:none;stroke-width:0.050000mm;stroke:black"/>
<polygon points="286.955,207.825 286.955,221.825 300.955,221.825 300.955,207.825" style="fill:none;stroke-width:0.050000mm;stroke:black"/>
<polygon points="310.768,207.825 310.768,221.825 324.768,221.825 324.768,207.825" style="fill:none;stroke-width:0.050000mm;stroke:black"/>
<polygon points="334.580,207.825 334.580,221.825 348.580,221.825 348.580,207.825" style="fill:none;stroke-width:0.050000mm;stroke:black"/>
<polygon points="365.537,207.825 365.537,221.825 379.537,221.825 379.537,207.825" style="fill:none;stroke-width:0.050000mm;stroke:black"/>
<polygon points="384.587,207.825 384.587,221.825 398.587,221.825 398.587,207.825" style="fill:none;stroke-width:0.050000mm;stroke:black"/>
<polygon points="403.637,207.825 403.637,221.825 417.637,221.825 417.637,207.825" style="fill:none;stroke-width:0.050000mm;stroke:black"/>
<polygon points="470.312,207.825 470.312,221.825 484.312,221.825 484.312,207.825" style="fill:none;stroke-width:0.050000mm;stroke:black"/>
<polygon points="495.862,189.200 495.862,190.025 489.592,190.025 489.592,191.750 488.392,191.750 488.392,195.050 489.592,195.050 489.592,196.775 494.062,196.775 494.062,198.300 489.362,198.300 489.362,212.300 494.062,212.300 494.062,213.825 489.592,213.825 489.592,215.550 488.392,215.550 488.392,218.850 489.592,218.850 489.592,220.575 495.862,220.575 495.862,221.400 498.662,221.400 498.662,220.575 501.892,220.575 501.892,213.825 498.662,213.825 498.662,212.300 503.362,212.300 503.362,198.300 498.662,198.300 498.662,196.775 501.892,196.775 501.892,190.025 498.662,190.025 498.662,189.200" style="fill:none;stroke-width:0.050000mm;stroke:black"/>
<polygon points="82.168,188.775 82.168,193.475 80.643,193.475 80.643,190.245 73.893,190.245 73.893,193.475 73.068,193.475 73.068,196.275 73.893,196.275 73.893,202.545 75.618,202.545 75.618,203.745 78.918,203.745 78.918,202.545 80.643,202.545 80.643,198.075 82.168,198.075 82.168,202.775 96.168,202.775 96.168,198.075 97.693,198.075 97.693,202.545 99.418,202.545 99.418,203.745 102.718,203.745 102.718,202.545 104.443,202.545 104.443,196.275 105.268,196.275 105.268,193.475 104.443,193.475 104.443,190.245 97.693,190.245 97.693,193.475 96.168,193.475 96.168,188.775" style="fill:none;stroke-width:0.050000mm;stroke:black"/>
<polygon points="320.293,188.775 320.293,193.475 318.768,193.475 318.768,190.245 312.018,190.245 312.018,193.475 311.193,193.475 311.193,196.275 312.018,196.275 312.018,202.545 313.743,202.545 313.743,203.745 317.043,203.745 317.043,202.545 318.768,202.545 318.768,198.075 320.293,198.075 320.293,202.775 334.293,202.775 334.293,198.075 335.818,198.075 335.818,202.545 337.543,202.545 337.543,203.745 340.843,203.745 340.843,202.545 342.568,202.545 342.568,196.275 343.393,196.275 343.393,193.475 342.568,193.475 342.568,190.245 335.818,190.245 335.818,193.475 334.293,193.475 334.293,188.775" style="fill:none;stroke-width:0.050000mm;stroke:black"/>
<polygon points="22.637,188.775 22.637,202.775 36.637,202.775 36.637,188.775" style="fill:none;stroke-width:0.050000mm;stroke:black"/>
<polygon points="41.687,188.775 41.687,202.775 55.687,202.775 55.687,188.775" style="fill:none;stroke-width:0.050000mm;stroke:black"/>
<polygon points="113.124,188.775 113.124,202.775 127.124,202.775 127.124,188.775" style="fill:none;stroke-width:0.050000mm;stroke:black"/>
<polygon points="132.174,188.775 132.174,202.775 146.174,202.775 146.174,188.775" style="fill:none;stroke-width:0.050000mm;stroke:black"/>
<polygon points="151.224,188.775 151.224,202.775 165.224,202.775 165.224,188.775" style="fill:none;stroke-width:0.050000mm;stroke:black"/>
<polygon points="170.274,188.775 170.274,202.775 184.274,202.775 184.274,188.775" style="fill:none;stroke-width:0.050000mm;stroke:black"/>
<polygon points="189.324,188.775 189.324,202.775 203.324,202.775 203.324,188.775" style="fill:none;stroke-width:0.050000mm;stroke:black"/>
<polygon points="208.374,188.775 208.374,202.775 222.374,202.775 222.374,188.775" style="fill:none;stroke-width:0.050000mm;stroke:black"/>
<polygon points="227.424,188.775 227.424,202.775 241.424,202.775 241.424,188.775" style="fill:none;stroke-width:0.050000mm;stroke:black"/>
<polygon points="246.474,188.775 246.474,202.775 260.474,202.775 260.474,188.775" style="fill:none;stroke-width:0.050000mm;stroke:black"/>
<polygon points="265.524,188.775 265.524,202.775 279.524,202.775 279.524,188.775" style="fill:none;stroke-width:0.050000mm;stroke:black"/>
<polygon points="284.574,188.775 284.574,202.775 298.574,202.775 298.574,188.775" style="fill:none;stroke-width:0.050000mm;stroke:black"/>
<polygon points="384.587,188.775 384.587,202.775 398.587,202.775 398.587,188.775" style="fill:none;stroke-width:0.050000mm;stroke:black"/>
<polygon points="432.212,188.775 432.212,202.775 446.212,202.775 446.212,188.775" style="fill:none;stroke-width:0.050000mm;stroke:black"/>
<polygon points="451.262,188.775 451.262,202.775 465.262,202.775 465.262,188.775" style="fill:none;stroke-width:0.050000mm;stroke:black"/>
<polygon points="470.312,188.775 470.312,202.775 484.312,202.775 484.312,188.775" style="fill:none;stroke-width:0.050000mm;stroke:black"/>
<polygon points="325.055,169.725 325.055,174.424 323.530,174.424 323.530,171.195 316.780,171.195 316.780,174.424 315.955,174.424 315.955,177.225 316.780,177.225 316.780,183.495 318.505,183.495 318.505,184.695 321.805,184.695 321.805,183.495 323.530,183.495 323.530,179.025 325.055,179.025 325.055,183.725 339.055,183.725 339.055,179.025 340.580,179.025 340.580,183.495 342.305,183.495 342.305,184.695 345.605,184.695 345.605,183.495 347.330,183.495 347.330,177.225 348.155,177.225 348.155,174.424 347.330,174.424 347.330,171.195 340.580,171.195 340.580,174.424 339.055,174.424 339.055,169.725" style="fill:none;stroke-width:0.050000mm;stroke:black"/>
<polygon points="22.637,169.725 22.637,183.725 36.637,183.725 36.637,169.725" style="fill:none;stroke-width:0.050000mm;stroke:black"/>
<polygon points="41.687,169.725 41.687,183.725 55.687,183.725 55.687,169.725" style="fill:none;stroke-width:0.050000mm;stroke:black"/>
<polygon points="77.405,169.725 77.405,183.725 91.405,183.725 91.405,169.725" style="fill:none;stroke-width:0.050000mm;stroke:black"/>
<polygon points="103.599,169.725 103.599,183.725 117.599,183.725 117.599,169.725" style="fill:none;stroke-width:0.050000mm;stroke:black"/>
<polygon points="122.649,169.725 122.649,183.725 136.649,183.725 136.649,169.725" style="fill:none;stroke-width:0.050000mm;stroke:black"/>
<polygon points="141.699,169.725 141.699,183.725 155.699,183.725 155.699,169.725" style="fill:none;stroke-width:0.050000mm;stroke:black"/>
<polygon points="160.749,169.725 160.749,183.725 174.749,183.725 174.749,169.725" style="fill:none;stroke-width:0.050000mm;stroke:black"/>
<polygon points="179.799,169.725 179.799,183.725 193.799,183.725 193.799,169.725" style="fill:none;stroke-width:0.050000mm;stroke:black"/>
<polygon points="198.849,169.725 198.849,183.725 212.849,183.725 212.849,169.725" style="fill:none;stroke-width:0.050000mm;stroke:black"/>
<polygon points="217.899,169.725 217.899,183.725 231.899,183.725 231.899,169.725" style="fill:none;stroke-width:0.050000mm;stroke:black"/>
<polygon points="236.949,169.725 236.949,183.725 250.949,183.725 250.949,169.725" style="fill:none;stroke-width:0.050000mm;stroke:black"/>
<polygon points="255.999,169.725 255.999,183.725 269.999,183.725 269.999,169.725" style="fill:none;stroke-width:0.050000mm;stroke:black"/>
<polygon points="275.049,169.725 275.049,183.725 289.049,183.725 289.049,169.725" style="fill:none;stroke-width:0.050000mm;stroke:black"/>
<polygon points="294.099,169.725 294.099,183.725 308.099,183.725 308.099,169.725" style="fill:none;stroke-width:0.050000mm;stroke:black"/>
<polygon points="432.212,169.725 432.212,183.725 446.212,183.725 446.212,169.725" style="fill:none;stroke-width:0.050000mm;stroke:black"/>
<polygon points="451.262,169.725 451.262,183.725 465.262,183.725 465.262,169.725" style="fill:none;stroke-width:0.050000mm;stroke:black"/>
<polygon points="470.312,169.725 470.312,183.725 484.312,183.725 484.312,169.725" style="fill:none;stroke-width:0.050000mm;stroke:black"/>
<polygon points="489.362,169.725 489.362,183.725 503.362,183.725 503.362,169.725" style="fill:none;stroke-width:0.050000mm;stroke:black"/>
<polygon points="22.637,150.675 22.637,164.675 36.637,164.675 36.637,150.675" style="fill:none;stroke-width:0.050000mm;stroke:black"/>
<polygon points="41.687,150.675 41.687,164.675 55.687,164.675 55.687,150.675" style="fill:none;stroke-width:0.050000mm;stroke:black"/>
<polygon points="75.024,150.675 75.024,164.675 89.024,164.675 89.024,150.675" style="fill:none;stroke-width:0.050000mm;stroke:black"/>
<polygon points="98.837,150.675 98.837,164.675 112.837,164.675 112.837,150.675" style="fill:none;stroke-width:0.050000mm;stroke:black"/>
<polygon points="117.887,150.675 117.887,164.675 131.887,164.675 131.887,150.675" style="fill:none;stroke-width:0.050000mm;stroke:black"/>
<polygon points="136.937,150.675 136.937,164.675 150.937,164.675 150.937,150.675" style="fill:none;stroke-width:0.050000mm;stroke:black"/>
<polygon points="155.987,150.675 155.987,164.675 169.987,164.675 169.987,150.675" style="fill:none;stroke-width:0.050000mm;stroke:black"/>
<polygon points="175.037,150.675 175.037,164.675 189.037,164.675 189.037,150.675" style="fill:none;stroke-width:0.050000mm;stroke:black"/>
<polygon points="194.087,150.675 194.087,164.675 208.087,164.675 208.087,150.675" style="fill:none;stroke-width:0.050000mm;stroke:black"/>
<polygon points="213.137,150.675 213.137,164.675 227.137,164.675 227.137,150.675" style="fill:none;stroke-width:0.050000mm;stroke:black"/>
<polygon points="232.187,150.675 232.187,164.675 246.187,164.675 246.187,150.675" style="fill:none;stroke-width:0.050000mm;stroke:black"/>
<polygon points="251.237,150.675 251.237,164.675 265.237,164.675 265.237,150.675" style="fill:none;stroke-width:0.050000mm;stroke:black"/>
<polygon points="270.287,150.675 270.287,164.675 284.287,164.675 284.287,150.675" style="fill:none;stroke-width:0.050000mm;stroke:black"/>
<polygon points="289.337,150.675 289.337,164.675 303.337,164.675 303.337,150.675" style="fill:none;stroke-width:0.050000mm;stroke:black"/>
<polygon points="308.387,150.675 308.387,164.675 322.387,164.675 322.387,150.675" style="fill:none;stroke-width:0.050000mm;stroke:black"/>
<polygon points="332.199,150.675 332.199,164.675 346.199,164.675 346.199,150.675" style="fill:none;stroke-width:0.050000mm;stroke:black"/>
<polygon points="365.537,150.675 365.537,164.675 379.537,164.675 379.537,150.675" style="fill:none;stroke-width:0.050000mm;stroke:black"/>
<polygon points="384.587,150.675 384.587,164.675 398.587,164.675 398.587,150.675" style="fill:none;stroke-width:0.050000mm;stroke:black"/>
<polygon points="403.637,150.675 403.637,164.675 417.637,164.675 417.637,150.675" style="fill:none;stroke-width:0.050000mm;stroke:black"/>
<polygon points="432.212,150.675 432.212,164.675 446.212,164.675 446.212,150.675" style="fill:none;stroke-width:0.050000mm;stroke:black"/>
<polygon points="451.262,150.675 451.262,164.675 465.262,164.675 465.262,150.675" style="fill:none;stroke-width:0.050000mm;stroke:black"/>
<polygon points="470.312,150.675 470.312,164.675 484.312,164.675 484.312,150.675" style="fill:none;stroke-width:0.050000mm;stroke:black"/>
<polygon points="489.362,150.675 489.362,164.675 503.362,164.675 503.362,150.675" style="fill:none;stroke-width:0.050000mm;stroke:black"/>
<polygon points="327.437,131.625 327.437,136.325 325.912,136.325 325.912,133.095 319.162,133.095 319.162,136.325 318.337,136.325 318.337,139.125 319.162,139.125 319.162,145.395 320.887,145.395 320.887,146.595 324.187,146.595 324.187,145.395 325.912,145.395 325.912,140.925 327.437,140.925 327.437,145.625 341.437,145.625 341.437,140.925 342.962,140.925 342.962,145.395 344.687,145.395 344.687,146.595 347.987,146.595 347.987,145.395 349.712,145.395 349.712,139.125 350.537,139.125 350.537,136.325 349.712,136.325 349.712,133.095 342.962,133.095 342.962,136.325 341.437,136.325 341.437,131.625" style="fill:none;stroke-width:0.050000mm;stroke:black"/>
<polygon points="22.637,131.625 22.637,145.625 36.637,145.625 36.637,131.625" style="fill:none;stroke-width:0.050000mm;stroke:black"/>
<polygon points="41.687,131.625 41.687,145.625 55.687,145.625 55.687,131.625" style="fill:none;stroke-width:0.050000mm;stroke:black"/>
<polygon points="70.262,131.625 70.262,145.625 84.262,145.625 84.262,131.625" style="fill:none;stroke-width:0.050000mm;stroke:black"/>
<polygon points="89.312,131.625 89.312,145.625 103.312,145.625 103.312,131.625" style="fill:none;stroke-width:0.050000mm;stroke:black"/>
<polygon points="108.362,131.625 108.362,145.625 122.362,145.625 122.362,131.625" style="fill:none;stroke-width:0.050000mm;stroke:black"/>
<polygon points="127.412,131.625 127.412,145.625 141.412,145.625 141.412,131.625" style="fill:none;stroke-width:0.050000mm;stroke:black"/>
<polygon points="146.462,131.625 146.462,145.625 160.462,145.625 160.462,131.625" style="fill:none;stroke-width:0.050000mm;stroke:black"/>
<polygon points="165.512,131.625 165.512,145.625 179.512,145.625 179.512,131.625" style="fill:none;stroke-width:0.050000mm;stroke:black"/>
<polygon points="184.562,131.625 184.562,145.625 198.562,145.625 198.562,131.625" style="fill:none;stroke-width:0.050000mm;stroke:black"/>
<polygon points="203.612,131.625 203.612,145.625 217.612,145.625 217.612,131.625" style="fill:none;stroke-width:0.050000mm;stroke:black"/>
<polygon points="222.662,131.625 222.662,145.625 236.662,145.625 236.662,131.625" style="fill:none;stroke-width:0.050000mm;stroke:black"/>
<polygon points="241.712,131.625 241.712,145.625 255.712,145.625 255.712,131.625" style="fill:none;stroke-width:0.050000mm;stroke:black"/>
<polygon points="260.761,131.625 260.761,145.625 274.762,145.625 274.762,131.625" style="fill:none;stroke-width:0.050000mm;stroke:black"/>
<polygon points="279.812,131.625 279.812,145.625 293.812,145.625 293.812,131.625" style="fill:none;stroke-width:0.050000mm;stroke:black"/>
<polygon points="298.862,131.625 298.862,145.625 312.862,145.625 312.862,131.625" style="fill:none;stroke-width:0.050000mm;stroke:black"/>
<polygon points="365.537,131.625 365.537,145.625 379.537,145.625 379.537,131.625" style="fill:none;stroke-width:0.050000mm;stroke:black"/>
<polygon points="384.587,131.625 384.587,145.625 398.587,145.625 398.587,131.625" style="fill:none;stroke-width:0.050000mm;stroke:black"/>
<polygon points="403.637,131.625 403.637,145.625 417.637,145.625 417.637,131.625" style="fill:none;stroke-width:0.050000mm;stroke:black"/>
<polygon points="432.212,131.625 432.212,145.625 446.212,145.625 446.212,131.625" style="fill:none;stroke-width:0.050000mm;stroke:black"/>
<polygon points="451.262,131.625 451.262,145.625 465.262,145.625 465.262,131.625" style="fill:none;stroke-width:0.050000mm;stroke:black"/>
<polygon points="470.312,131.625 470.312,145.625 484.312,145.625 484.312,131.625" style="fill:none;stroke-width:0.050000mm;stroke:black"/>
<polygon points="489.362,131.625 489.362,145.625 503.362,145.625 503.362,131.625" style="fill:none;stroke-width:0.050000mm;stroke:black"/>
<polygon points="32.161,103.050 32.161,107.750 30.637,107.750 30.637,104.519 23.887,104.519 23.887,107.750 23.061,107.750 23.061,110.550 23.887,110.550 23.887,116.820 25.611,116.820 25.611,118.020 28.911,118.020 28.911,116.820 30.637,116.820 30.637,112.350 32.161,112.350 32.161,117.050 46.162,117.050 46.162,112.350 47.686,112.350 47.686,116.820 49.412,116.820 49.412,118.020 52.711,118.020 52.711,116.820 54.436,116.820 54.436,110.550 55.262,110.550 55.262,107.750 54.436,107.750 54.436,104.519 47.686,104.519 47.686,107.750 46.162,107.750 46.162,103.050" style="fill:none;stroke-width:0.050000mm;stroke:black"/>
<polygon points="70.262,103.050 70.262,117.050 84.262,117.050 84.262,103.050" style="fill:none;stroke-width:0.050000mm;stroke:black"/>
<polygon points="108.362,103.050 108.362,117.050 122.362,117.050 122.362,103.050" style="fill:none;stroke-width:0.050000mm;stroke:black"/>
<polygon points="127.412,103.050 127.412,117.050 141.412,117.050 141.412,103.050" style="fill:none;stroke-width:0.050000mm;stroke:black"/>
<polygon points="146.462,103.050 146.462,117.050 160.462,117.050 160.462,103.050" style="fill:none;stroke-width:0.050000mm;stroke:black"/>
<polygon points="165.512,103.050 165.512,117.050 179.512,117.050 179.512,103.050" style="fill:none;stroke-width:0.050000mm;stroke:black"/>
<polygon points="194.087,103.050 194.087,117.050 208.087,117.050 208.087,103.050" style="fill:none;stroke-width:0.050000mm;stroke:black"/>
<polygon points="213.137,103.050 213.137,117.050 227.137,117.050 227.137,103.050" style="fill:none;stroke-width:0.050000mm;stroke:black"/>
<polygon points="232.187,103.050 232.187,117.050 246.187,117.050 246.187,103.050" style="fill:none;stroke-width:0.050000mm;stroke:black"/>
<polygon points="251.237,103.050 251.237,117.050 265.237,117.050 265.237,103.050" style="fill:none;stroke-width:0.050000mm;stroke:black"/>
<polygon points="279.812,103.050 279.812,117.050 293.812,117.050 293.812,103.050" style="fill:none;stroke-width:0.050000mm;stroke:black"/>
<polygon points="298.862,103.050 298.862,117.050 312.862,117.050 312.862,103.050" style="fill:none;stroke-width:0.050000mm;stroke:black"/>
<polygon points="317.912,103.050 317.912,117.050 331.912,117.050 331.912,103.050" style="fill:none;stroke-width:0.050000mm;stroke:black"/>
<polygon points="336.962,103.050 336.962,117.050 350.962,117.050 350.962,103.050" style="fill:none;stroke-width:0.050000mm;stroke:black"/>
<polygon points="365.537,103.050 365.537,117.050 379.537,117.050 379.537,103.050" style="fill:none;stroke-width:0.050000mm;stroke:black"/>
<polygon points="384.587,103.050 384.587,117.050 398.587,117.050 398.587,103.050" style="fill:none;stroke-width:0.050000mm;stroke:black"/>
<polygon points="403.637,103.050 403.637,117.050 417.637,117.050 417.637,103.050" style="fill:none;stroke-width:0.050000mm;stroke:black"/>
<polygon points="432.212,103.050 432.212,117.050 446.212,117.050 446.212,103.050" style="fill:none;stroke-width:0.050000mm;stroke:black"/>
<polygon points="451.262,103.050 451.262,117.050 465.262,117.050 465.262,103.050" style="fill:none;stroke-width:0.050000mm;stroke:black"/>
<polygon points="470.312,103.050 470.312,117.050 484.312,117.050 484.312,103.050" style="fill:none;stroke-width:0.050000mm;stroke:black"/>
<polygon points="489.362,103.050 489.362,117.050 503.362,117.050 503.362,103.050" style="fill:none;stroke-width:0.050000mm;stroke:black"/>
<polygon points="178.240,49.573 177.822,49.786 177.490,50.118 177.277,50.536 177.204,51.000 177.277,51.463 177.490,51.881 177.822,52.213 178.240,52.426 178.704,52.500 179.167,52.426 179.585,52.213 179.917,51.881 180.130,51.463 180.204,51.000 180.130,50.536 179.917,50.118 179.585,49.786 179.167,49.573 178.704,49.500" style="fill:none;stroke-width:0.050000mm;stroke:black"/>
<polygon points="346.832,49.573 346.414,49.786 346.082,50.118 345.869,50.536 345.796,51.000 345.869,51.463 346.082,51.881 346.414,52.213 346.832,52.426 347.296,52.500 347.759,52.426 348.177,52.213 348.509,51.881 348.722,51.463 348.796,51.000 348.722,50.536 348.509,50.118 348.177,49.786 347.759,49.573 347.296,49.500" style="fill:none;stroke-width:0.050000mm;stroke:black"/>
<polygon points="515.424,49.573 515.006,49.786 514.674,50.118 514.461,50.536 514.387,51.000 514.461,51.463 514.674,51.881 515.006,52.213 515.424,52.426 515.887,52.500 516.351,52.426 516.769,52.213 517.101,51.881 517.314,51.463 517.387,51.000 517.314,50.536 517.101,50.118 516.769,49.786 516.351,49.573 515.887,49.500" style="fill:none;stroke-width:0.050000mm;stroke:black"/>
<polygon points="9.648,49.573 9.230,49.786 8.898,50.118 8.685,50.536 8.611,51.000 8.685,51.463 8.898,51.881 9.230,52.213 9.648,52.426 10.111,52.500 10.575,52.426 10.993,52.213 11.325,51.881 11.538,51.463 11.611,51.000 11.538,50.536 11.325,50.118 10.993,49.786 10.575,49.573 10.111,49.500" style="fill:none;stroke-width:0.050000mm;stroke:black"/>
<polygon points="521.000,45.000 5.000,45.000 5.000,5.000 521.000,5.000" style="fill:none;stroke-width:0.050000mm;stroke:black"/>
</svg>
