  0
SECTION
  2
HEADER
  9
$ACADVER
  1
AC1009
  9
$EXTMIN
 10
0.0
 20
0.0
 30
0.0
  9
$EXTMAX
 10
1000.0
 20
1000.0
 30
0.0
  9
$FILLMODE
 70
 0
  9
$SPLFRAME
 70
 1
  0
ENDSEC
  0
SECTION
  2
TABLES
  0
TABLE
  2
LAYER
 70
1
  0
LAYER
  2
0
 70
     0
 62
     7
  6
CONTINUOUS
  0
ENDTAB
  0
ENDSEC
  0
SECTION
  2
ENTITIES
  0
LINE
  8
0
 62
     0
 10
0.0937066
 20
20.0863
 30
0.0
 11
516.093
 21
20.0863
 31
0.0
  0
LINE
  8
0
 62
     0
 10
516.093
 20
20.0863
 30
0.0
 11
516.093
 21
0.0868165
 31
0.0
  0
LINE
  8
0
 62
     0
 10
516.093
 20
0.0868165
 30
0.0
 11
0.0937066
 21
0.0868165
 31
0.0
  0
LINE
  8
0
 62
     0
 10
0.0937066
 20
0.0868165
 30
0.0
 11
0.0937066
 21
20.0863
 31
0.0
  0
LINE
  8
0
 62
     0
 10
0.205328
 20
199.438
 30
0.0
 11
515.98
 21
199.438
 31
0.0
  0
LINE
  8
0
 62
     0
 10
515.98
 20
199.438
 30
0.0
 11
515.98
 21
21.0867
 31
0.0
  0
LINE
  8
0
 62
     0
 10
515.98
 20
21.0867
 30
0.0
 11
0.205328
 21
21.0867
 31
0.0
  0
LINE
  8
0
 62
     0
 10
0.205328
 20
21.0867
 30
0.0
 11
0.205328
 21
199.438
 31
0.0
  0
LINE
  8
0
 62
     0
 10
510.519
 20
27.5139
 30
0.0
 11
510.099
 21
27.3003
 31
0.0
  0
LINE
  8
0
 62
     0
 10
510.099
 20
27.3003
 30
0.0
 11
509.767
 21
26.9682
 31
0.0
  0
LINE
  8
0
 62
     0
 10
509.767
 20
26.9682
 30
0.0
 11
509.556
 21
26.5507
 31
0.0
  0
LINE
  8
0
 62
     0
 10
509.556
 20
26.5507
 30
0.0
 11
509.482
 21
26.0863
 31
0.0
  0
LINE
  8
0
 62
     0
 10
509.482
 20
26.0863
 30
0.0
 11
509.556
 21
25.6232
 31
0.0
  0
LINE
  8
0
 62
     0
 10
509.556
 20
25.6232
 30
0.0
 11
509.767
 21
25.2057
 31
0.0
  0
LINE
  8
0
 62
     0
 10
509.767
 20
25.2057
 30
0.0
 11
510.099
 21
24.8736
 31
0.0
  0
LINE
  8
0
 62
     0
 10
510.099
 20
24.8736
 30
0.0
 11
510.519
 21
24.66
 31
0.0
  0
LINE
  8
0
 62
     0
 10
510.519
 20
24.66
 30
0.0
 11
510.981
 21
24.587
 31
0.0
  0
LINE
  8
0
 62
     0
 10
510.981
 20
24.587
 30
0.0
 11
511.447
 21
24.66
 31
0.0
  0
LINE
  8
0
 62
     0
 10
511.447
 20
24.66
 30
0.0
 11
511.863
 21
24.8736
 31
0.0
  0
LINE
  8
0
 62
     0
 10
511.863
 20
24.8736
 30
0.0
 11
512.195
 21
25.2057
 31
0.0
  0
LINE
  8
0
 62
     0
 10
512.195
 20
25.2057
 30
0.0
 11
512.41
 21
25.6232
 31
0.0
  0
LINE
  8
0
 62
     0
 10
512.41
 20
25.6232
 30
0.0
 11
512.48
 21
26.0863
 31
0.0
  0
LINE
  8
0
 62
     0
 10
512.48
 20
26.0863
 30
0.0
 11
512.41
 21
26.5507
 31
0.0
  0
LINE
  8
0
 62
     0
 10
512.41
 20
26.5507
 30
0.0
 11
512.195
 21
26.9682
 31
0.0
  0
LINE
  8
0
 62
     0
 10
512.195
 20
26.9682
 30
0.0
 11
511.863
 21
27.3003
 31
0.0
  0
LINE
  8
0
 62
     0
 10
511.863
 20
27.3003
 30
0.0
 11
511.447
 21
27.5139
 31
0.0
  0
LINE
  8
0
 62
     0
 10
511.447
 20
27.5139
 30
0.0
 11
510.981
 21
27.5869
 31
0.0
  0
LINE
  8
0
 62
     0
 10
510.981
 20
27.5869
 30
0.0
 11
510.519
 21
27.5139
 31
0.0
  0
LINE
  8
0
 62
     0
 10
341.926
 20
27.5139
 30
0.0
 11
341.508
 21
27.3003
 31
0.0
  0
LINE
  8
0
 62
     0
 10
341.508
 20
27.3003
 30
0.0
 11
341.176
 21
26.9682
 31
0.0
  0
LINE
  8
0
 62
     0
 10
341.176
 20
26.9682
 30
0.0
 11
340.963
 21
26.5507
 31
0.0
  0
LINE
  8
0
 62
     0
 10
340.963
 20
26.5507
 30
0.0
 11
340.89
 21
26.0863
 31
0.0
  0
LINE
  8
0
 62
     0
 10
340.89
 20
26.0863
 30
0.0
 11
340.963
 21
25.6232
 31
0.0
  0
LINE
  8
0
 62
     0
 10
340.963
 20
25.6232
 30
0.0
 11
341.176
 21
25.2057
 31
0.0
  0
LINE
  8
0
 62
     0
 10
341.176
 20
25.2057
 30
0.0
 11
341.508
 21
24.8736
 31
0.0
  0
LINE
  8
0
 62
     0
 10
341.508
 20
24.8736
 30
0.0
 11
341.926
 21
24.66
 31
0.0
  0
LINE
  8
0
 62
     0
 10
341.926
 20
24.66
 30
0.0
 11
342.39
 21
24.587
 31
0.0
  0
LINE
  8
0
 62
     0
 10
342.39
 20
24.587
 30
0.0
 11
342.853
 21
24.66
 31
0.0
  0
LINE
  8
0
 62
     0
 10
342.853
 20
24.66
 30
0.0
 11
343.271
 21
24.8736
 31
0.0
  0
LINE
  8
0
 62
     0
 10
343.271
 20
24.8736
 30
0.0
 11
343.603
 21
25.2057
 31
0.0
  0
LINE
  8
0
 62
     0
 10
343.603
 20
25.2057
 30
0.0
 11
343.817
 21
25.6232
 31
0.0
  0
LINE
  8
0
 62
     0
 10
343.817
 20
25.6232
 30
0.0
 11
343.89
 21
26.0863
 31
0.0
  0
LINE
  8
0
 62
     0
 10
343.89
 20
26.0863
 30
0.0
 11
343.817
 21
26.5507
 31
0.0
  0
LINE
  8
0
 62
     0
 10
343.817
 20
26.5507
 30
0.0
 11
343.603
 21
26.9682
 31
0.0
  0
LINE
  8
0
 62
     0
 10
343.603
 20
26.9682
 30
0.0
 11
343.271
 21
27.3003
 31
0.0
  0
LINE
  8
0
 62
     0
 10
343.271
 20
27.3003
 30
0.0
 11
342.853
 21
27.5139
 31
0.0
  0
LINE
  8
0
 62
     0
 10
342.853
 20
27.5139
 30
0.0
 11
342.39
 21
27.5869
 31
0.0
  0
LINE
  8
0
 62
     0
 10
342.39
 20
27.5869
 30
0.0
 11
341.926
 21
27.5139
 31
0.0
  0
LINE
  8
0
 62
     0
 10
173.334
 20
27.5139
 30
0.0
 11
172.916
 21
27.3003
 31
0.0
  0
LINE
  8
0
 62
     0
 10
172.916
 20
27.3003
 30
0.0
 11
172.584
 21
26.9682
 31
0.0
  0
LINE
  8
0
 62
     0
 10
172.584
 20
26.9682
 30
0.0
 11
172.37
 21
26.5507
 31
0.0
  0
LINE
  8
0
 62
     0
 10
172.37
 20
26.5507
 30
0.0
 11
172.296
 21
26.0863
 31
0.0
  0
LINE
  8
0
 62
     0
 10
172.296
 20
26.0863
 30
0.0
 11
172.37
 21
25.6232
 31
0.0
  0
LINE
  8
0
 62
     0
 10
172.37
 20
25.6232
 30
0.0
 11
172.584
 21
25.2057
 31
0.0
  0
LINE
  8
0
 62
     0
 10
172.584
 20
25.2057
 30
0.0
 11
172.916
 21
24.8736
 31
0.0
  0
LINE
  8
0
 62
     0
 10
172.916
 20
24.8736
 30
0.0
 11
173.334
 21
24.66
 31
0.0
  0
LINE
  8
0
 62
     0
 10
173.334
 20
24.66
 30
0.0
 11
173.798
 21
24.587
 31
0.0
  0
LINE
  8
0
 62
     0
 10
173.798
 20
24.587
 30
0.0
 11
174.261
 21
24.66
 31
0.0
  0
LINE
  8
0
 62
     0
 10
174.261
 20
24.66
 30
0.0
 11
174.679
 21
24.8736
 31
0.0
  0
LINE
  8
0
 62
     0
 10
174.679
 20
24.8736
 30
0.0
 11
175.011
 21
25.2057
 31
0.0
  0
LINE
  8
0
 62
     0
 10
175.011
 20
25.2057
 30
0.0
 11
175.223
 21
25.6232
 31
0.0
  0
LINE
  8
0
 62
     0
 10
175.223
 20
25.6232
 30
0.0
 11
175.297
 21
26.0863
 31
0.0
  0
LINE
  8
0
 62
     0
 10
175.297
 20
26.0863
 30
0.0
 11
175.223
 21
26.5507
 31
0.0
  0
LINE
  8
0
 62
     0
 10
175.223
 20
26.5507
 30
0.0
 11
175.011
 21
26.9682
 31
0.0
  0
LINE
  8
0
 62
     0
 10
175.011
 20
26.9682
 30
0.0
 11
174.679
 21
27.3003
 31
0.0
  0
LINE
  8
0
 62
     0
 10
174.679
 20
27.3003
 30
0.0
 11
174.261
 21
27.5139
 31
0.0
  0
LINE
  8
0
 62
     0
 10
174.261
 20
27.5139
 30
0.0
 11
173.798
 21
27.5869
 31
0.0
  0
LINE
  8
0
 62
     0
 10
173.798
 20
27.5869
 30
0.0
 11
173.334
 21
27.5139
 31
0.0
  0
LINE
  8
0
 62
     0
 10
4.74183
 20
27.5139
 30
0.0
 11
4.32428
 21
27.3003
 31
0.0
  0
LINE
  8
0
 62
     0
 10
4.32428
 20
27.3003
 30
0.0
 11
3.99217
 21
26.9682
 31
0.0
  0
LINE
  8
0
 62
     0
 10
3.99217
 20
26.9682
 30
0.0
 11
3.77857
 21
26.5507
 31
0.0
  0
LINE
  8
0
 62
     0
 10
3.77857
 20
26.5507
 30
0.0
 11
3.70417
 21
26.0863
 31
0.0
  0
LINE
  8
0
 62
     0
 10
3.70417
 20
26.0863
 30
0.0
 11
3.77857
 21
25.6232
 31
0.0
  0
LINE
  8
0
 62
     0
 10
3.77857
 20
25.6232
 30
0.0
 11
3.99217
 21
25.2057
 31
0.0
  0
LINE
  8
0
 62
     0
 10
3.99217
 20
25.2057
 30
0.0
 11
4.32428
 21
24.8736
 31
0.0
  0
LINE
  8
0
 62
     0
 10
4.32428
 20
24.8736
 30
0.0
 11
4.74183
 21
24.66
 31
0.0
  0
LINE
  8
0
 62
     0
 10
4.74183
 20
24.66
 30
0.0
 11
5.20485
 21
24.587
 31
0.0
  0
LINE
  8
0
 62
     0
 10
5.20485
 20
24.587
 30
0.0
 11
5.66924
 21
24.66
 31
0.0
  0
LINE
  8
0
 62
     0
 10
5.66924
 20
24.66
 30
0.0
 11
6.08679
 21
24.8736
 31
0.0
  0
LINE
  8
0
 62
     0
 10
6.08679
 20
24.8736
 30
0.0
 11
6.4189
 21
25.2057
 31
0.0
  0
LINE
  8
0
 62
     0
 10
6.4189
 20
25.2057
 30
0.0
 11
6.63113
 21
25.6232
 31
0.0
  0
LINE
  8
0
 62
     0
 10
6.63113
 20
25.6232
 30
0.0
 11
6.70415
 21
26.0863
 31
0.0
  0
LINE
  8
0
 62
     0
 10
6.70415
 20
26.0863
 30
0.0
 11
6.63113
 21
26.5507
 31
0.0
  0
LINE
  8
0
 62
     0
 10
6.63113
 20
26.5507
 30
0.0
 11
6.4189
 21
26.9682
 31
0.0
  0
LINE
  8
0
 62
     0
 10
6.4189
 20
26.9682
 30
0.0
 11
6.08679
 21
27.3003
 31
0.0
  0
LINE
  8
0
 62
     0
 10
6.08679
 20
27.3003
 30
0.0
 11
5.66924
 21
27.5139
 31
0.0
  0
LINE
  8
0
 62
     0
 10
5.66924
 20
27.5139
 30
0.0
 11
5.20485
 21
27.5869
 31
0.0
  0
LINE
  8
0
 62
     0
 10
5.20485
 20
27.5869
 30
0.0
 11
4.74183
 21
27.5139
 31
0.0
  0
LINE
  8
0
 62
     0
 10
186.799
 20
47.6127
 30
0.0
 11
186.799
 21
42.9122
 31
0.0
  0
LINE
  8
0
 62
     0
 10
186.799
 20
42.9122
 30
0.0
 11
147.173
 21
42.9122
 31
0.0
  0
LINE
  8
0
 62
     0
 10
147.173
 20
42.9122
 30
0.0
 11
147.173
 21
46.1423
 31
0.0
  0
LINE
  8
0
 62
     0
 10
147.173
 20
46.1423
 30
0.0
 11
140.424
 21
46.1423
 31
0.0
  0
LINE
  8
0
 62
     0
 10
140.424
 20
46.1423
 30
0.0
 11
140.424
 21
42.9122
 31
0.0
  0
LINE
  8
0
 62
     0
 10
140.424
 20
42.9122
 30
0.0
 11
139.599
 21
42.9122
 31
0.0
  0
LINE
  8
0
 62
     0
 10
139.599
 20
42.9122
 30
0.0
 11
139.599
 21
40.1119
 31
0.0
  0
LINE
  8
0
 62
     0
 10
139.599
 20
40.1119
 30
0.0
 11
140.424
 21
40.1119
 31
0.0
  0
LINE
  8
0
 62
     0
 10
140.424
 20
40.1119
 30
0.0
 11
140.424
 21
33.8419
 31
0.0
  0
LINE
  8
0
 62
     0
 10
140.424
 20
33.8419
 30
0.0
 11
142.149
 21
33.8419
 31
0.0
  0
LINE
  8
0
 62
     0
 10
142.149
 20
33.8419
 30
0.0
 11
142.149
 21
32.643
 31
0.0
  0
LINE
  8
0
 62
     0
 10
142.149
 20
32.643
 30
0.0
 11
145.449
 21
32.643
 31
0.0
  0
LINE
  8
0
 62
     0
 10
145.449
 20
32.643
 30
0.0
 11
145.449
 21
33.8419
 31
0.0
  0
LINE
  8
0
 62
     0
 10
145.449
 20
33.8419
 30
0.0
 11
147.173
 21
33.8419
 31
0.0
  0
LINE
  8
0
 62
     0
 10
147.173
 20
33.8419
 30
0.0
 11
147.173
 21
38.3124
 31
0.0
  0
LINE
  8
0
 62
     0
 10
147.173
 20
38.3124
 30
0.0
 11
186.799
 21
38.3124
 31
0.0
  0
LINE
  8
0
 62
     0
 10
186.799
 20
38.3124
 30
0.0
 11
186.799
 21
33.6117
 31
0.0
  0
LINE
  8
0
 62
     0
 10
186.799
 20
33.6117
 30
0.0
 11
200.798
 21
33.6117
 31
0.0
  0
LINE
  8
0
 62
     0
 10
200.798
 20
33.6117
 30
0.0
 11
200.798
 21
38.3124
 31
0.0
  0
LINE
  8
0
 62
     0
 10
200.798
 20
38.3124
 30
0.0
 11
240.424
 21
38.3124
 31
0.0
  0
LINE
  8
0
 62
     0
 10
240.424
 20
38.3124
 30
0.0
 11
240.424
 21
33.8419
 31
0.0
  0
LINE
  8
0
 62
     0
 10
240.424
 20
33.8419
 30
0.0
 11
242.149
 21
33.8419
 31
0.0
  0
LINE
  8
0
 62
     0
 10
242.149
 20
33.8419
 30
0.0
 11
242.149
 21
32.643
 31
0.0
  0
LINE
  8
0
 62
     0
 10
242.149
 20
32.643
 30
0.0
 11
245.449
 21
32.643
 31
0.0
  0
LINE
  8
0
 62
     0
 10
245.449
 20
32.643
 30
0.0
 11
245.449
 21
33.8419
 31
0.0
  0
LINE
  8
0
 62
     0
 10
245.449
 20
33.8419
 30
0.0
 11
247.173
 21
33.8419
 31
0.0
  0
LINE
  8
0
 62
     0
 10
247.173
 20
33.8419
 30
0.0
 11
247.173
 21
40.1119
 31
0.0
  0
LINE
  8
0
 62
     0
 10
247.173
 20
40.1119
 30
0.0
 11
247.999
 21
40.1119
 31
0.0
  0
LINE
  8
0
 62
     0
 10
247.999
 20
40.1119
 30
0.0
 11
247.999
 21
42.9122
 31
0.0
  0
LINE
  8
0
 62
     0
 10
247.999
 20
42.9122
 30
0.0
 11
247.173
 21
42.9122
 31
0.0
  0
LINE
  8
0
 62
     0
 10
247.173
 20
42.9122
 30
0.0
 11
247.173
 21
46.1423
 31
0.0
  0
LINE
  8
0
 62
     0
 10
247.173
 20
46.1423
 30
0.0
 11
240.424
 21
46.1423
 31
0.0
  0
LINE
  8
0
 62
     0
 10
240.424
 20
46.1423
 30
0.0
 11
240.424
 21
42.9122
 31
0.0
  0
LINE
  8
0
 62
     0
 10
240.424
 20
42.9122
 30
0.0
 11
200.798
 21
42.9122
 31
0.0
  0
LINE
  8
0
 62
     0
 10
200.798
 20
42.9122
 30
0.0
 11
200.798
 21
47.6127
 31
0.0
  0
LINE
  8
0
 62
     0
 10
200.798
 20
47.6127
 30
0.0
 11
186.799
 21
47.6127
 31
0.0
  0
LINE
  8
0
 62
     0
 10
436.831
 20
47.6127
 30
0.0
 11
436.831
 21
42.9122
 31
0.0
  0
LINE
  8
0
 62
     0
 10
436.831
 20
42.9122
 30
0.0
 11
435.307
 21
42.9122
 31
0.0
  0
LINE
  8
0
 62
     0
 10
435.307
 20
42.9122
 30
0.0
 11
435.307
 21
46.1423
 31
0.0
  0
LINE
  8
0
 62
     0
 10
435.307
 20
46.1423
 30
0.0
 11
428.554
 21
46.1423
 31
0.0
  0
LINE
  8
0
 62
     0
 10
428.554
 20
46.1423
 30
0.0
 11
428.554
 21
42.9122
 31
0.0
  0
LINE
  8
0
 62
     0
 10
428.554
 20
42.9122
 30
0.0
 11
427.729
 21
42.9122
 31
0.0
  0
LINE
  8
0
 62
     0
 10
427.729
 20
42.9122
 30
0.0
 11
427.729
 21
40.1119
 31
0.0
  0
LINE
  8
0
 62
     0
 10
427.729
 20
40.1119
 30
0.0
 11
428.554
 21
40.1119
 31
0.0
  0
LINE
  8
0
 62
     0
 10
428.554
 20
40.1119
 30
0.0
 11
428.554
 21
33.8419
 31
0.0
  0
LINE
  8
0
 62
     0
 10
428.554
 20
33.8419
 30
0.0
 11
430.283
 21
33.8419
 31
0.0
  0
LINE
  8
0
 62
     0
 10
430.283
 20
33.8419
 30
0.0
 11
430.283
 21
32.643
 31
0.0
  0
LINE
  8
0
 62
     0
 10
430.283
 20
32.643
 30
0.0
 11
433.582
 21
32.643
 31
0.0
  0
LINE
  8
0
 62
     0
 10
433.582
 20
32.643
 30
0.0
 11
433.582
 21
33.8419
 31
0.0
  0
LINE
  8
0
 62
     0
 10
433.582
 20
33.8419
 30
0.0
 11
435.307
 21
33.8419
 31
0.0
  0
LINE
  8
0
 62
     0
 10
435.307
 20
33.8419
 30
0.0
 11
435.307
 21
38.3124
 31
0.0
  0
LINE
  8
0
 62
     0
 10
435.307
 20
38.3124
 30
0.0
 11
436.831
 21
38.3124
 31
0.0
  0
LINE
  8
0
 62
     0
 10
436.831
 20
38.3124
 30
0.0
 11
436.831
 21
33.6117
 31
0.0
  0
LINE
  8
0
 62
     0
 10
436.831
 20
33.6117
 30
0.0
 11
450.832
 21
33.6117
 31
0.0
  0
LINE
  8
0
 62
     0
 10
450.832
 20
33.6117
 30
0.0
 11
450.832
 21
38.3124
 31
0.0
  0
LINE
  8
0
 62
     0
 10
450.832
 20
38.3124
 30
0.0
 11
452.356
 21
38.3124
 31
0.0
  0
LINE
  8
0
 62
     0
 10
452.356
 20
38.3124
 30
0.0
 11
452.356
 21
33.8419
 31
0.0
  0
LINE
  8
0
 62
     0
 10
452.356
 20
33.8419
 30
0.0
 11
454.081
 21
33.8419
 31
0.0
  0
LINE
  8
0
 62
     0
 10
454.081
 20
33.8419
 30
0.0
 11
454.081
 21
32.643
 31
0.0
  0
LINE
  8
0
 62
     0
 10
454.081
 20
32.643
 30
0.0
 11
457.38
 21
32.643
 31
0.0
  0
LINE
  8
0
 62
     0
 10
457.38
 20
32.643
 30
0.0
 11
457.38
 21
33.8419
 31
0.0
  0
LINE
  8
0
 62
     0
 10
457.38
 20
33.8419
 30
0.0
 11
459.105
 21
33.8419
 31
0.0
  0
LINE
  8
0
 62
     0
 10
459.105
 20
33.8419
 30
0.0
 11
459.105
 21
40.1119
 31
0.0
  0
LINE
  8
0
 62
     0
 10
459.105
 20
40.1119
 30
0.0
 11
459.93
 21
40.1119
 31
0.0
  0
LINE
  8
0
 62
     0
 10
459.93
 20
40.1119
 30
0.0
 11
459.93
 21
42.9122
 31
0.0
  0
LINE
  8
0
 62
     0
 10
459.93
 20
42.9122
 30
0.0
 11
459.105
 21
42.9122
 31
0.0
  0
LINE
  8
0
 62
     0
 10
459.105
 20
42.9122
 30
0.0
 11
459.105
 21
46.1423
 31
0.0
  0
LINE
  8
0
 62
     0
 10
459.105
 20
46.1423
 30
0.0
 11
452.356
 21
46.1423
 31
0.0
  0
LINE
  8
0
 62
     0
 10
452.356
 20
46.1423
 30
0.0
 11
452.356
 21
42.9122
 31
0.0
  0
LINE
  8
0
 62
     0
 10
452.356
 20
42.9122
 30
0.0
 11
450.832
 21
42.9122
 31
0.0
  0
LINE
  8
0
 62
     0
 10
450.832
 20
42.9122
 30
0.0
 11
450.832
 21
47.6127
 31
0.0
  0
LINE
  8
0
 62
     0
 10
450.832
 20
47.6127
 30
0.0
 11
436.831
 21
47.6127
 31
0.0
  0
LINE
  8
0
 62
     0
 10
17.7312
 20
47.6127
 30
0.0
 11
31.7307
 21
47.6127
 31
0.0
  0
LINE
  8
0
 62
     0
 10
31.7307
 20
47.6127
 30
0.0
 11
31.7307
 21
33.6117
 31
0.0
  0
LINE
  8
0
 62
     0
 10
31.7307
 20
33.6117
 30
0.0
 11
17.7312
 21
33.6117
 31
0.0
  0
LINE
  8
0
 62
     0
 10
17.7312
 20
33.6117
 30
0.0
 11
17.7312
 21
47.6127
 31
0.0
  0
LINE
  8
0
 62
     0
 10
36.7813
 20
47.6127
 30
0.0
 11
50.7806
 21
47.6127
 31
0.0
  0
LINE
  8
0
 62
     0
 10
50.7806
 20
47.6127
 30
0.0
 11
50.7806
 21
33.6117
 31
0.0
  0
LINE
  8
0
 62
     0
 10
50.7806
 20
33.6117
 30
0.0
 11
36.7813
 21
33.6117
 31
0.0
  0
LINE
  8
0
 62
     0
 10
36.7813
 20
33.6117
 30
0.0
 11
36.7813
 21
47.6127
 31
0.0
  0
LINE
  8
0
 62
     0
 10
67.7362
 20
47.6127
 30
0.0
 11
81.7369
 21
47.6127
 31
0.0
  0
LINE
  8
0
 62
     0
 10
81.7369
 20
47.6127
 30
0.0
 11
81.7369
 21
33.6117
 31
0.0
  0
LINE
  8
0
 62
     0
 10
81.7369
 20
33.6117
 30
0.0
 11
67.7362
 21
33.6117
 31
0.0
  0
LINE
  8
0
 62
     0
 10
67.7362
 20
33.6117
 30
0.0
 11
67.7362
 21
47.6127
 31
0.0
  0
LINE
  8
0
 62
     0
 10
91.5487
 20
47.6127
 30
0.0
 11
105.548
 21
47.6127
 31
0.0
  0
LINE
  8
0
 62
     0
 10
105.548
 20
47.6127
 30
0.0
 11
105.548
 21
33.6117
 31
0.0
  0
LINE
  8
0
 62
     0
 10
105.548
 20
33.6117
 30
0.0
 11
91.5487
 21
33.6117
 31
0.0
  0
LINE
  8
0
 62
     0
 10
91.5487
 20
33.6117
 30
0.0
 11
91.5487
 21
47.6127
 31
0.0
  0
LINE
  8
0
 62
     0
 10
115.361
 20
47.6127
 30
0.0
 11
129.362
 21
47.6127
 31
0.0
  0
LINE
  8
0
 62
     0
 10
129.362
 20
47.6127
 30
0.0
 11
129.362
 21
33.6117
 31
0.0
  0
LINE
  8
0
 62
     0
 10
129.362
 20
33.6117
 30
0.0
 11
115.361
 21
33.6117
 31
0.0
  0
LINE
  8
0
 62
     0
 10
115.361
 20
33.6117
 30
0.0
 11
115.361
 21
47.6127
 31
0.0
  0
LINE
  8
0
 62
     0
 10
258.236
 20
47.6127
 30
0.0
 11
272.237
 21
47.6127
 31
0.0
  0
LINE
  8
0
 62
     0
 10
272.237
 20
47.6127
 30
0.0
 11
272.237
 21
33.6117
 31
0.0
  0
LINE
  8
0
 62
     0
 10
272.237
 20
33.6117
 30
0.0
 11
258.236
 21
33.6117
 31
0.0
  0
LINE
  8
0
 62
     0
 10
258.236
 20
33.6117
 30
0.0
 11
258.236
 21
47.6127
 31
0.0
  0
LINE
  8
0
 62
     0
 10
282.049
 20
47.6127
 30
0.0
 11
296.048
 21
47.6127
 31
0.0
  0
LINE
  8
0
 62
     0
 10
296.048
 20
47.6127
 30
0.0
 11
296.048
 21
33.6117
 31
0.0
  0
LINE
  8
0
 62
     0
 10
296.048
 20
33.6117
 30
0.0
 11
282.049
 21
33.6117
 31
0.0
  0
LINE
  8
0
 62
     0
 10
282.049
 20
33.6117
 30
0.0
 11
282.049
 21
47.6127
 31
0.0
  0
LINE
  8
0
 62
     0
 10
305.861
 20
47.6127
 30
0.0
 11
319.862
 21
47.6127
 31
0.0
  0
LINE
  8
0
 62
     0
 10
319.862
 20
47.6127
 30
0.0
 11
319.862
 21
33.6117
 31
0.0
  0
LINE
  8
0
 62
     0
 10
319.862
 20
33.6117
 30
0.0
 11
305.861
 21
33.6117
 31
0.0
  0
LINE
  8
0
 62
     0
 10
305.861
 20
33.6117
 30
0.0
 11
305.861
 21
47.6127
 31
0.0
  0
LINE
  8
0
 62
     0
 10
329.674
 20
47.6127
 30
0.0
 11
343.673
 21
47.6127
 31
0.0
  0
LINE
  8
0
 62
     0
 10
343.673
 20
47.6127
 30
0.0
 11
343.673
 21
33.6117
 31
0.0
  0
LINE
  8
0
 62
     0
 10
343.673
 20
33.6117
 30
0.0
 11
329.674
 21
33.6117
 31
0.0
  0
LINE
  8
0
 62
     0
 10
329.674
 20
33.6117
 30
0.0
 11
329.674
 21
47.6127
 31
0.0
  0
LINE
  8
0
 62
     0
 10
360.631
 20
47.6127
 30
0.0
 11
374.632
 21
47.6127
 31
0.0
  0
LINE
  8
0
 62
     0
 10
374.632
 20
47.6127
 30
0.0
 11
374.632
 21
33.6117
 31
0.0
  0
LINE
  8
0
 62
     0
 10
374.632
 20
33.6117
 30
0.0
 11
360.631
 21
33.6117
 31
0.0
  0
LINE
  8
0
 62
     0
 10
360.631
 20
33.6117
 30
0.0
 11
360.631
 21
47.6127
 31
0.0
  0
LINE
  8
0
 62
     0
 10
379.681
 20
47.6127
 30
0.0
 11
393.682
 21
47.6127
 31
0.0
  0
LINE
  8
0
 62
     0
 10
393.682
 20
47.6127
 30
0.0
 11
393.682
 21
33.6117
 31
0.0
  0
LINE
  8
0
 62
     0
 10
393.682
 20
33.6117
 30
0.0
 11
379.681
 21
33.6117
 31
0.0
  0
LINE
  8
0
 62
     0
 10
379.681
 20
33.6117
 30
0.0
 11
379.681
 21
47.6127
 31
0.0
  0
LINE
  8
0
 62
     0
 10
398.731
 20
47.6127
 30
0.0
 11
412.732
 21
47.6127
 31
0.0
  0
LINE
  8
0
 62
     0
 10
412.732
 20
47.6127
 30
0.0
 11
412.732
 21
33.6117
 31
0.0
  0
LINE
  8
0
 62
     0
 10
412.732
 20
33.6117
 30
0.0
 11
398.731
 21
33.6117
 31
0.0
  0
LINE
  8
0
 62
     0
 10
398.731
 20
33.6117
 30
0.0
 11
398.731
 21
47.6127
 31
0.0
  0
LINE
  8
0
 62
     0
 10
465.406
 20
47.6127
 30
0.0
 11
479.407
 21
47.6127
 31
0.0
  0
LINE
  8
0
 62
     0
 10
479.407
 20
47.6127
 30
0.0
 11
479.407
 21
33.6117
 31
0.0
  0
LINE
  8
0
 62
     0
 10
479.407
 20
33.6117
 30
0.0
 11
465.406
 21
33.6117
 31
0.0
  0
LINE
  8
0
 62
     0
 10
465.406
 20
33.6117
 30
0.0
 11
465.406
 21
47.6127
 31
0.0
  0
LINE
  8
0
 62
     0
 10
490.957
 20
66.2368
 30
0.0
 11
490.957
 21
65.4128
 31
0.0
  0
LINE
  8
0
 62
     0
 10
490.957
 20
65.4128
 30
0.0
 11
484.685
 21
65.4128
 31
0.0
  0
LINE
  8
0
 62
     0
 10
484.685
 20
65.4128
 30
0.0
 11
484.685
 21
63.6873
 31
0.0
  0
LINE
  8
0
 62
     0
 10
484.685
 20
63.6873
 30
0.0
 11
483.485
 21
63.6873
 31
0.0
  0
LINE
  8
0
 62
     0
 10
483.485
 20
63.6873
 30
0.0
 11
483.485
 21
60.3871
 31
0.0
  0
LINE
  8
0
 62
     0
 10
483.485
 20
60.3871
 30
0.0
 11
484.685
 21
60.3871
 31
0.0
  0
LINE
  8
0
 62
     0
 10
484.685
 20
60.3871
 30
0.0
 11
484.685
 21
58.6617
 31
0.0
  0
LINE
  8
0
 62
     0
 10
484.685
 20
58.6617
 30
0.0
 11
489.155
 21
58.6617
 31
0.0
  0
LINE
  8
0
 62
     0
 10
489.155
 20
58.6617
 30
0.0
 11
489.155
 21
57.1377
 31
0.0
  0
LINE
  8
0
 62
     0
 10
489.155
 20
57.1377
 30
0.0
 11
484.456
 21
57.1377
 31
0.0
  0
LINE
  8
0
 62
     0
 10
484.456
 20
57.1377
 30
0.0
 11
484.456
 21
43.1366
 31
0.0
  0
LINE
  8
0
 62
     0
 10
484.456
 20
43.1366
 30
0.0
 11
489.155
 21
43.1366
 31
0.0
  0
LINE
  8
0
 62
     0
 10
489.155
 20
43.1366
 30
0.0
 11
489.155
 21
41.6126
 31
0.0
  0
LINE
  8
0
 62
     0
 10
489.155
 20
41.6126
 30
0.0
 11
484.685
 21
41.6126
 31
0.0
  0
LINE
  8
0
 62
     0
 10
484.685
 20
41.6126
 30
0.0
 11
484.685
 21
39.8872
 31
0.0
  0
LINE
  8
0
 62
     0
 10
484.685
 20
39.8872
 30
0.0
 11
483.485
 21
39.8872
 31
0.0
  0
LINE
  8
0
 62
     0
 10
483.485
 20
39.8872
 30
0.0
 11
483.485
 21
36.5869
 31
0.0
  0
LINE
  8
0
 62
     0
 10
483.485
 20
36.5869
 30
0.0
 11
484.685
 21
36.5869
 31
0.0
  0
LINE
  8
0
 62
     0
 10
484.685
 20
36.5869
 30
0.0
 11
484.685
 21
34.863
 31
0.0
  0
LINE
  8
0
 62
     0
 10
484.685
 20
34.863
 30
0.0
 11
490.957
 21
34.863
 31
0.0
  0
LINE
  8
0
 62
     0
 10
490.957
 20
34.863
 30
0.0
 11
490.957
 21
34.0376
 31
0.0
  0
LINE
  8
0
 62
     0
 10
490.957
 20
34.0376
 30
0.0
 11
493.755
 21
34.0376
 31
0.0
  0
LINE
  8
0
 62
     0
 10
493.755
 20
34.0376
 30
0.0
 11
493.755
 21
34.863
 31
0.0
  0
LINE
  8
0
 62
     0
 10
493.755
 20
34.863
 30
0.0
 11
496.986
 21
34.863
 31
0.0
  0
LINE
  8
0
 62
     0
 10
496.986
 20
34.863
 30
0.0
 11
496.986
 21
41.6126
 31
0.0
  0
LINE
  8
0
 62
     0
 10
496.986
 20
41.6126
 30
0.0
 11
493.755
 21
41.6126
 31
0.0
  0
LINE
  8
0
 62
     0
 10
493.755
 20
41.6126
 30
0.0
 11
493.755
 21
43.1366
 31
0.0
  0
LINE
  8
0
 62
     0
 10
493.755
 20
43.1366
 30
0.0
 11
498.457
 21
43.1366
 31
0.0
  0
LINE
  8
0
 62
     0
 10
498.457
 20
43.1366
 30
0.0
 11
498.457
 21
57.1377
 31
0.0
  0
LINE
  8
0
 62
     0
 10
498.457
 20
57.1377
 30
0.0
 11
493.755
 21
57.1377
 31
0.0
  0
LINE
  8
0
 62
     0
 10
493.755
 20
57.1377
 30
0.0
 11
493.755
 21
58.6617
 31
0.0
  0
LINE
  8
0
 62
     0
 10
493.755
 20
58.6617
 30
0.0
 11
496.986
 21
58.6617
 31
0.0
  0
LINE
  8
0
 62
     0
 10
496.986
 20
58.6617
 30
0.0
 11
496.986
 21
65.4128
 31
0.0
  0
LINE
  8
0
 62
     0
 10
496.986
 20
65.4128
 30
0.0
 11
493.755
 21
65.4128
 31
0.0
  0
LINE
  8
0
 62
     0
 10
493.755
 20
65.4128
 30
0.0
 11
493.755
 21
66.2368
 31
0.0
  0
LINE
  8
0
 62
     0
 10
493.755
 20
66.2368
 30
0.0
 11
490.957
 21
66.2368
 31
0.0
  0
LINE
  8
0
 62
     0
 10
77.2612
 20
66.6627
 30
0.0
 11
77.2612
 21
61.9622
 31
0.0
  0
LINE
  8
0
 62
     0
 10
77.2612
 20
61.9622
 30
0.0
 11
75.7372
 21
61.9622
 31
0.0
  0
LINE
  8
0
 62
     0
 10
75.7372
 20
61.9622
 30
0.0
 11
75.7372
 21
65.1923
 31
0.0
  0
LINE
  8
0
 62
     0
 10
75.7372
 20
65.1923
 30
0.0
 11
68.9875
 21
65.1923
 31
0.0
  0
LINE
  8
0
 62
     0
 10
68.9875
 20
65.1923
 30
0.0
 11
68.9875
 21
61.9622
 31
0.0
  0
LINE
  8
0
 62
     0
 10
68.9875
 20
61.9622
 30
0.0
 11
68.162
 21
61.9622
 31
0.0
  0
LINE
  8
0
 62
     0
 10
68.162
 20
61.9622
 30
0.0
 11
68.162
 21
59.1619
 31
0.0
  0
LINE
  8
0
 62
     0
 10
68.162
 20
59.1619
 30
0.0
 11
68.9875
 21
59.1619
 31
0.0
  0
LINE
  8
0
 62
     0
 10
68.9875
 20
59.1619
 30
0.0
 11
68.9875
 21
52.892
 31
0.0
  0
LINE
  8
0
 62
     0
 10
68.9875
 20
52.892
 30
0.0
 11
70.7111
 21
52.892
 31
0.0
  0
LINE
  8
0
 62
     0
 10
70.7111
 20
52.892
 30
0.0
 11
70.7111
 21
51.6929
 31
0.0
  0
LINE
  8
0
 62
     0
 10
70.7111
 20
51.6929
 30
0.0
 11
74.0117
 21
51.6929
 31
0.0
  0
LINE
  8
0
 62
     0
 10
74.0117
 20
51.6929
 30
0.0
 11
74.0117
 21
52.892
 31
0.0
  0
LINE
  8
0
 62
     0
 10
74.0117
 20
52.892
 30
0.0
 11
75.7372
 21
52.892
 31
0.0
  0
LINE
  8
0
 62
     0
 10
75.7372
 20
52.892
 30
0.0
 11
75.7372
 21
57.3624
 31
0.0
  0
LINE
  8
0
 62
     0
 10
75.7372
 20
57.3624
 30
0.0
 11
77.2612
 21
57.3624
 31
0.0
  0
LINE
  8
0
 62
     0
 10
77.2612
 20
57.3624
 30
0.0
 11
77.2612
 21
52.6616
 31
0.0
  0
LINE
  8
0
 62
     0
 10
77.2612
 20
52.6616
 30
0.0
 11
91.2619
 21
52.6616
 31
0.0
  0
LINE
  8
0
 62
     0
 10
91.2619
 20
52.6616
 30
0.0
 11
91.2619
 21
57.3624
 31
0.0
  0
LINE
  8
0
 62
     0
 10
91.2619
 20
57.3624
 30
0.0
 11
92.7862
 21
57.3624
 31
0.0
  0
LINE
  8
0
 62
     0
 10
92.7862
 20
57.3624
 30
0.0
 11
92.7862
 21
52.892
 31
0.0
  0
LINE
  8
0
 62
     0
 10
92.7862
 20
52.892
 30
0.0
 11
94.5113
 21
52.892
 31
0.0
  0
LINE
  8
0
 62
     0
 10
94.5113
 20
52.892
 30
0.0
 11
94.5113
 21
51.6929
 31
0.0
  0
LINE
  8
0
 62
     0
 10
94.5113
 20
51.6929
 30
0.0
 11
97.8119
 21
51.6929
 31
0.0
  0
LINE
  8
0
 62
     0
 10
97.8119
 20
51.6929
 30
0.0
 11
97.8119
 21
52.892
 31
0.0
  0
LINE
  8
0
 62
     0
 10
97.8119
 20
52.892
 30
0.0
 11
99.537
 21
52.892
 31
0.0
  0
LINE
  8
0
 62
     0
 10
99.537
 20
52.892
 30
0.0
 11
99.537
 21
59.1619
 31
0.0
  0
LINE
  8
0
 62
     0
 10
99.537
 20
59.1619
 30
0.0
 11
100.361
 21
59.1619
 31
0.0
  0
LINE
  8
0
 62
     0
 10
100.361
 20
59.1619
 30
0.0
 11
100.361
 21
61.9622
 31
0.0
  0
LINE
  8
0
 62
     0
 10
100.361
 20
61.9622
 30
0.0
 11
99.537
 21
61.9622
 31
0.0
  0
LINE
  8
0
 62
     0
 10
99.537
 20
61.9622
 30
0.0
 11
99.537
 21
65.1923
 31
0.0
  0
LINE
  8
0
 62
     0
 10
99.537
 20
65.1923
 30
0.0
 11
92.7862
 21
65.1923
 31
0.0
  0
LINE
  8
0
 62
     0
 10
92.7862
 20
65.1923
 30
0.0
 11
92.7862
 21
61.9622
 31
0.0
  0
LINE
  8
0
 62
     0
 10
92.7862
 20
61.9622
 30
0.0
 11
91.2619
 21
61.9622
 31
0.0
  0
LINE
  8
0
 62
     0
 10
91.2619
 20
61.9622
 30
0.0
 11
91.2619
 21
66.6627
 31
0.0
  0
LINE
  8
0
 62
     0
 10
91.2619
 20
66.6627
 30
0.0
 11
77.2612
 21
66.6627
 31
0.0
  0
LINE
  8
0
 62
     0
 10
315.386
 20
66.6627
 30
0.0
 11
315.386
 21
61.9622
 31
0.0
  0
LINE
  8
0
 62
     0
 10
315.386
 20
61.9622
 30
0.0
 11
313.862
 21
61.9622
 31
0.0
  0
LINE
  8
0
 62
     0
 10
313.862
 20
61.9622
 30
0.0
 11
313.862
 21
65.1923
 31
0.0
  0
LINE
  8
0
 62
     0
 10
313.862
 20
65.1923
 30
0.0
 11
307.112
 21
65.1923
 31
0.0
  0
LINE
  8
0
 62
     0
 10
307.112
 20
65.1923
 30
0.0
 11
307.112
 21
61.9622
 31
0.0
  0
LINE
  8
0
 62
     0
 10
307.112
 20
61.9622
 30
0.0
 11
306.287
 21
61.9622
 31
0.0
  0
LINE
  8
0
 62
     0
 10
306.287
 20
61.9622
 30
0.0
 11
306.287
 21
59.1619
 31
0.0
  0
LINE
  8
0
 62
     0
 10
306.287
 20
59.1619
 30
0.0
 11
307.112
 21
59.1619
 31
0.0
  0
LINE
  8
0
 62
     0
 10
307.112
 20
59.1619
 30
0.0
 11
307.112
 21
52.892
 31
0.0
  0
LINE
  8
0
 62
     0
 10
307.112
 20
52.892
 30
0.0
 11
308.836
 21
52.892
 31
0.0
  0
LINE
  8
0
 62
     0
 10
308.836
 20
52.892
 30
0.0
 11
308.836
 21
51.6929
 31
0.0
  0
LINE
  8
0
 62
     0
 10
308.836
 20
51.6929
 30
0.0
 11
312.137
 21
51.6929
 31
0.0
  0
LINE
  8
0
 62
     0
 10
312.137
 20
51.6929
 30
0.0
 11
312.137
 21
52.892
 31
0.0
  0
LINE
  8
0
 62
     0
 10
312.137
 20
52.892
 30
0.0
 11
313.862
 21
52.892
 31
0.0
  0
LINE
  8
0
 62
     0
 10
313.862
 20
52.892
 30
0.0
 11
313.862
 21
57.3624
 31
0.0
  0
LINE
  8
0
 62
     0
 10
313.862
 20
57.3624
 30
0.0
 11
315.386
 21
57.3624
 31
0.0
  0
LINE
  8
0
 62
     0
 10
315.386
 20
57.3624
 30
0.0
 11
315.386
 21
52.6616
 31
0.0
  0
LINE
  8
0
 62
     0
 10
315.386
 20
52.6616
 30
0.0
 11
329.387
 21
52.6616
 31
0.0
  0
LINE
  8
0
 62
     0
 10
329.387
 20
52.6616
 30
0.0
 11
329.387
 21
57.3624
 31
0.0
  0
LINE
  8
0
 62
     0
 10
329.387
 20
57.3624
 30
0.0
 11
330.911
 21
57.3624
 31
0.0
  0
LINE
  8
0
 62
     0
 10
330.911
 20
57.3624
 30
0.0
 11
330.911
 21
52.892
 31
0.0
  0
LINE
  8
0
 62
     0
 10
330.911
 20
52.892
 30
0.0
 11
332.636
 21
52.892
 31
0.0
  0
LINE
  8
0
 62
     0
 10
332.636
 20
52.892
 30
0.0
 11
332.636
 21
51.6929
 31
0.0
  0
LINE
  8
0
 62
     0
 10
332.636
 20
51.6929
 30
0.0
 11
335.937
 21
51.6929
 31
0.0
  0
LINE
  8
0
 62
     0
 10
335.937
 20
51.6929
 30
0.0
 11
335.937
 21
52.892
 31
0.0
  0
LINE
  8
0
 62
     0
 10
335.937
 20
52.892
 30
0.0
 11
337.662
 21
52.892
 31
0.0
  0
LINE
  8
0
 62
     0
 10
337.662
 20
52.892
 30
0.0
 11
337.662
 21
59.1619
 31
0.0
  0
LINE
  8
0
 62
     0
 10
337.662
 20
59.1619
 30
0.0
 11
338.486
 21
59.1619
 31
0.0
  0
LINE
  8
0
 62
     0
 10
338.486
 20
59.1619
 30
0.0
 11
338.486
 21
61.9622
 31
0.0
  0
LINE
  8
0
 62
     0
 10
338.486
 20
61.9622
 30
0.0
 11
337.662
 21
61.9622
 31
0.0
  0
LINE
  8
0
 62
     0
 10
337.662
 20
61.9622
 30
0.0
 11
337.662
 21
65.1923
 31
0.0
  0
LINE
  8
0
 62
     0
 10
337.662
 20
65.1923
 30
0.0
 11
330.911
 21
65.1923
 31
0.0
  0
LINE
  8
0
 62
     0
 10
330.911
 20
65.1923
 30
0.0
 11
330.911
 21
61.9622
 31
0.0
  0
LINE
  8
0
 62
     0
 10
330.911
 20
61.9622
 30
0.0
 11
329.387
 21
61.9622
 31
0.0
  0
LINE
  8
0
 62
     0
 10
329.387
 20
61.9622
 30
0.0
 11
329.387
 21
66.6627
 31
0.0
  0
LINE
  8
0
 62
     0
 10
329.387
 20
66.6627
 30
0.0
 11
315.386
 21
66.6627
 31
0.0
  0
LINE
  8
0
 62
     0
 10
17.7312
 20
66.6627
 30
0.0
 11
31.7307
 21
66.6627
 31
0.0
  0
LINE
  8
0
 62
     0
 10
31.7307
 20
66.6627
 30
0.0
 11
31.7307
 21
52.6616
 31
0.0
  0
LINE
  8
0
 62
     0
 10
31.7307
 20
52.6616
 30
0.0
 11
17.7312
 21
52.6616
 31
0.0
  0
LINE
  8
0
 62
     0
 10
17.7312
 20
52.6616
 30
0.0
 11
17.7312
 21
66.6627
 31
0.0
  0
LINE
  8
0
 62
     0
 10
36.7813
 20
66.6627
 30
0.0
 11
50.7806
 21
66.6627
 31
0.0
  0
LINE
  8
0
 62
     0
 10
50.7806
 20
66.6627
 30
0.0
 11
50.7806
 21
52.6616
 31
0.0
  0
LINE
  8
0
 62
     0
 10
50.7806
 20
52.6616
 30
0.0
 11
36.7813
 21
52.6616
 31
0.0
  0
LINE
  8
0
 62
     0
 10
36.7813
 20
52.6616
 30
0.0
 11
36.7813
 21
66.6627
 31
0.0
  0
LINE
  8
0
 62
     0
 10
108.217
 20
66.6627
 30
0.0
 11
122.218
 21
66.6627
 31
0.0
  0
LINE
  8
0
 62
     0
 10
122.218
 20
66.6627
 30
0.0
 11
122.218
 21
52.6616
 31
0.0
  0
LINE
  8
0
 62
     0
 10
122.218
 20
52.6616
 30
0.0
 11
108.217
 21
52.6616
 31
0.0
  0
LINE
  8
0
 62
     0
 10
108.217
 20
52.6616
 30
0.0
 11
108.217
 21
66.6627
 31
0.0
  0
LINE
  8
0
 62
     0
 10
127.267
 20
66.6627
 30
0.0
 11
141.268
 21
66.6627
 31
0.0
  0
LINE
  8
0
 62
     0
 10
141.268
 20
66.6627
 30
0.0
 11
141.268
 21
52.6616
 31
0.0
  0
LINE
  8
0
 62
     0
 10
141.268
 20
52.6616
 30
0.0
 11
127.267
 21
52.6616
 31
0.0
  0
LINE
  8
0
 62
     0
 10
127.267
 20
52.6616
 30
0.0
 11
127.267
 21
66.6627
 31
0.0
  0
LINE
  8
0
 62
     0
 10
146.317
 20
66.6627
 30
0.0
 11
160.318
 21
66.6627
 31
0.0
  0
LINE
  8
0
 62
     0
 10
160.318
 20
66.6627
 30
0.0
 11
160.318
 21
52.6616
 31
0.0
  0
LINE
  8
0
 62
     0
 10
160.318
 20
52.6616
 30
0.0
 11
146.317
 21
52.6616
 31
0.0
  0
LINE
  8
0
 62
     0
 10
146.317
 20
52.6616
 30
0.0
 11
146.317
 21
66.6627
 31
0.0
  0
LINE
  8
0
 62
     0
 10
165.367
 20
66.6627
 30
0.0
 11
179.368
 21
66.6627
 31
0.0
  0
LINE
  8
0
 62
     0
 10
179.368
 20
66.6627
 30
0.0
 11
179.368
 21
52.6616
 31
0.0
  0
LINE
  8
0
 62
     0
 10
179.368
 20
52.6616
 30
0.0
 11
165.367
 21
52.6616
 31
0.0
  0
LINE
  8
0
 62
     0
 10
165.367
 20
52.6616
 30
0.0
 11
165.367
 21
66.6627
 31
0.0
  0
LINE
  8
0
 62
     0
 10
184.417
 20
66.6627
 30
0.0
 11
198.418
 21
66.6627
 31
0.0
  0
LINE
  8
0
 62
     0
 10
198.418
 20
66.6627
 30
0.0
 11
198.418
 21
52.6616
 31
0.0
  0
LINE
  8
0
 62
     0
 10
198.418
 20
52.6616
 30
0.0
 11
184.417
 21
52.6616
 31
0.0
  0
LINE
  8
0
 62
     0
 10
184.417
 20
52.6616
 30
0.0
 11
184.417
 21
66.6627
 31
0.0
  0
LINE
  8
0
 62
     0
 10
203.467
 20
66.6627
 30
0.0
 11
217.468
 21
66.6627
 31
0.0
  0
LINE
  8
0
 62
     0
 10
217.468
 20
66.6627
 30
0.0
 11
217.468
 21
52.6616
 31
0.0
  0
LINE
  8
0
 62
     0
 10
217.468
 20
52.6616
 30
0.0
 11
203.467
 21
52.6616
 31
0.0
  0
LINE
  8
0
 62
     0
 10
203.467
 20
52.6616
 30
0.0
 11
203.467
 21
66.6627
 31
0.0
  0
LINE
  8
0
 62
     0
 10
222.517
 20
66.6627
 30
0.0
 11
236.518
 21
66.6627
 31
0.0
  0
LINE
  8
0
 62
     0
 10
236.518
 20
66.6627
 30
0.0
 11
236.518
 21
52.6616
 31
0.0
  0
LINE
  8
0
 62
     0
 10
236.518
 20
52.6616
 30
0.0
 11
222.517
 21
52.6616
 31
0.0
  0
LINE
  8
0
 62
     0
 10
222.517
 20
52.6616
 30
0.0
 11
222.517
 21
66.6627
 31
0.0
  0
LINE
  8
0
 62
     0
 10
241.567
 20
66.6627
 30
0.0
 11
255.568
 21
66.6627
 31
0.0
  0
LINE
  8
0
 62
     0
 10
255.568
 20
66.6627
 30
0.0
 11
255.568
 21
52.6616
 31
0.0
  0
LINE
  8
0
 62
     0
 10
255.568
 20
52.6616
 30
0.0
 11
241.567
 21
52.6616
 31
0.0
  0
LINE
  8
0
 62
     0
 10
241.567
 20
52.6616
 30
0.0
 11
241.567
 21
66.6627
 31
0.0
  0
LINE
  8
0
 62
     0
 10
260.617
 20
66.6627
 30
0.0
 11
274.618
 21
66.6627
 31
0.0
  0
LINE
  8
0
 62
     0
 10
274.618
 20
66.6627
 30
0.0
 11
274.618
 21
52.6616
 31
0.0
  0
LINE
  8
0
 62
     0
 10
274.618
 20
52.6616
 30
0.0
 11
260.617
 21
52.6616
 31
0.0
  0
LINE
  8
0
 62
     0
 10
260.617
 20
52.6616
 30
0.0
 11
260.617
 21
66.6627
 31
0.0
  0
LINE
  8
0
 62
     0
 10
279.667
 20
66.6627
 30
0.0
 11
293.668
 21
66.6627
 31
0.0
  0
LINE
  8
0
 62
     0
 10
293.668
 20
66.6627
 30
0.0
 11
293.668
 21
52.6616
 31
0.0
  0
LINE
  8
0
 62
     0
 10
293.668
 20
52.6616
 30
0.0
 11
279.667
 21
52.6616
 31
0.0
  0
LINE
  8
0
 62
     0
 10
279.667
 20
52.6616
 30
0.0
 11
279.667
 21
66.6627
 31
0.0
  0
LINE
  8
0
 62
     0
 10
379.681
 20
66.6627
 30
0.0
 11
393.682
 21
66.6627
 31
0.0
  0
LINE
  8
0
 62
     0
 10
393.682
 20
66.6627
 30
0.0
 11
393.682
 21
52.6616
 31
0.0
  0
LINE
  8
0
 62
     0
 10
393.682
 20
52.6616
 30
0.0
 11
379.681
 21
52.6616
 31
0.0
  0
LINE
  8
0
 62
     0
 10
379.681
 20
52.6616
 30
0.0
 11
379.681
 21
66.6627
 31
0.0
  0
LINE
  8
0
 62
     0
 10
427.306
 20
66.6627
 30
0.0
 11
441.307
 21
66.6627
 31
0.0
  0
LINE
  8
0
 62
     0
 10
441.307
 20
66.6627
 30
0.0
 11
441.307
 21
52.6616
 31
0.0
  0
LINE
  8
0
 62
     0
 10
441.307
 20
52.6616
 30
0.0
 11
427.306
 21
52.6616
 31
0.0
  0
LINE
  8
0
 62
     0
 10
427.306
 20
52.6616
 30
0.0
 11
427.306
 21
66.6627
 31
0.0
  0
LINE
  8
0
 62
     0
 10
446.356
 20
66.6627
 30
0.0
 11
460.357
 21
66.6627
 31
0.0
  0
LINE
  8
0
 62
     0
 10
460.357
 20
66.6627
 30
0.0
 11
460.357
 21
52.6616
 31
0.0
  0
LINE
  8
0
 62
     0
 10
460.357
 20
52.6616
 30
0.0
 11
446.356
 21
52.6616
 31
0.0
  0
LINE
  8
0
 62
     0
 10
446.356
 20
52.6616
 30
0.0
 11
446.356
 21
66.6627
 31
0.0
  0
LINE
  8
0
 62
     0
 10
465.406
 20
66.6627
 30
0.0
 11
479.407
 21
66.6627
 31
0.0
  0
LINE
  8
0
 62
     0
 10
479.407
 20
66.6627
 30
0.0
 11
479.407
 21
52.6616
 31
0.0
  0
LINE
  8
0
 62
     0
 10
479.407
 20
52.6616
 30
0.0
 11
465.406
 21
52.6616
 31
0.0
  0
LINE
  8
0
 62
     0
 10
465.406
 20
52.6616
 30
0.0
 11
465.406
 21
66.6627
 31
0.0
  0
LINE
  8
0
 62
     0
 10
320.149
 20
85.7127
 30
0.0
 11
320.149
 21
81.0122
 31
0.0
  0
LINE
  8
0
 62
     0
 10
320.149
 20
81.0122
 30
0.0
 11
318.623
 21
81.0122
 31
0.0
  0
LINE
  8
0
 62
     0
 10
318.623
 20
81.0122
 30
0.0
 11
318.623
 21
84.2423
 31
0.0
  0
LINE
  8
0
 62
     0
 10
318.623
 20
84.2423
 30
0.0
 11
311.874
 21
84.2423
 31
0.0
  0
LINE
  8
0
 62
     0
 10
311.874
 20
84.2423
 30
0.0
 11
311.874
 21
81.0122
 31
0.0
  0
LINE
  8
0
 62
     0
 10
311.874
 20
81.0122
 30
0.0
 11
311.049
 21
81.0122
 31
0.0
  0
LINE
  8
0
 62
     0
 10
311.049
 20
81.0122
 30
0.0
 11
311.049
 21
78.2119
 31
0.0
  0
LINE
  8
0
 62
     0
 10
311.049
 20
78.2119
 30
0.0
 11
311.874
 21
78.2119
 31
0.0
  0
LINE
  8
0
 62
     0
 10
311.874
 20
78.2119
 30
0.0
 11
311.874
 21
71.942
 31
0.0
  0
LINE
  8
0
 62
     0
 10
311.874
 20
71.942
 30
0.0
 11
313.599
 21
71.942
 31
0.0
  0
LINE
  8
0
 62
     0
 10
313.599
 20
71.942
 30
0.0
 11
313.599
 21
70.7429
 31
0.0
  0
LINE
  8
0
 62
     0
 10
313.599
 20
70.7429
 30
0.0
 11
316.899
 21
70.7429
 31
0.0
  0
LINE
  8
0
 62
     0
 10
316.899
 20
70.7429
 30
0.0
 11
316.899
 21
71.942
 31
0.0
  0
LINE
  8
0
 62
     0
 10
316.899
 20
71.942
 30
0.0
 11
318.623
 21
71.942
 31
0.0
  0
LINE
  8
0
 62
     0
 10
318.623
 20
71.942
 30
0.0
 11
318.623
 21
76.4124
 31
0.0
  0
LINE
  8
0
 62
     0
 10
318.623
 20
76.4124
 30
0.0
 11
320.149
 21
76.4124
 31
0.0
  0
LINE
  8
0
 62
     0
 10
320.149
 20
76.4124
 30
0.0
 11
320.149
 21
71.7116
 31
0.0
  0
LINE
  8
0
 62
     0
 10
320.149
 20
71.7116
 30
0.0
 11
334.148
 21
71.7116
 31
0.0
  0
LINE
  8
0
 62
     0
 10
334.148
 20
71.7116
 30
0.0
 11
334.148
 21
76.4124
 31
0.0
  0
LINE
  8
0
 62
     0
 10
334.148
 20
76.4124
 30
0.0
 11
335.674
 21
76.4124
 31
0.0
  0
LINE
  8
0
 62
     0
 10
335.674
 20
76.4124
 30
0.0
 11
335.674
 21
71.942
 31
0.0
  0
LINE
  8
0
 62
     0
 10
335.674
 20
71.942
 30
0.0
 11
337.399
 21
71.942
 31
0.0
  0
LINE
  8
0
 62
     0
 10
337.399
 20
71.942
 30
0.0
 11
337.399
 21
70.7429
 31
0.0
  0
LINE
  8
0
 62
     0
 10
337.399
 20
70.7429
 30
0.0
 11
340.699
 21
70.7429
 31
0.0
  0
LINE
  8
0
 62
     0
 10
340.699
 20
70.7429
 30
0.0
 11
340.699
 21
71.942
 31
0.0
  0
LINE
  8
0
 62
     0
 10
340.699
 20
71.942
 30
0.0
 11
342.423
 21
71.942
 31
0.0
  0
LINE
  8
0
 62
     0
 10
342.423
 20
71.942
 30
0.0
 11
342.423
 21
78.2119
 31
0.0
  0
LINE
  8
0
 62
     0
 10
342.423
 20
78.2119
 30
0.0
 11
343.249
 21
78.2119
 31
0.0
  0
LINE
  8
0
 62
     0
 10
343.249
 20
78.2119
 30
0.0
 11
343.249
 21
81.0122
 31
0.0
  0
LINE
  8
0
 62
     0
 10
343.249
 20
81.0122
 30
0.0
 11
342.423
 21
81.0122
 31
0.0
  0
LINE
  8
0
 62
     0
 10
342.423
 20
81.0122
 30
0.0
 11
342.423
 21
84.2423
 31
0.0
  0
LINE
  8
0
 62
     0
 10
342.423
 20
84.2423
 30
0.0
 11
335.674
 21
84.2423
 31
0.0
  0
LINE
  8
0
 62
     0
 10
335.674
 20
84.2423
 30
0.0
 11
335.674
 21
81.0122
 31
0.0
  0
LINE
  8
0
 62
     0
 10
335.674
 20
81.0122
 30
0.0
 11
334.148
 21
81.0122
 31
0.0
  0
LINE
  8
0
 62
     0
 10
334.148
 20
81.0122
 30
0.0
 11
334.148
 21
85.7127
 31
0.0
  0
LINE
  8
0
 62
     0
 10
334.148
 20
85.7127
 30
0.0
 11
320.149
 21
85.7127
 31
0.0
  0
LINE
  8
0
 62
     0
 10
17.7312
 20
85.7127
 30
0.0
 11
31.7307
 21
85.7127
 31
0.0
  0
LINE
  8
0
 62
     0
 10
31.7307
 20
85.7127
 30
0.0
 11
31.7307
 21
71.7116
 31
0.0
  0
LINE
  8
0
 62
     0
 10
31.7307
 20
71.7116
 30
0.0
 11
17.7312
 21
71.7116
 31
0.0
  0
LINE
  8
0
 62
     0
 10
17.7312
 20
71.7116
 30
0.0
 11
17.7312
 21
85.7127
 31
0.0
  0
LINE
  8
0
 62
     0
 10
36.7813
 20
85.7127
 30
0.0
 11
50.7806
 21
85.7127
 31
0.0
  0
LINE
  8
0
 62
     0
 10
50.7806
 20
85.7127
 30
0.0
 11
50.7806
 21
71.7116
 31
0.0
  0
LINE
  8
0
 62
     0
 10
50.7806
 20
71.7116
 30
0.0
 11
36.7813
 21
71.7116
 31
0.0
  0
LINE
  8
0
 62
     0
 10
36.7813
 20
71.7116
 30
0.0
 11
36.7813
 21
85.7127
 31
0.0
  0
LINE
  8
0
 62
     0
 10
72.4987
 20
85.7127
 30
0.0
 11
86.4979
 21
85.7127
 31
0.0
  0
LINE
  8
0
 62
     0
 10
86.4979
 20
85.7127
 30
0.0
 11
86.4979
 21
71.7116
 31
0.0
  0
LINE
  8
0
 62
     0
 10
86.4979
 20
71.7116
 30
0.0
 11
72.4987
 21
71.7116
 31
0.0
  0
LINE
  8
0
 62
     0
 10
72.4987
 20
71.7116
 30
0.0
 11
72.4987
 21
85.7127
 31
0.0
  0
LINE
  8
0
 62
     0
 10
98.6924
 20
85.7127
 30
0.0
 11
112.693
 21
85.7127
 31
0.0
  0
LINE
  8
0
 62
     0
 10
112.693
 20
85.7127
 30
0.0
 11
112.693
 21
71.7116
 31
0.0
  0
LINE
  8
0
 62
     0
 10
112.693
 20
71.7116
 30
0.0
 11
98.6924
 21
71.7116
 31
0.0
  0
LINE
  8
0
 62
     0
 10
98.6924
 20
71.7116
 30
0.0
 11
98.6924
 21
85.7127
 31
0.0
  0
LINE
  8
0
 62
     0
 10
117.742
 20
85.7127
 30
0.0
 11
131.743
 21
85.7127
 31
0.0
  0
LINE
  8
0
 62
     0
 10
131.743
 20
85.7127
 30
0.0
 11
131.743
 21
71.7116
 31
0.0
  0
LINE
  8
0
 62
     0
 10
131.743
 20
71.7116
 30
0.0
 11
117.742
 21
71.7116
 31
0.0
  0
LINE
  8
0
 62
     0
 10
117.742
 20
71.7116
 30
0.0
 11
117.742
 21
85.7127
 31
0.0
  0
LINE
  8
0
 62
     0
 10
136.792
 20
85.7127
 30
0.0
 11
150.793
 21
85.7127
 31
0.0
  0
LINE
  8
0
 62
     0
 10
150.793
 20
85.7127
 30
0.0
 11
150.793
 21
71.7116
 31
0.0
  0
LINE
  8
0
 62
     0
 10
150.793
 20
71.7116
 30
0.0
 11
136.792
 21
71.7116
 31
0.0
  0
LINE
  8
0
 62
     0
 10
136.792
 20
71.7116
 30
0.0
 11
136.792
 21
85.7127
 31
0.0
  0
LINE
  8
0
 62
     0
 10
155.842
 20
85.7127
 30
0.0
 11
169.843
 21
85.7127
 31
0.0
  0
LINE
  8
0
 62
     0
 10
169.843
 20
85.7127
 30
0.0
 11
169.843
 21
71.7116
 31
0.0
  0
LINE
  8
0
 62
     0
 10
169.843
 20
71.7116
 30
0.0
 11
155.842
 21
71.7116
 31
0.0
  0
LINE
  8
0
 62
     0
 10
155.842
 20
71.7116
 30
0.0
 11
155.842
 21
85.7127
 31
0.0
  0
LINE
  8
0
 62
     0
 10
174.892
 20
85.7127
 30
0.0
 11
188.893
 21
85.7127
 31
0.0
  0
LINE
  8
0
 62
     0
 10
188.893
 20
85.7127
 30
0.0
 11
188.893
 21
71.7116
 31
0.0
  0
LINE
  8
0
 62
     0
 10
188.893
 20
71.7116
 30
0.0
 11
174.892
 21
71.7116
 31
0.0
  0
LINE
  8
0
 62
     0
 10
174.892
 20
71.7116
 30
0.0
 11
174.892
 21
85.7127
 31
0.0
  0
LINE
  8
0
 62
     0
 10
193.942
 20
85.7127
 30
0.0
 11
207.943
 21
85.7127
 31
0.0
  0
LINE
  8
0
 62
     0
 10
207.943
 20
85.7127
 30
0.0
 11
207.943
 21
71.7116
 31
0.0
  0
LINE
  8
0
 62
     0
 10
207.943
 20
71.7116
 30
0.0
 11
193.942
 21
71.7116
 31
0.0
  0
LINE
  8
0
 62
     0
 10
193.942
 20
71.7116
 30
0.0
 11
193.942
 21
85.7127
 31
0.0
  0
LINE
  8
0
 62
     0
 10
212.992
 20
85.7127
 30
0.0
 11
226.993
 21
85.7127
 31
0.0
  0
LINE
  8
0
 62
     0
 10
226.993
 20
85.7127
 30
0.0
 11
226.993
 21
71.7116
 31
0.0
  0
LINE
  8
0
 62
     0
 10
226.993
 20
71.7116
 30
0.0
 11
212.992
 21
71.7116
 31
0.0
  0
LINE
  8
0
 62
     0
 10
212.992
 20
71.7116
 30
0.0
 11
212.992
 21
85.7127
 31
0.0
  0
LINE
  8
0
 62
     0
 10
232.042
 20
85.7127
 30
0.0
 11
246.043
 21
85.7127
 31
0.0
  0
LINE
  8
0
 62
     0
 10
246.043
 20
85.7127
 30
0.0
 11
246.043
 21
71.7116
 31
0.0
  0
LINE
  8
0
 62
     0
 10
246.043
 20
71.7116
 30
0.0
 11
232.042
 21
71.7116
 31
0.0
  0
LINE
  8
0
 62
     0
 10
232.042
 20
71.7116
 30
0.0
 11
232.042
 21
85.7127
 31
0.0
  0
LINE
  8
0
 62
     0
 10
251.092
 20
85.7127
 30
0.0
 11
265.093
 21
85.7127
 31
0.0
  0
LINE
  8
0
 62
     0
 10
265.093
 20
85.7127
 30
0.0
 11
265.093
 21
71.7116
 31
0.0
  0
LINE
  8
0
 62
     0
 10
265.093
 20
71.7116
 30
0.0
 11
251.092
 21
71.7116
 31
0.0
  0
LINE
  8
0
 62
     0
 10
251.092
 20
71.7116
 30
0.0
 11
251.092
 21
85.7127
 31
0.0
  0
LINE
  8
0
 62
     0
 10
270.142
 20
85.7127
 30
0.0
 11
284.143
 21
85.7127
 31
0.0
  0
LINE
  8
0
 62
     0
 10
284.143
 20
85.7127
 30
0.0
 11
284.143
 21
71.7116
 31
0.0
  0
LINE
  8
0
 62
     0
 10
284.143
 20
71.7116
 30
0.0
 11
270.142
 21
71.7116
 31
0.0
  0
LINE
  8
0
 62
     0
 10
270.142
 20
71.7116
 30
0.0
 11
270.142
 21
85.7127
 31
0.0
  0
LINE
  8
0
 62
     0
 10
289.192
 20
85.7127
 30
0.0
 11
303.193
 21
85.7127
 31
0.0
  0
LINE
  8
0
 62
     0
 10
303.193
 20
85.7127
 30
0.0
 11
303.193
 21
71.7116
 31
0.0
  0
LINE
  8
0
 62
     0
 10
303.193
 20
71.7116
 30
0.0
 11
289.192
 21
71.7116
 31
0.0
  0
LINE
  8
0
 62
     0
 10
289.192
 20
71.7116
 30
0.0
 11
289.192
 21
85.7127
 31
0.0
  0
LINE
  8
0
 62
     0
 10
427.306
 20
85.7127
 30
0.0
 11
441.307
 21
85.7127
 31
0.0
  0
LINE
  8
0
 62
     0
 10
441.307
 20
85.7127
 30
0.0
 11
441.307
 21
71.7116
 31
0.0
  0
LINE
  8
0
 62
     0
 10
441.307
 20
71.7116
 30
0.0
 11
427.306
 21
71.7116
 31
0.0
  0
LINE
  8
0
 62
     0
 10
427.306
 20
71.7116
 30
0.0
 11
427.306
 21
85.7127
 31
0.0
  0
LINE
  8
0
 62
     0
 10
446.356
 20
85.7127
 30
0.0
 11
460.357
 21
85.7127
 31
0.0
  0
LINE
  8
0
 62
     0
 10
460.357
 20
85.7127
 30
0.0
 11
460.357
 21
71.7116
 31
0.0
  0
LINE
  8
0
 62
     0
 10
460.357
 20
71.7116
 30
0.0
 11
446.356
 21
71.7116
 31
0.0
  0
LINE
  8
0
 62
     0
 10
446.356
 20
71.7116
 30
0.0
 11
446.356
 21
85.7127
 31
0.0
  0
LINE
  8
0
 62
     0
 10
465.406
 20
85.7127
 30
0.0
 11
479.407
 21
85.7127
 31
0.0
  0
LINE
  8
0
 62
     0
 10
479.407
 20
85.7127
 30
0.0
 11
479.407
 21
71.7116
 31
0.0
  0
LINE
  8
0
 62
     0
 10
479.407
 20
71.7116
 30
0.0
 11
465.406
 21
71.7116
 31
0.0
  0
LINE
  8
0
 62
     0
 10
465.406
 20
71.7116
 30
0.0
 11
465.406
 21
85.7127
 31
0.0
  0
LINE
  8
0
 62
     0
 10
490.957
 20
104.337
 30
0.0
 11
490.957
 21
103.513
 31
0.0
  0
LINE
  8
0
 62
     0
 10
490.957
 20
103.513
 30
0.0
 11
484.685
 21
103.513
 31
0.0
  0
LINE
  8
0
 62
     0
 10
484.685
 20
103.513
 30
0.0
 11
484.685
 21
101.787
 31
0.0
  0
LINE
  8
0
 62
     0
 10
484.685
 20
101.787
 30
0.0
 11
483.485
 21
101.787
 31
0.0
  0
LINE
  8
0
 62
     0
 10
483.485
 20
101.787
 30
0.0
 11
483.485
 21
98.4871
 31
0.0
  0
LINE
  8
0
 62
     0
 10
483.485
 20
98.4871
 30
0.0
 11
484.685
 21
98.4871
 31
0.0
  0
LINE
  8
0
 62
     0
 10
484.685
 20
98.4871
 30
0.0
 11
484.685
 21
96.7617
 31
0.0
  0
LINE
  8
0
 62
     0
 10
484.685
 20
96.7617
 30
0.0
 11
489.155
 21
96.7617
 31
0.0
  0
LINE
  8
0
 62
     0
 10
489.155
 20
96.7617
 30
0.0
 11
489.155
 21
95.2377
 31
0.0
  0
LINE
  8
0
 62
     0
 10
489.155
 20
95.2377
 30
0.0
 11
484.456
 21
95.2377
 31
0.0
  0
LINE
  8
0
 62
     0
 10
484.456
 20
95.2377
 30
0.0
 11
484.456
 21
81.2366
 31
0.0
  0
LINE
  8
0
 62
     0
 10
484.456
 20
81.2366
 30
0.0
 11
489.155
 21
81.2366
 31
0.0
  0
LINE
  8
0
 62
     0
 10
489.155
 20
81.2366
 30
0.0
 11
489.155
 21
79.7126
 31
0.0
  0
LINE
  8
0
 62
     0
 10
489.155
 20
79.7126
 30
0.0
 11
484.685
 21
79.7126
 31
0.0
  0
LINE
  8
0
 62
     0
 10
484.685
 20
79.7126
 30
0.0
 11
484.685
 21
77.9872
 31
0.0
  0
LINE
  8
0
 62
     0
 10
484.685
 20
77.9872
 30
0.0
 11
483.485
 21
77.9872
 31
0.0
  0
LINE
  8
0
 62
     0
 10
483.485
 20
77.9872
 30
0.0
 11
483.485
 21
74.6869
 31
0.0
  0
LINE
  8
0
 62
     0
 10
483.485
 20
74.6869
 30
0.0
 11
484.685
 21
74.6869
 31
0.0
  0
LINE
  8
0
 62
     0
 10
484.685
 20
74.6869
 30
0.0
 11
484.685
 21
72.9629
 31
0.0
  0
LINE
  8
0
 62
     0
 10
484.685
 20
72.9629
 30
0.0
 11
490.957
 21
72.9629
 31
0.0
  0
LINE
  8
0
 62
     0
 10
490.957
 20
72.9629
 30
0.0
 11
490.957
 21
72.1374
 31
0.0
  0
LINE
  8
0
 62
     0
 10
490.957
 20
72.1374
 30
0.0
 11
493.755
 21
72.1374
 31
0.0
  0
LINE
  8
0
 62
     0
 10
493.755
 20
72.1374
 30
0.0
 11
493.755
 21
72.9629
 31
0.0
  0
LINE
  8
0
 62
     0
 10
493.755
 20
72.9629
 30
0.0
 11
496.986
 21
72.9629
 31
0.0
  0
LINE
  8
0
 62
     0
 10
496.986
 20
72.9629
 30
0.0
 11
496.986
 21
79.7126
 31
0.0
  0
LINE
  8
0
 62
     0
 10
496.986
 20
79.7126
 30
0.0
 11
493.755
 21
79.7126
 31
0.0
  0
LINE
  8
0
 62
     0
 10
493.755
 20
79.7126
 30
0.0
 11
493.755
 21
81.2366
 31
0.0
  0
LINE
  8
0
 62
     0
 10
493.755
 20
81.2366
 30
0.0
 11
498.457
 21
81.2366
 31
0.0
  0
LINE
  8
0
 62
     0
 10
498.457
 20
81.2366
 30
0.0
 11
498.457
 21
95.2377
 31
0.0
  0
LINE
  8
0
 62
     0
 10
498.457
 20
95.2377
 30
0.0
 11
493.755
 21
95.2377
 31
0.0
  0
LINE
  8
0
 62
     0
 10
493.755
 20
95.2377
 30
0.0
 11
493.755
 21
96.7617
 31
0.0
  0
LINE
  8
0
 62
     0
 10
493.755
 20
96.7617
 30
0.0
 11
496.986
 21
96.7617
 31
0.0
  0
LINE
  8
0
 62
     0
 10
496.986
 20
96.7617
 30
0.0
 11
496.986
 21
103.513
 31
0.0
  0
LINE
  8
0
 62
     0
 10
496.986
 20
103.513
 30
0.0
 11
493.755
 21
103.513
 31
0.0
  0
LINE
  8
0
 62
     0
 10
493.755
 20
103.513
 30
0.0
 11
493.755
 21
104.337
 31
0.0
  0
LINE
  8
0
 62
     0
 10
493.755
 20
104.337
 30
0.0
 11
490.957
 21
104.337
 31
0.0
  0
LINE
  8
0
 62
     0
 10
17.7312
 20
104.763
 30
0.0
 11
31.7307
 21
104.763
 31
0.0
  0
LINE
  8
0
 62
     0
 10
31.7307
 20
104.763
 30
0.0
 11
31.7307
 21
90.7616
 31
0.0
  0
LINE
  8
0
 62
     0
 10
31.7307
 20
90.7616
 30
0.0
 11
17.7312
 21
90.7616
 31
0.0
  0
LINE
  8
0
 62
     0
 10
17.7312
 20
90.7616
 30
0.0
 11
17.7312
 21
104.763
 31
0.0
  0
LINE
  8
0
 62
     0
 10
36.7813
 20
104.763
 30
0.0
 11
50.7806
 21
104.763
 31
0.0
  0
LINE
  8
0
 62
     0
 10
50.7806
 20
104.763
 30
0.0
 11
50.7806
 21
90.7616
 31
0.0
  0
LINE
  8
0
 62
     0
 10
50.7806
 20
90.7616
 30
0.0
 11
36.7813
 21
90.7616
 31
0.0
  0
LINE
  8
0
 62
     0
 10
36.7813
 20
90.7616
 30
0.0
 11
36.7813
 21
104.763
 31
0.0
  0
LINE
  8
0
 62
     0
 10
70.1174
 20
104.763
 30
0.0
 11
84.1181
 21
104.763
 31
0.0
  0
LINE
  8
0
 62
     0
 10
84.1181
 20
104.763
 30
0.0
 11
84.1181
 21
90.7616
 31
0.0
  0
LINE
  8
0
 62
     0
 10
84.1181
 20
90.7616
 30
0.0
 11
70.1174
 21
90.7616
 31
0.0
  0
LINE
  8
0
 62
     0
 10
70.1174
 20
90.7616
 30
0.0
 11
70.1174
 21
104.763
 31
0.0
  0
LINE
  8
0
 62
     0
 10
93.9313
 20
104.763
 30
0.0
 11
107.931
 21
104.763
 31
0.0
  0
LINE
  8
0
 62
     0
 10
107.931
 20
104.763
 30
0.0
 11
107.931
 21
90.7616
 31
0.0
  0
LINE
  8
0
 62
     0
 10
107.931
 20
90.7616
 30
0.0
 11
93.9313
 21
90.7616
 31
0.0
  0
LINE
  8
0
 62
     0
 10
93.9313
 20
90.7616
 30
0.0
 11
93.9313
 21
104.763
 31
0.0
  0
LINE
  8
0
 62
     0
 10
112.981
 20
104.763
 30
0.0
 11
126.981
 21
104.763
 31
0.0
  0
LINE
  8
0
 62
     0
 10
126.981
 20
104.763
 30
0.0
 11
126.981
 21
90.7616
 31
0.0
  0
LINE
  8
0
 62
     0
 10
126.981
 20
90.7616
 30
0.0
 11
112.981
 21
90.7616
 31
0.0
  0
LINE
  8
0
 62
     0
 10
112.981
 20
90.7616
 30
0.0
 11
112.981
 21
104.763
 31
0.0
  0
LINE
  8
0
 62
     0
 10
132.031
 20
104.763
 30
0.0
 11
146.031
 21
104.763
 31
0.0
  0
LINE
  8
0
 62
     0
 10
146.031
 20
104.763
 30
0.0
 11
146.031
 21
90.7616
 31
0.0
  0
LINE
  8
0
 62
     0
 10
146.031
 20
90.7616
 30
0.0
 11
132.031
 21
90.7616
 31
0.0
  0
LINE
  8
0
 62
     0
 10
132.031
 20
90.7616
 30
0.0
 11
132.031
 21
104.763
 31
0.0
  0
LINE
  8
0
 62
     0
 10
151.081
 20
104.763
 30
0.0
 11
165.081
 21
104.763
 31
0.0
  0
LINE
  8
0
 62
     0
 10
165.081
 20
104.763
 30
0.0
 11
165.081
 21
90.7616
 31
0.0
  0
LINE
  8
0
 62
     0
 10
165.081
 20
90.7616
 30
0.0
 11
151.081
 21
90.7616
 31
0.0
  0
LINE
  8
0
 62
     0
 10
151.081
 20
90.7616
 30
0.0
 11
151.081
 21
104.763
 31
0.0
  0
LINE
  8
0
 62
     0
 10
170.131
 20
104.763
 30
0.0
 11
184.131
 21
104.763
 31
0.0
  0
LINE
  8
0
 62
     0
 10
184.131
 20
104.763
 30
0.0
 11
184.131
 21
90.7616
 31
0.0
  0
LINE
  8
0
 62
     0
 10
184.131
 20
90.7616
 30
0.0
 11
170.131
 21
90.7616
 31
0.0
  0
LINE
  8
0
 62
     0
 10
170.131
 20
90.7616
 30
0.0
 11
170.131
 21
104.763
 31
0.0
  0
LINE
  8
0
 62
     0
 10
189.181
 20
104.763
 30
0.0
 11
203.181
 21
104.763
 31
0.0
  0
LINE
  8
0
 62
     0
 10
203.181
 20
104.763
 30
0.0
 11
203.181
 21
90.7616
 31
0.0
  0
LINE
  8
0
 62
     0
 10
203.181
 20
90.7616
 30
0.0
 11
189.181
 21
90.7616
 31
0.0
  0
LINE
  8
0
 62
     0
 10
189.181
 20
90.7616
 30
0.0
 11
189.181
 21
104.763
 31
0.0
  0
LINE
  8
0
 62
     0
 10
208.231
 20
104.763
 30
0.0
 11
222.231
 21
104.763
 31
0.0
  0
LINE
  8
0
 62
     0
 10
222.231
 20
104.763
 30
0.0
 11
222.231
 21
90.7616
 31
0.0
  0
LINE
  8
0
 62
     0
 10
222.231
 20
90.7616
 30
0.0
 11
208.231
 21
90.7616
 31
0.0
  0
LINE
  8
0
 62
     0
 10
208.231
 20
90.7616
 30
0.0
 11
208.231
 21
104.763
 31
0.0
  0
LINE
  8
0
 62
     0
 10
227.281
 20
104.763
 30
0.0
 11
241.281
 21
104.763
 31
0.0
  0
LINE
  8
0
 62
     0
 10
241.281
 20
104.763
 30
0.0
 11
241.281
 21
90.7616
 31
0.0
  0
LINE
  8
0
 62
     0
 10
241.281
 20
90.7616
 30
0.0
 11
227.281
 21
90.7616
 31
0.0
  0
LINE
  8
0
 62
     0
 10
227.281
 20
90.7616
 30
0.0
 11
227.281
 21
104.763
 31
0.0
  0
LINE
  8
0
 62
     0
 10
246.331
 20
104.763
 30
0.0
 11
260.331
 21
104.763
 31
0.0
  0
LINE
  8
0
 62
     0
 10
260.331
 20
104.763
 30
0.0
 11
260.331
 21
90.7616
 31
0.0
  0
LINE
  8
0
 62
     0
 10
260.331
 20
90.7616
 30
0.0
 11
246.331
 21
90.7616
 31
0.0
  0
LINE
  8
0
 62
     0
 10
246.331
 20
90.7616
 30
0.0
 11
246.331
 21
104.763
 31
0.0
  0
LINE
  8
0
 62
     0
 10
265.381
 20
104.763
 30
0.0
 11
279.381
 21
104.763
 31
0.0
  0
LINE
  8
0
 62
     0
 10
279.381
 20
104.763
 30
0.0
 11
279.381
 21
90.7616
 31
0.0
  0
LINE
  8
0
 62
     0
 10
279.381
 20
90.7616
 30
0.0
 11
265.381
 21
90.7616
 31
0.0
  0
LINE
  8
0
 62
     0
 10
265.381
 20
90.7616
 30
0.0
 11
265.381
 21
104.763
 31
0.0
  0
LINE
  8
0
 62
     0
 10
284.431
 20
104.763
 30
0.0
 11
298.431
 21
104.763
 31
0.0
  0
LINE
  8
0
 62
     0
 10
298.431
 20
104.763
 30
0.0
 11
298.431
 21
90.7616
 31
0.0
  0
LINE
  8
0
 62
     0
 10
298.431
 20
90.7616
 30
0.0
 11
284.431
 21
90.7616
 31
0.0
  0
LINE
  8
0
 62
     0
 10
284.431
 20
90.7616
 30
0.0
 11
284.431
 21
104.763
 31
0.0
  0
LINE
  8
0
 62
     0
 10
303.481
 20
104.763
 30
0.0
 11
317.481
 21
104.763
 31
0.0
  0
LINE
  8
0
 62
     0
 10
317.481
 20
104.763
 30
0.0
 11
317.481
 21
90.7616
 31
0.0
  0
LINE
  8
0
 62
     0
 10
317.481
 20
90.7616
 30
0.0
 11
303.481
 21
90.7616
 31
0.0
  0
LINE
  8
0
 62
     0
 10
303.481
 20
90.7616
 30
0.0
 11
303.481
 21
104.763
 31
0.0
  0
LINE
  8
0
 62
     0
 10
327.292
 20
104.763
 30
0.0
 11
341.293
 21
104.763
 31
0.0
  0
LINE
  8
0
 62
     0
 10
341.293
 20
104.763
 30
0.0
 11
341.293
 21
90.7616
 31
0.0
  0
LINE
  8
0
 62
     0
 10
341.293
 20
90.7616
 30
0.0
 11
327.292
 21
90.7616
 31
0.0
  0
LINE
  8
0
 62
     0
 10
327.292
 20
90.7616
 30
0.0
 11
327.292
 21
104.763
 31
0.0
  0
LINE
  8
0
 62
     0
 10
360.631
 20
104.763
 30
0.0
 11
374.632
 21
104.763
 31
0.0
  0
LINE
  8
0
 62
     0
 10
374.632
 20
104.763
 30
0.0
 11
374.632
 21
90.7616
 31
0.0
  0
LINE
  8
0
 62
     0
 10
374.632
 20
90.7616
 30
0.0
 11
360.631
 21
90.7616
 31
0.0
  0
LINE
  8
0
 62
     0
 10
360.631
 20
90.7616
 30
0.0
 11
360.631
 21
104.763
 31
0.0
  0
LINE
  8
0
 62
     0
 10
379.681
 20
104.763
 30
0.0
 11
393.682
 21
104.763
 31
0.0
  0
LINE
  8
0
 62
     0
 10
393.682
 20
104.763
 30
0.0
 11
393.682
 21
90.7616
 31
0.0
  0
LINE
  8
0
 62
     0
 10
393.682
 20
90.7616
 30
0.0
 11
379.681
 21
90.7616
 31
0.0
  0
LINE
  8
0
 62
     0
 10
379.681
 20
90.7616
 30
0.0
 11
379.681
 21
104.763
 31
0.0
  0
LINE
  8
0
 62
     0
 10
398.731
 20
104.763
 30
0.0
 11
412.732
 21
104.763
 31
0.0
  0
LINE
  8
0
 62
     0
 10
412.732
 20
104.763
 30
0.0
 11
412.732
 21
90.7616
 31
0.0
  0
LINE
  8
0
 62
     0
 10
412.732
 20
90.7616
 30
0.0
 11
398.731
 21
90.7616
 31
0.0
  0
LINE
  8
0
 62
     0
 10
398.731
 20
90.7616
 30
0.0
 11
398.731
 21
104.763
 31
0.0
  0
LINE
  8
0
 62
     0
 10
427.306
 20
104.763
 30
0.0
 11
441.307
 21
104.763
 31
0.0
  0
LINE
  8
0
 62
     0
 10
441.307
 20
104.763
 30
0.0
 11
441.307
 21
90.7616
 31
0.0
  0
LINE
  8
0
 62
     0
 10
441.307
 20
90.7616
 30
0.0
 11
427.306
 21
90.7616
 31
0.0
  0
LINE
  8
0
 62
     0
 10
427.306
 20
90.7616
 30
0.0
 11
427.306
 21
104.763
 31
0.0
  0
LINE
  8
0
 62
     0
 10
446.356
 20
104.763
 30
0.0
 11
460.357
 21
104.763
 31
0.0
  0
LINE
  8
0
 62
     0
 10
460.357
 20
104.763
 30
0.0
 11
460.357
 21
90.7616
 31
0.0
  0
LINE
  8
0
 62
     0
 10
460.357
 20
90.7616
 30
0.0
 11
446.356
 21
90.7616
 31
0.0
  0
LINE
  8
0
 62
     0
 10
446.356
 20
90.7616
 30
0.0
 11
446.356
 21
104.763
 31
0.0
  0
LINE
  8
0
 62
     0
 10
465.406
 20
104.763
 30
0.0
 11
479.407
 21
104.763
 31
0.0
  0
LINE
  8
0
 62
     0
 10
479.407
 20
104.763
 30
0.0
 11
479.407
 21
90.7616
 31
0.0
  0
LINE
  8
0
 62
     0
 10
479.407
 20
90.7616
 30
0.0
 11
465.406
 21
90.7616
 31
0.0
  0
LINE
  8
0
 62
     0
 10
465.406
 20
90.7616
 30
0.0
 11
465.406
 21
104.763
 31
0.0
  0
LINE
  8
0
 62
     0
 10
322.531
 20
123.813
 30
0.0
 11
322.531
 21
119.112
 31
0.0
  0
LINE
  8
0
 62
     0
 10
322.531
 20
119.112
 30
0.0
 11
321.006
 21
119.112
 31
0.0
  0
LINE
  8
0
 62
     0
 10
321.006
 20
119.112
 30
0.0
 11
321.006
 21
122.342
 31
0.0
  0
LINE
  8
0
 62
     0
 10
321.006
 20
122.342
 30
0.0
 11
314.256
 21
122.342
 31
0.0
  0
LINE
  8
0
 62
     0
 10
314.256
 20
122.342
 30
0.0
 11
314.256
 21
119.112
 31
0.0
  0
LINE
  8
0
 62
     0
 10
314.256
 20
119.112
 30
0.0
 11
313.431
 21
119.112
 31
0.0
  0
LINE
  8
0
 62
     0
 10
313.431
 20
119.112
 30
0.0
 11
313.431
 21
116.312
 31
0.0
  0
LINE
  8
0
 62
     0
 10
313.431
 20
116.312
 30
0.0
 11
314.256
 21
116.312
 31
0.0
  0
LINE
  8
0
 62
     0
 10
314.256
 20
116.312
 30
0.0
 11
314.256
 21
110.042
 31
0.0
  0
LINE
  8
0
 62
     0
 10
314.256
 20
110.042
 30
0.0
 11
315.981
 21
110.042
 31
0.0
  0
LINE
  8
0
 62
     0
 10
315.981
 20
110.042
 30
0.0
 11
315.981
 21
108.843
 31
0.0
  0
LINE
  8
0
 62
     0
 10
315.981
 20
108.843
 30
0.0
 11
319.28
 21
108.843
 31
0.0
  0
LINE
  8
0
 62
     0
 10
319.28
 20
108.843
 30
0.0
 11
319.28
 21
110.042
 31
0.0
  0
LINE
  8
0
 62
     0
 10
319.28
 20
110.042
 30
0.0
 11
321.006
 21
110.042
 31
0.0
  0
LINE
  8
0
 62
     0
 10
321.006
 20
110.042
 30
0.0
 11
321.006
 21
114.512
 31
0.0
  0
LINE
  8
0
 62
     0
 10
321.006
 20
114.512
 30
0.0
 11
322.531
 21
114.512
 31
0.0
  0
LINE
  8
0
 62
     0
 10
322.531
 20
114.512
 30
0.0
 11
322.531
 21
109.812
 31
0.0
  0
LINE
  8
0
 62
     0
 10
322.531
 20
109.812
 30
0.0
 11
336.531
 21
109.812
 31
0.0
  0
LINE
  8
0
 62
     0
 10
336.531
 20
109.812
 30
0.0
 11
336.531
 21
114.512
 31
0.0
  0
LINE
  8
0
 62
     0
 10
336.531
 20
114.512
 30
0.0
 11
338.056
 21
114.512
 31
0.0
  0
LINE
  8
0
 62
     0
 10
338.056
 20
114.512
 30
0.0
 11
338.056
 21
110.042
 31
0.0
  0
LINE
  8
0
 62
     0
 10
338.056
 20
110.042
 30
0.0
 11
339.78
 21
110.042
 31
0.0
  0
LINE
  8
0
 62
     0
 10
339.78
 20
110.042
 30
0.0
 11
339.78
 21
108.843
 31
0.0
  0
LINE
  8
0
 62
     0
 10
339.78
 20
108.843
 30
0.0
 11
343.081
 21
108.843
 31
0.0
  0
LINE
  8
0
 62
     0
 10
343.081
 20
108.843
 30
0.0
 11
343.081
 21
110.042
 31
0.0
  0
LINE
  8
0
 62
     0
 10
343.081
 20
110.042
 30
0.0
 11
344.806
 21
110.042
 31
0.0
  0
LINE
  8
0
 62
     0
 10
344.806
 20
110.042
 30
0.0
 11
344.806
 21
116.312
 31
0.0
  0
LINE
  8
0
 62
     0
 10
344.806
 20
116.312
 30
0.0
 11
345.631
 21
116.312
 31
0.0
  0
LINE
  8
0
 62
     0
 10
345.631
 20
116.312
 30
0.0
 11
345.631
 21
119.112
 31
0.0
  0
LINE
  8
0
 62
     0
 10
345.631
 20
119.112
 30
0.0
 11
344.806
 21
119.112
 31
0.0
  0
LINE
  8
0
 62
     0
 10
344.806
 20
119.112
 30
0.0
 11
344.806
 21
122.342
 31
0.0
  0
LINE
  8
0
 62
     0
 10
344.806
 20
122.342
 30
0.0
 11
338.056
 21
122.342
 31
0.0
  0
LINE
  8
0
 62
     0
 10
338.056
 20
122.342
 30
0.0
 11
338.056
 21
119.112
 31
0.0
  0
LINE
  8
0
 62
     0
 10
338.056
 20
119.112
 30
0.0
 11
336.531
 21
119.112
 31
0.0
  0
LINE
  8
0
 62
     0
 10
336.531
 20
119.112
 30
0.0
 11
336.531
 21
123.813
 31
0.0
  0
LINE
  8
0
 62
     0
 10
336.531
 20
123.813
 30
0.0
 11
322.531
 21
123.813
 31
0.0
  0
LINE
  8
0
 62
     0
 10
17.7312
 20
123.813
 30
0.0
 11
31.7307
 21
123.813
 31
0.0
  0
LINE
  8
0
 62
     0
 10
31.7307
 20
123.813
 30
0.0
 11
31.7307
 21
109.812
 31
0.0
  0
LINE
  8
0
 62
     0
 10
31.7307
 20
109.812
 30
0.0
 11
17.7312
 21
109.812
 31
0.0
  0
LINE
  8
0
 62
     0
 10
17.7312
 20
109.812
 30
0.0
 11
17.7312
 21
123.813
 31
0.0
  0
LINE
  8
0
 62
     0
 10
36.7813
 20
123.813
 30
0.0
 11
50.7806
 21
123.813
 31
0.0
  0
LINE
  8
0
 62
     0
 10
50.7806
 20
123.813
 30
0.0
 11
50.7806
 21
109.812
 31
0.0
  0
LINE
  8
0
 62
     0
 10
50.7806
 20
109.812
 30
0.0
 11
36.7813
 21
109.812
 31
0.0
  0
LINE
  8
0
 62
     0
 10
36.7813
 20
109.812
 30
0.0
 11
36.7813
 21
123.813
 31
0.0
  0
LINE
  8
0
 62
     0
 10
65.3563
 20
123.813
 30
0.0
 11
79.3556
 21
123.813
 31
0.0
  0
LINE
  8
0
 62
     0
 10
79.3556
 20
123.813
 30
0.0
 11
79.3556
 21
109.812
 31
0.0
  0
LINE
  8
0
 62
     0
 10
79.3556
 20
109.812
 30
0.0
 11
65.3563
 21
109.812
 31
0.0
  0
LINE
  8
0
 62
     0
 10
65.3563
 20
109.812
 30
0.0
 11
65.3563
 21
123.813
 31
0.0
  0
LINE
  8
0
 62
     0
 10
84.4063
 20
123.813
 30
0.0
 11
98.4056
 21
123.813
 31
0.0
  0
LINE
  8
0
 62
     0
 10
98.4056
 20
123.813
 30
0.0
 11
98.4056
 21
109.812
 31
0.0
  0
LINE
  8
0
 62
     0
 10
98.4056
 20
109.812
 30
0.0
 11
84.4063
 21
109.812
 31
0.0
  0
LINE
  8
0
 62
     0
 10
84.4063
 20
109.812
 30
0.0
 11
84.4063
 21
123.813
 31
0.0
  0
LINE
  8
0
 62
     0
 10
103.456
 20
123.813
 30
0.0
 11
117.456
 21
123.813
 31
0.0
  0
LINE
  8
0
 62
     0
 10
117.456
 20
123.813
 30
0.0
 11
117.456
 21
109.812
 31
0.0
  0
LINE
  8
0
 62
     0
 10
117.456
 20
109.812
 30
0.0
 11
103.456
 21
109.812
 31
0.0
  0
LINE
  8
0
 62
     0
 10
103.456
 20
109.812
 30
0.0
 11
103.456
 21
123.813
 31
0.0
  0
LINE
  8
0
 62
     0
 10
122.506
 20
123.813
 30
0.0
 11
136.506
 21
123.813
 31
0.0
  0
LINE
  8
0
 62
     0
 10
136.506
 20
123.813
 30
0.0
 11
136.506
 21
109.812
 31
0.0
  0
LINE
  8
0
 62
     0
 10
136.506
 20
109.812
 30
0.0
 11
122.506
 21
109.812
 31
0.0
  0
LINE
  8
0
 62
     0
 10
122.506
 20
109.812
 30
0.0
 11
122.506
 21
123.813
 31
0.0
  0
LINE
  8
0
 62
     0
 10
141.556
 20
123.813
 30
0.0
 11
155.556
 21
123.813
 31
0.0
  0
LINE
  8
0
 62
     0
 10
155.556
 20
123.813
 30
0.0
 11
155.556
 21
109.812
 31
0.0
  0
LINE
  8
0
 62
     0
 10
155.556
 20
109.812
 30
0.0
 11
141.556
 21
109.812
 31
0.0
  0
LINE
  8
0
 62
     0
 10
141.556
 20
109.812
 30
0.0
 11
141.556
 21
123.813
 31
0.0
  0
LINE
  8
0
 62
     0
 10
160.606
 20
123.813
 30
0.0
 11
174.606
 21
123.813
 31
0.0
  0
LINE
  8
0
 62
     0
 10
174.606
 20
123.813
 30
0.0
 11
174.606
 21
109.812
 31
0.0
  0
LINE
  8
0
 62
     0
 10
174.606
 20
109.812
 30
0.0
 11
160.606
 21
109.812
 31
0.0
  0
LINE
  8
0
 62
     0
 10
160.606
 20
109.812
 30
0.0
 11
160.606
 21
123.813
 31
0.0
  0
LINE
  8
0
 62
     0
 10
179.656
 20
123.813
 30
0.0
 11
193.656
 21
123.813
 31
0.0
  0
LINE
  8
0
 62
     0
 10
193.656
 20
123.813
 30
0.0
 11
193.656
 21
109.812
 31
0.0
  0
LINE
  8
0
 62
     0
 10
193.656
 20
109.812
 30
0.0
 11
179.656
 21
109.812
 31
0.0
  0
LINE
  8
0
 62
     0
 10
179.656
 20
109.812
 30
0.0
 11
179.656
 21
123.813
 31
0.0
  0
LINE
  8
0
 62
     0
 10
198.706
 20
123.813
 30
0.0
 11
212.706
 21
123.813
 31
0.0
  0
LINE
  8
0
 62
     0
 10
212.706
 20
123.813
 30
0.0
 11
212.706
 21
109.812
 31
0.0
  0
LINE
  8
0
 62
     0
 10
212.706
 20
109.812
 30
0.0
 11
198.706
 21
109.812
 31
0.0
  0
LINE
  8
0
 62
     0
 10
198.706
 20
109.812
 30
0.0
 11
198.706
 21
123.813
 31
0.0
  0
LINE
  8
0
 62
     0
 10
217.756
 20
123.813
 30
0.0
 11
231.756
 21
123.813
 31
0.0
  0
LINE
  8
0
 62
     0
 10
231.756
 20
123.813
 30
0.0
 11
231.756
 21
109.812
 31
0.0
  0
LINE
  8
0
 62
     0
 10
231.756
 20
109.812
 30
0.0
 11
217.756
 21
109.812
 31
0.0
  0
LINE
  8
0
 62
     0
 10
217.756
 20
109.812
 30
0.0
 11
217.756
 21
123.813
 31
0.0
  0
LINE
  8
0
 62
     0
 10
236.806
 20
123.813
 30
0.0
 11
250.806
 21
123.813
 31
0.0
  0
LINE
  8
0
 62
     0
 10
250.806
 20
123.813
 30
0.0
 11
250.806
 21
109.812
 31
0.0
  0
LINE
  8
0
 62
     0
 10
250.806
 20
109.812
 30
0.0
 11
236.806
 21
109.812
 31
0.0
  0
LINE
  8
0
 62
     0
 10
236.806
 20
109.812
 30
0.0
 11
236.806
 21
123.813
 31
0.0
  0
LINE
  8
0
 62
     0
 10
255.855
 20
123.813
 30
0.0
 11
269.856
 21
123.813
 31
0.0
  0
LINE
  8
0
 62
     0
 10
269.856
 20
123.813
 30
0.0
 11
269.856
 21
109.812
 31
0.0
  0
LINE
  8
0
 62
     0
 10
269.856
 20
109.812
 30
0.0
 11
255.855
 21
109.812
 31
0.0
  0
LINE
  8
0
 62
     0
 10
255.855
 20
109.812
 30
0.0
 11
255.855
 21
123.813
 31
0.0
  0
LINE
  8
0
 62
     0
 10
274.906
 20
123.813
 30
0.0
 11
288.906
 21
123.813
 31
0.0
  0
LINE
  8
0
 62
     0
 10
288.906
 20
123.813
 30
0.0
 11
288.906
 21
109.812
 31
0.0
  0
LINE
  8
0
 62
     0
 10
288.906
 20
109.812
 30
0.0
 11
274.906
 21
109.812
 31
0.0
  0
LINE
  8
0
 62
     0
 10
274.906
 20
109.812
 30
0.0
 11
274.906
 21
123.813
 31
0.0
  0
LINE
  8
0
 62
     0
 10
293.956
 20
123.813
 30
0.0
 11
307.956
 21
123.813
 31
0.0
  0
LINE
  8
0
 62
     0
 10
307.956
 20
123.813
 30
0.0
 11
307.956
 21
109.812
 31
0.0
  0
LINE
  8
0
 62
     0
 10
307.956
 20
109.812
 30
0.0
 11
293.956
 21
109.812
 31
0.0
  0
LINE
  8
0
 62
     0
 10
293.956
 20
109.812
 30
0.0
 11
293.956
 21
123.813
 31
0.0
  0
LINE
  8
0
 62
     0
 10
360.631
 20
123.813
 30
0.0
 11
374.632
 21
123.813
 31
0.0
  0
LINE
  8
0
 62
     0
 10
374.632
 20
123.813
 30
0.0
 11
374.632
 21
109.812
 31
0.0
  0
LINE
  8
0
 62
     0
 10
374.632
 20
109.812
 30
0.0
 11
360.631
 21
109.812
 31
0.0
  0
LINE
  8
0
 62
     0
 10
360.631
 20
109.812
 30
0.0
 11
360.631
 21
123.813
 31
0.0
  0
LINE
  8
0
 62
     0
 10
379.681
 20
123.813
 30
0.0
 11
393.682
 21
123.813
 31
0.0
  0
LINE
  8
0
 62
     0
 10
393.682
 20
123.813
 30
0.0
 11
393.682
 21
109.812
 31
0.0
  0
LINE
  8
0
 62
     0
 10
393.682
 20
109.812
 30
0.0
 11
379.681
 21
109.812
 31
0.0
  0
LINE
  8
0
 62
     0
 10
379.681
 20
109.812
 30
0.0
 11
379.681
 21
123.813
 31
0.0
  0
LINE
  8
0
 62
     0
 10
398.731
 20
123.813
 30
0.0
 11
412.732
 21
123.813
 31
0.0
  0
LINE
  8
0
 62
     0
 10
412.732
 20
123.813
 30
0.0
 11
412.732
 21
109.812
 31
0.0
  0
LINE
  8
0
 62
     0
 10
412.732
 20
109.812
 30
0.0
 11
398.731
 21
109.812
 31
0.0
  0
LINE
  8
0
 62
     0
 10
398.731
 20
109.812
 30
0.0
 11
398.731
 21
123.813
 31
0.0
  0
LINE
  8
0
 62
     0
 10
427.306
 20
123.813
 30
0.0
 11
441.307
 21
123.813
 31
0.0
  0
LINE
  8
0
 62
     0
 10
441.307
 20
123.813
 30
0.0
 11
441.307
 21
109.812
 31
0.0
  0
LINE
  8
0
 62
     0
 10
441.307
 20
109.812
 30
0.0
 11
427.306
 21
109.812
 31
0.0
  0
LINE
  8
0
 62
     0
 10
427.306
 20
109.812
 30
0.0
 11
427.306
 21
123.813
 31
0.0
  0
LINE
  8
0
 62
     0
 10
446.356
 20
123.813
 30
0.0
 11
460.357
 21
123.813
 31
0.0
  0
LINE
  8
0
 62
     0
 10
460.357
 20
123.813
 30
0.0
 11
460.357
 21
109.812
 31
0.0
  0
LINE
  8
0
 62
     0
 10
460.357
 20
109.812
 30
0.0
 11
446.356
 21
109.812
 31
0.0
  0
LINE
  8
0
 62
     0
 10
446.356
 20
109.812
 30
0.0
 11
446.356
 21
123.813
 31
0.0
  0
LINE
  8
0
 62
     0
 10
465.406
 20
123.813
 30
0.0
 11
479.407
 21
123.813
 31
0.0
  0
LINE
  8
0
 62
     0
 10
479.407
 20
123.813
 30
0.0
 11
479.407
 21
109.812
 31
0.0
  0
LINE
  8
0
 62
     0
 10
479.407
 20
109.812
 30
0.0
 11
465.406
 21
109.812
 31
0.0
  0
LINE
  8
0
 62
     0
 10
465.406
 20
109.812
 30
0.0
 11
465.406
 21
123.813
 31
0.0
  0
LINE
  8
0
 62
     0
 10
484.456
 20
123.813
 30
0.0
 11
498.457
 21
123.813
 31
0.0
  0
LINE
  8
0
 62
     0
 10
498.457
 20
123.813
 30
0.0
 11
498.457
 21
109.812
 31
0.0
  0
LINE
  8
0
 62
     0
 10
498.457
 20
109.812
 30
0.0
 11
484.456
 21
109.812
 31
0.0
  0
LINE
  8
0
 62
     0
 10
484.456
 20
109.812
 30
0.0
 11
484.456
 21
123.813
 31
0.0
  0
LINE
  8
0
 62
     0
 10
27.2548
 20
152.388
 30
0.0
 11
27.2548
 21
147.687
 31
0.0
  0
LINE
  8
0
 62
     0
 10
27.2548
 20
147.687
 30
0.0
 11
25.7307
 21
147.687
 31
0.0
  0
LINE
  8
0
 62
     0
 10
25.7307
 20
147.687
 30
0.0
 11
25.7307
 21
150.919
 31
0.0
  0
LINE
  8
0
 62
     0
 10
25.7307
 20
150.919
 30
0.0
 11
18.9811
 21
150.919
 31
0.0
  0
LINE
  8
0
 62
     0
 10
18.9811
 20
150.919
 30
0.0
 11
18.9811
 21
147.687
 31
0.0
  0
LINE
  8
0
 62
     0
 10
18.9811
 20
147.687
 30
0.0
 11
18.1543
 21
147.687
 31
0.0
  0
LINE
  8
0
 62
     0
 10
18.1543
 20
147.687
 30
0.0
 11
18.1543
 21
144.887
 31
0.0
  0
LINE
  8
0
 62
     0
 10
18.1543
 20
144.887
 30
0.0
 11
18.9811
 21
144.887
 31
0.0
  0
LINE
  8
0
 62
     0
 10
18.9811
 20
144.887
 30
0.0
 11
18.9811
 21
138.617
 31
0.0
  0
LINE
  8
0
 62
     0
 10
18.9811
 20
138.617
 30
0.0
 11
20.705
 21
138.617
 31
0.0
  0
LINE
  8
0
 62
     0
 10
20.705
 20
138.617
 30
0.0
 11
20.705
 21
137.418
 31
0.0
  0
LINE
  8
0
 62
     0
 10
20.705
 20
137.418
 30
0.0
 11
24.0054
 21
137.418
 31
0.0
  0
LINE
  8
0
 62
     0
 10
24.0054
 20
137.418
 30
0.0
 11
24.0054
 21
138.617
 31
0.0
  0
LINE
  8
0
 62
     0
 10
24.0054
 20
138.617
 30
0.0
 11
25.7307
 21
138.617
 31
0.0
  0
LINE
  8
0
 62
     0
 10
25.7307
 20
138.617
 30
0.0
 11
25.7307
 21
143.088
 31
0.0
  0
LINE
  8
0
 62
     0
 10
25.7307
 20
143.088
 30
0.0
 11
27.2548
 21
143.088
 31
0.0
  0
LINE
  8
0
 62
     0
 10
27.2548
 20
143.088
 30
0.0
 11
27.2548
 21
138.387
 31
0.0
  0
LINE
  8
0
 62
     0
 10
27.2548
 20
138.387
 30
0.0
 11
41.2556
 21
138.387
 31
0.0
  0
LINE
  8
0
 62
     0
 10
41.2556
 20
138.387
 30
0.0
 11
41.2556
 21
143.088
 31
0.0
  0
LINE
  8
0
 62
     0
 10
41.2556
 20
143.088
 30
0.0
 11
42.7799
 21
143.088
 31
0.0
  0
LINE
  8
0
 62
     0
 10
42.7799
 20
143.088
 30
0.0
 11
42.7799
 21
138.617
 31
0.0
  0
LINE
  8
0
 62
     0
 10
42.7799
 20
138.617
 30
0.0
 11
44.505
 21
138.617
 31
0.0
  0
LINE
  8
0
 62
     0
 10
44.505
 20
138.617
 30
0.0
 11
44.505
 21
137.418
 31
0.0
  0
LINE
  8
0
 62
     0
 10
44.505
 20
137.418
 30
0.0
 11
47.8042
 21
137.418
 31
0.0
  0
LINE
  8
0
 62
     0
 10
47.8042
 20
137.418
 30
0.0
 11
47.8042
 21
138.617
 31
0.0
  0
LINE
  8
0
 62
     0
 10
47.8042
 20
138.617
 30
0.0
 11
49.5293
 21
138.617
 31
0.0
  0
LINE
  8
0
 62
     0
 10
49.5293
 20
138.617
 30
0.0
 11
49.5293
 21
144.887
 31
0.0
  0
LINE
  8
0
 62
     0
 10
49.5293
 20
144.887
 30
0.0
 11
50.3562
 21
144.887
 31
0.0
  0
LINE
  8
0
 62
     0
 10
50.3562
 20
144.887
 30
0.0
 11
50.3562
 21
147.687
 31
0.0
  0
LINE
  8
0
 62
     0
 10
50.3562
 20
147.687
 30
0.0
 11
49.5293
 21
147.687
 31
0.0
  0
LINE
  8
0
 62
     0
 10
49.5293
 20
147.687
 30
0.0
 11
49.5293
 21
150.919
 31
0.0
  0
LINE
  8
0
 62
     0
 10
49.5293
 20
150.919
 30
0.0
 11
42.7799
 21
150.919
 31
0.0
  0
LINE
  8
0
 62
     0
 10
42.7799
 20
150.919
 30
0.0
 11
42.7799
 21
147.687
 31
0.0
  0
LINE
  8
0
 62
     0
 10
42.7799
 20
147.687
 30
0.0
 11
41.2556
 21
147.687
 31
0.0
  0
LINE
  8
0
 62
     0
 10
41.2556
 20
147.687
 30
0.0
 11
41.2556
 21
152.388
 31
0.0
  0
LINE
  8
0
 62
     0
 10
41.2556
 20
152.388
 30
0.0
 11
27.2548
 21
152.388
 31
0.0
  0
LINE
  8
0
 62
     0
 10
65.3563
 20
152.388
 30
0.0
 11
79.3556
 21
152.388
 31
0.0
  0
LINE
  8
0
 62
     0
 10
79.3556
 20
152.388
 30
0.0
 11
79.3556
 21
138.387
 31
0.0
  0
LINE
  8
0
 62
     0
 10
79.3556
 20
138.387
 30
0.0
 11
65.3563
 21
138.387
 31
0.0
  0
LINE
  8
0
 62
     0
 10
65.3563
 20
138.387
 30
0.0
 11
65.3563
 21
152.388
 31
0.0
  0
LINE
  8
0
 62
     0
 10
103.456
 20
152.388
 30
0.0
 11
117.456
 21
152.388
 31
0.0
  0
LINE
  8
0
 62
     0
 10
117.456
 20
152.388
 30
0.0
 11
117.456
 21
138.387
 31
0.0
  0
LINE
  8
0
 62
     0
 10
117.456
 20
138.387
 30
0.0
 11
103.456
 21
138.387
 31
0.0
  0
LINE
  8
0
 62
     0
 10
103.456
 20
138.387
 30
0.0
 11
103.456
 21
152.388
 31
0.0
  0
LINE
  8
0
 62
     0
 10
122.506
 20
152.388
 30
0.0
 11
136.506
 21
152.388
 31
0.0
  0
LINE
  8
0
 62
     0
 10
136.506
 20
152.388
 30
0.0
 11
136.506
 21
138.387
 31
0.0
  0
LINE
  8
0
 62
     0
 10
136.506
 20
138.387
 30
0.0
 11
122.506
 21
138.387
 31
0.0
  0
LINE
  8
0
 62
     0
 10
122.506
 20
138.387
 30
0.0
 11
122.506
 21
152.388
 31
0.0
  0
LINE
  8
0
 62
     0
 10
141.556
 20
152.388
 30
0.0
 11
155.556
 21
152.388
 31
0.0
  0
LINE
  8
0
 62
     0
 10
155.556
 20
152.388
 30
0.0
 11
155.556
 21
138.387
 31
0.0
  0
LINE
  8
0
 62
     0
 10
155.556
 20
138.387
 30
0.0
 11
141.556
 21
138.387
 31
0.0
  0
LINE
  8
0
 62
     0
 10
141.556
 20
138.387
 30
0.0
 11
141.556
 21
152.388
 31
0.0
  0
LINE
  8
0
 62
     0
 10
160.606
 20
152.388
 30
0.0
 11
174.606
 21
152.388
 31
0.0
  0
LINE
  8
0
 62
     0
 10
174.606
 20
152.388
 30
0.0
 11
174.606
 21
138.387
 31
0.0
  0
LINE
  8
0
 62
     0
 10
174.606
 20
138.387
 30
0.0
 11
160.606
 21
138.387
 31
0.0
  0
LINE
  8
0
 62
     0
 10
160.606
 20
138.387
 30
0.0
 11
160.606
 21
152.388
 31
0.0
  0
LINE
  8
0
 62
     0
 10
189.181
 20
152.388
 30
0.0
 11
203.181
 21
152.388
 31
0.0
  0
LINE
  8
0
 62
     0
 10
203.181
 20
152.388
 30
0.0
 11
203.181
 21
138.387
 31
0.0
  0
LINE
  8
0
 62
     0
 10
203.181
 20
138.387
 30
0.0
 11
189.181
 21
138.387
 31
0.0
  0
LINE
  8
0
 62
     0
 10
189.181
 20
138.387
 30
0.0
 11
189.181
 21
152.388
 31
0.0
  0
LINE
  8
0
 62
     0
 10
208.231
 20
152.388
 30
0.0
 11
222.231
 21
152.388
 31
0.0
  0
LINE
  8
0
 62
     0
 10
222.231
 20
152.388
 30
0.0
 11
222.231
 21
138.387
 31
0.0
  0
LINE
  8
0
 62
     0
 10
222.231
 20
138.387
 30
0.0
 11
208.231
 21
138.387
 31
0.0
  0
LINE
  8
0
 62
     0
 10
208.231
 20
138.387
 30
0.0
 11
208.231
 21
152.388
 31
0.0
  0
LINE
  8
0
 62
     0
 10
227.281
 20
152.388
 30
0.0
 11
241.281
 21
152.388
 31
0.0
  0
LINE
  8
0
 62
     0
 10
241.281
 20
152.388
 30
0.0
 11
241.281
 21
138.387
 31
0.0
  0
LINE
  8
0
 62
     0
 10
241.281
 20
138.387
 30
0.0
 11
227.281
 21
138.387
 31
0.0
  0
LINE
  8
0
 62
     0
 10
227.281
 20
138.387
 30
0.0
 11
227.281
 21
152.388
 31
0.0
  0
LINE
  8
0
 62
     0
 10
246.331
 20
152.388
 30
0.0
 11
260.331
 21
152.388
 31
0.0
  0
LINE
  8
0
 62
     0
 10
260.331
 20
152.388
 30
0.0
 11
260.331
 21
138.387
 31
0.0
  0
LINE
  8
0
 62
     0
 10
260.331
 20
138.387
 30
0.0
 11
246.331
 21
138.387
 31
0.0
  0
LINE
  8
0
 62
     0
 10
246.331
 20
138.387
 30
0.0
 11
246.331
 21
152.388
 31
0.0
  0
LINE
  8
0
 62
     0
 10
274.906
 20
152.388
 30
0.0
 11
288.906
 21
152.388
 31
0.0
  0
LINE
  8
0
 62
     0
 10
288.906
 20
152.388
 30
0.0
 11
288.906
 21
138.387
 31
0.0
  0
LINE
  8
0
 62
     0
 10
288.906
 20
138.387
 30
0.0
 11
274.906
 21
138.387
 31
0.0
  0
LINE
  8
0
 62
     0
 10
274.906
 20
138.387
 30
0.0
 11
274.906
 21
152.388
 31
0.0
  0
LINE
  8
0
 62
     0
 10
293.956
 20
152.388
 30
0.0
 11
307.956
 21
152.388
 31
0.0
  0
LINE
  8
0
 62
     0
 10
307.956
 20
152.388
 30
0.0
 11
307.956
 21
138.387
 31
0.0
  0
LINE
  8
0
 62
     0
 10
307.956
 20
138.387
 30
0.0
 11
293.956
 21
138.387
 31
0.0
  0
LINE
  8
0
 62
     0
 10
293.956
 20
138.387
 30
0.0
 11
293.956
 21
152.388
 31
0.0
  0
LINE
  8
0
 62
     0
 10
313.006
 20
152.388
 30
0.0
 11
327.006
 21
152.388
 31
0.0
  0
LINE
  8
0
 62
     0
 10
327.006
 20
152.388
 30
0.0
 11
327.006
 21
138.387
 31
0.0
  0
LINE
  8
0
 62
     0
 10
327.006
 20
138.387
 30
0.0
 11
313.006
 21
138.387
 31
0.0
  0
LINE
  8
0
 62
     0
 10
313.006
 20
138.387
 30
0.0
 11
313.006
 21
152.388
 31
0.0
  0
LINE
  8
0
 62
     0
 10
332.056
 20
152.388
 30
0.0
 11
346.056
 21
152.388
 31
0.0
  0
LINE
  8
0
 62
     0
 10
346.056
 20
152.388
 30
0.0
 11
346.056
 21
138.387
 31
0.0
  0
LINE
  8
0
 62
     0
 10
346.056
 20
138.387
 30
0.0
 11
332.056
 21
138.387
 31
0.0
  0
LINE
  8
0
 62
     0
 10
332.056
 20
138.387
 30
0.0
 11
332.056
 21
152.388
 31
0.0
  0
LINE
  8
0
 62
     0
 10
360.631
 20
152.388
 30
0.0
 11
374.632
 21
152.388
 31
0.0
  0
LINE
  8
0
 62
     0
 10
374.632
 20
152.388
 30
0.0
 11
374.632
 21
138.387
 31
0.0
  0
LINE
  8
0
 62
     0
 10
374.632
 20
138.387
 30
0.0
 11
360.631
 21
138.387
 31
0.0
  0
LINE
  8
0
 62
     0
 10
360.631
 20
138.387
 30
0.0
 11
360.631
 21
152.388
 31
0.0
  0
LINE
  8
0
 62
     0
 10
379.681
 20
152.388
 30
0.0
 11
393.682
 21
152.388
 31
0.0
  0
LINE
  8
0
 62
     0
 10
393.682
 20
152.388
 30
0.0
 11
393.682
 21
138.387
 31
0.0
  0
LINE
  8
0
 62
     0
 10
393.682
 20
138.387
 30
0.0
 11
379.681
 21
138.387
 31
0.0
  0
LINE
  8
0
 62
     0
 10
379.681
 20
138.387
 30
0.0
 11
379.681
 21
152.388
 31
0.0
  0
LINE
  8
0
 62
     0
 10
398.731
 20
152.388
 30
0.0
 11
412.732
 21
152.388
 31
0.0
  0
LINE
  8
0
 62
     0
 10
412.732
 20
152.388
 30
0.0
 11
412.732
 21
138.387
 31
0.0
  0
LINE
  8
0
 62
     0
 10
412.732
 20
138.387
 30
0.0
 11
398.731
 21
138.387
 31
0.0
  0
LINE
  8
0
 62
     0
 10
398.731
 20
138.387
 30
0.0
 11
398.731
 21
152.388
 31
0.0
  0
LINE
  8
0
 62
     0
 10
427.306
 20
152.388
 30
0.0
 11
441.307
 21
152.388
 31
0.0
  0
LINE
  8
0
 62
     0
 10
441.307
 20
152.388
 30
0.0
 11
441.307
 21
138.387
 31
0.0
  0
LINE
  8
0
 62
     0
 10
441.307
 20
138.387
 30
0.0
 11
427.306
 21
138.387
 31
0.0
  0
LINE
  8
0
 62
     0
 10
427.306
 20
138.387
 30
0.0
 11
427.306
 21
152.388
 31
0.0
  0
LINE
  8
0
 62
     0
 10
446.356
 20
152.388
 30
0.0
 11
460.357
 21
152.388
 31
0.0
  0
LINE
  8
0
 62
     0
 10
460.357
 20
152.388
 30
0.0
 11
460.357
 21
138.387
 31
0.0
  0
LINE
  8
0
 62
     0
 10
460.357
 20
138.387
 30
0.0
 11
446.356
 21
138.387
 31
0.0
  0
LINE
  8
0
 62
     0
 10
446.356
 20
138.387
 30
0.0
 11
446.356
 21
152.388
 31
0.0
  0
LINE
  8
0
 62
     0
 10
465.406
 20
152.388
 30
0.0
 11
479.407
 21
152.388
 31
0.0
  0
LINE
  8
0
 62
     0
 10
479.407
 20
152.388
 30
0.0
 11
479.407
 21
138.387
 31
0.0
  0
LINE
  8
0
 62
     0
 10
479.407
 20
138.387
 30
0.0
 11
465.406
 21
138.387
 31
0.0
  0
LINE
  8
0
 62
     0
 10
465.406
 20
138.387
 30
0.0
 11
465.406
 21
152.388
 31
0.0
  0
LINE
  8
0
 62
     0
 10
484.456
 20
152.388
 30
0.0
 11
498.457
 21
152.388
 31
0.0
  0
LINE
  8
0
 62
     0
 10
498.457
 20
152.388
 30
0.0
 11
498.457
 21
138.387
 31
0.0
  0
LINE
  8
0
 62
     0
 10
498.457
 20
138.387
 30
0.0
 11
484.456
 21
138.387
 31
0.0
  0
LINE
  8
0
 62
     0
 10
484.456
 20
138.387
 30
0.0
 11
484.456
 21
152.388
 31
0.0
  0
LINE
  8
0
 62
     0
 10
173.334
 20
195.865
 30
0.0
 11
172.916
 21
195.651
 31
0.0
  0
LINE
  8
0
 62
     0
 10
172.916
 20
195.651
 30
0.0
 11
172.584
 21
195.319
 31
0.0
  0
LINE
  8
0
 62
     0
 10
172.584
 20
195.319
 30
0.0
 11
172.37
 21
194.902
 31
0.0
  0
LINE
  8
0
 62
     0
 10
172.37
 20
194.902
 30
0.0
 11
172.297
 21
194.437
 31
0.0
  0
LINE
  8
0
 62
     0
 10
172.297
 20
194.437
 30
0.0
 11
172.37
 21
193.974
 31
0.0
  0
LINE
  8
0
 62
     0
 10
172.37
 20
193.974
 30
0.0
 11
172.584
 21
193.556
 31
0.0
  0
LINE
  8
0
 62
     0
 10
172.584
 20
193.556
 30
0.0
 11
172.916
 21
193.225
 31
0.0
  0
LINE
  8
0
 62
     0
 10
172.916
 20
193.225
 30
0.0
 11
173.334
 21
193.011
 31
0.0
  0
LINE
  8
0
 62
     0
 10
173.334
 20
193.011
 30
0.0
 11
173.798
 21
192.938
 31
0.0
  0
LINE
  8
0
 62
     0
 10
173.798
 20
192.938
 30
0.0
 11
174.261
 21
193.011
 31
0.0
  0
LINE
  8
0
 62
     0
 10
174.261
 20
193.011
 30
0.0
 11
174.679
 21
193.225
 31
0.0
  0
LINE
  8
0
 62
     0
 10
174.679
 20
193.225
 30
0.0
 11
175.011
 21
193.556
 31
0.0
  0
LINE
  8
0
 62
     0
 10
175.011
 20
193.556
 30
0.0
 11
175.223
 21
193.974
 31
0.0
  0
LINE
  8
0
 62
     0
 10
175.223
 20
193.974
 30
0.0
 11
175.297
 21
194.437
 31
0.0
  0
LINE
  8
0
 62
     0
 10
175.297
 20
194.437
 30
0.0
 11
175.223
 21
194.902
 31
0.0
  0
LINE
  8
0
 62
     0
 10
175.223
 20
194.902
 30
0.0
 11
175.011
 21
195.319
 31
0.0
  0
LINE
  8
0
 62
     0
 10
175.011
 20
195.319
 30
0.0
 11
174.679
 21
195.651
 31
0.0
  0
LINE
  8
0
 62
     0
 10
174.679
 20
195.651
 30
0.0
 11
174.261
 21
195.865
 31
0.0
  0
LINE
  8
0
 62
     0
 10
174.261
 20
195.865
 30
0.0
 11
173.798
 21
195.938
 31
0.0
  0
LINE
  8
0
 62
     0
 10
173.798
 20
195.938
 30
0.0
 11
173.334
 21
195.865
 31
0.0
  0
LINE
  8
0
 62
     0
 10
341.926
 20
195.865
 30
0.0
 11
341.508
 21
195.651
 31
0.0
  0
LINE
  8
0
 62
     0
 10
341.508
 20
195.651
 30
0.0
 11
341.176
 21
195.319
 31
0.0
  0
LINE
  8
0
 62
     0
 10
341.176
 20
195.319
 30
0.0
 11
340.963
 21
194.902
 31
0.0
  0
LINE
  8
0
 62
     0
 10
340.963
 20
194.902
 30
0.0
 11
340.89
 21
194.437
 31
0.0
  0
LINE
  8
0
 62
     0
 10
340.89
 20
194.437
 30
0.0
 11
340.963
 21
193.974
 31
0.0
  0
LINE
  8
0
 62
     0
 10
340.963
 20
193.974
 30
0.0
 11
341.176
 21
193.556
 31
0.0
  0
LINE
  8
0
 62
     0
 10
341.176
 20
193.556
 30
0.0
 11
341.508
 21
193.225
 31
0.0
  0
LINE
  8
0
 62
     0
 10
341.508
 20
193.225
 30
0.0
 11
341.926
 21
193.011
 31
0.0
  0
LINE
  8
0
 62
     0
 10
341.926
 20
193.011
 30
0.0
 11
342.39
 21
192.938
 31
0.0
  0
LINE
  8
0
 62
     0
 10
342.39
 20
192.938
 30
0.0
 11
342.853
 21
193.011
 31
0.0
  0
LINE
  8
0
 62
     0
 10
342.853
 20
193.011
 30
0.0
 11
343.271
 21
193.225
 31
0.0
  0
LINE
  8
0
 62
     0
 10
343.271
 20
193.225
 30
0.0
 11
343.603
 21
193.556
 31
0.0
  0
LINE
  8
0
 62
     0
 10
343.603
 20
193.556
 30
0.0
 11
343.817
 21
193.974
 31
0.0
  0
LINE
  8
0
 62
     0
 10
343.817
 20
193.974
 30
0.0
 11
343.89
 21
194.437
 31
0.0
  0
LINE
  8
0
 62
     0
 10
343.89
 20
194.437
 30
0.0
 11
343.817
 21
194.902
 31
0.0
  0
LINE
  8
0
 62
     0
 10
343.817
 20
194.902
 30
0.0
 11
343.603
 21
195.319
 31
0.0
  0
LINE
  8
0
 62
     0
 10
343.603
 20
195.319
 30
0.0
 11
343.271
 21
195.651
 31
0.0
  0
LINE
  8
0
 62
     0
 10
343.271
 20
195.651
 30
0.0
 11
342.853
 21
195.865
 31
0.0
  0
LINE
  8
0
 62
     0
 10
342.853
 20
195.865
 30
0.0
 11
342.39
 21
195.938
 31
0.0
  0
LINE
  8
0
 62
     0
 10
342.39
 20
195.938
 30
0.0
 11
341.926
 21
195.865
 31
0.0
  0
LINE
  8
0
 62
     0
 10
510.519
 20
195.865
 30
0.0
 11
510.099
 21
195.651
 31
0.0
  0
LINE
  8
0
 62
     0
 10
510.099
 20
195.651
 30
0.0
 11
509.767
 21
195.319
 31
0.0
  0
LINE
  8
0
 62
     0
 10
509.767
 20
195.319
 30
0.0
 11
509.556
 21
194.902
 31
0.0
  0
LINE
  8
0
 62
     0
 10
509.556
 20
194.902
 30
0.0
 11
509.482
 21
194.437
 31
0.0
  0
LINE
  8
0
 62
     0
 10
509.482
 20
194.437
 30
0.0
 11
509.556
 21
193.974
 31
0.0
  0
LINE
  8
0
 62
     0
 10
509.556
 20
193.974
 30
0.0
 11
509.767
 21
193.556
 31
0.0
  0
LINE
  8
0
 62
     0
 10
509.767
 20
193.556
 30
0.0
 11
510.099
 21
193.225
 31
0.0
  0
LINE
  8
0
 62
     0
 10
510.099
 20
193.225
 30
0.0
 11
510.519
 21
193.011
 31
0.0
  0
LINE
  8
0
 62
     0
 10
510.519
 20
193.011
 30
0.0
 11
510.981
 21
192.938
 31
0.0
  0
LINE
  8
0
 62
     0
 10
510.981
 20
192.938
 30
0.0
 11
511.447
 21
193.011
 31
0.0
  0
LINE
  8
0
 62
     0
 10
511.447
 20
193.011
 30
0.0
 11
511.863
 21
193.225
 31
0.0
  0
LINE
  8
0
 62
     0
 10
511.863
 20
193.225
 30
0.0
 11
512.195
 21
193.556
 31
0.0
  0
LINE
  8
0
 62
     0
 10
512.195
 20
193.556
 30
0.0
 11
512.41
 21
193.974
 31
0.0
  0
LINE
  8
0
 62
     0
 10
512.41
 20
193.974
 30
0.0
 11
512.48
 21
194.437
 31
0.0
  0
LINE
  8
0
 62
     0
 10
512.48
 20
194.437
 30
0.0
 11
512.41
 21
194.902
 31
0.0
  0
LINE
  8
0
 62
     0
 10
512.41
 20
194.902
 30
0.0
 11
512.195
 21
195.319
 31
0.0
  0
LINE
  8
0
 62
     0
 10
512.195
 20
195.319
 30
0.0
 11
511.863
 21
195.651
 31
0.0
  0
LINE
  8
0
 62
     0
 10
511.863
 20
195.651
 30
0.0
 11
511.447
 21
195.865
 31
0.0
  0
LINE
  8
0
 62
     0
 10
511.447
 20
195.865
 30
0.0
 11
510.981
 21
195.938
 31
0.0
  0
LINE
  8
0
 62
     0
 10
510.981
 20
195.938
 30
0.0
 11
510.519
 21
195.865
 31
0.0
  0
LINE
  8
0
 62
     0
 10
4.74183
 20
195.865
 30
0.0
 11
4.32428
 21
195.651
 31
0.0
  0
LINE
  8
0
 62
     0
 10
4.32428
 20
195.651
 30
0.0
 11
3.99217
 21
195.319
 31
0.0
  0
LINE
  8
0
 62
     0
 10
3.99217
 20
195.319
 30
0.0
 11
3.77857
 21
194.902
 31
0.0
  0
LINE
  8
0
 62
     0
 10
3.77857
 20
194.902
 30
0.0
 11
3.70417
 21
194.437
 31
0.0
  0
LINE
  8
0
 62
     0
 10
3.70417
 20
194.437
 30
0.0
 11
3.77857
 21
193.974
 31
0.0
  0
LINE
  8
0
 62
     0
 10
3.77857
 20
193.974
 30
0.0
 11
3.99217
 21
193.556
 31
0.0
  0
LINE
  8
0
 62
     0
 10
3.99217
 20
193.556
 30
0.0
 11
4.32428
 21
193.225
 31
0.0
  0
LINE
  8
0
 62
     0
 10
4.32428
 20
193.225
 30
0.0
 11
4.74183
 21
193.011
 31
0.0
  0
LINE
  8
0
 62
     0
 10
4.74183
 20
193.011
 30
0.0
 11
5.20485
 21
192.938
 31
0.0
  0
LINE
  8
0
 62
     0
 10
5.20485
 20
192.938
 30
0.0
 11
5.66924
 21
193.011
 31
0.0
  0
LINE
  8
0
 62
     0
 10
5.66924
 20
193.011
 30
0.0
 11
6.08679
 21
193.225
 31
0.0
  0
LINE
  8
0
 62
     0
 10
6.08679
 20
193.225
 30
0.0
 11
6.4189
 21
193.556
 31
0.0
  0
LINE
  8
0
 62
     0
 10
6.4189
 20
193.556
 30
0.0
 11
6.63113
 21
193.974
 31
0.0
  0
LINE
  8
0
 62
     0
 10
6.63113
 20
193.974
 30
0.0
 11
6.70415
 21
194.437
 31
0.0
  0
LINE
  8
0
 62
     0
 10
6.70415
 20
194.437
 30
0.0
 11
6.63113
 21
194.902
 31
0.0
  0
LINE
  8
0
 62
     0
 10
6.63113
 20
194.902
 30
0.0
 11
6.4189
 21
195.319
 31
0.0
  0
LINE
  8
0
 62
     0
 10
6.4189
 20
195.319
 30
0.0
 11
6.08679
 21
195.651
 31
0.0
  0
LINE
  8
0
 62
     0
 10
6.08679
 20
195.651
 30
0.0
 11
5.66924
 21
195.865
 31
0.0
  0
LINE
  8
0
 62
     0
 10
5.66924
 20
195.865
 30
0.0
 11
5.20485
 21
195.938
 31
0.0
  0
LINE
  8
0
 62
     0
 10
5.20485
 20
195.938
 30
0.0
 11
4.74183
 21
195.865
 31
0.0
  0
LINE
  8
0
 62
     0
 10
0.0937066
 20
240.437
 30
0.0
 11
516.093
 21
240.437
 31
0.0
  0
LINE
  8
0
 62
     0
 10
516.093
 20
240.437
 30
0.0
 11
516.093
 21
200.437
 31
0.0
  0
LINE
  8
0
 62
     0
 10
516.093
 20
200.437
 30
0.0
 11
0.0937066
 21
200.437
 31
0.0
  0
LINE
  8
0
 62
     0
 10
0.0937066
 20
200.437
 30
0.0
 11
0.0937066
 21
240.437
 31
0.0
  0
ENDSEC
  0
EOF
