<?xml version="1.0"?>
<!-- Generated by SVGo -->
<svg width="525.775mm" height="173.351mm"
     viewBox="0.000 0.000 525.775 173.351"
     xmlns="http://www.w3.org/2000/svg" 
     xmlns:xlink="http://www.w3.org/1999/xlink">
<polygon points="520.775,168.351 5.000,168.351 5.000,5.000 520.775,5.000" style="fill:none;stroke-width:0.050000mm;stroke:black"/>
<polygon points="191.593,141.825 191.593,142.825 190.793,142.825 190.793,145.925 191.593,145.925 191.593,146.525 151.968,146.525 151.968,143.295 145.218,143.295 145.218,146.525 144.393,146.525 144.393,149.325 145.218,149.325 145.218,155.595 146.943,155.595 146.943,156.795 150.243,156.795 150.243,155.595 151.968,155.595 151.968,151.125 191.593,151.125 191.593,151.725 190.793,151.725 190.793,154.825 191.593,154.825 191.593,155.825 205.593,155.825 205.593,154.825 206.393,154.825 206.393,151.725 205.593,151.725 205.593,151.125 245.218,151.125 245.218,155.595 246.943,155.595 246.943,156.795 250.243,156.795 250.243,155.595 251.968,155.595 251.968,149.325 252.793,149.325 252.793,146.525 251.968,146.525 251.968,143.295 245.218,143.295 245.218,146.525 205.593,146.525 205.593,145.925 206.393,145.925 206.393,142.825 205.593,142.825 205.593,141.825" style="fill:none;stroke-width:0.050000mm;stroke:black"/>
<polygon points="441.625,141.825 441.625,142.825 440.825,142.825 440.825,145.925 441.625,145.925 441.625,146.525 440.100,146.525 440.100,143.295 433.350,143.295 433.350,146.525 432.525,146.525 432.525,149.325 433.350,149.325 433.350,155.595 435.075,155.595 435.075,156.795 438.375,156.795 438.375,155.595 440.100,155.595 440.100,151.125 441.625,151.125 441.625,151.725 440.825,151.725 440.825,154.825 441.625,154.825 441.625,155.825 455.625,155.825 455.625,154.825 456.425,154.825 456.425,151.725 455.625,151.725 455.625,151.125 457.150,151.125 457.150,155.595 458.875,155.595 458.875,156.795 462.175,156.795 462.175,155.595 463.900,155.595 463.900,149.325 464.725,149.325 464.725,146.525 463.900,146.525 463.900,143.295 457.150,143.295 457.150,146.525 455.625,146.525 455.625,145.925 456.425,145.925 456.425,142.825 455.625,142.825 455.625,141.825" style="fill:none;stroke-width:0.050000mm;stroke:black"/>
<polygon points="22.525,141.825 22.525,142.825 21.724,142.825 21.724,145.925 22.525,145.925 22.525,151.725 21.724,151.725 21.724,154.825 22.525,154.825 22.525,155.825 36.525,155.825 36.525,154.825 37.324,154.825 37.324,151.725 36.525,151.725 36.525,145.925 37.324,145.925 37.324,142.825 36.525,142.825 36.525,141.825" style="fill:none;stroke-width:0.050000mm;stroke:black"/>
<polygon points="41.575,141.825 41.575,142.825 40.775,142.825 40.775,145.925 41.575,145.925 41.575,151.725 40.775,151.725 40.775,154.825 41.575,154.825 41.575,155.825 55.575,155.825 55.575,154.825 56.375,154.825 56.375,151.725 55.575,151.725 55.575,145.925 56.375,145.925 56.375,142.825 55.575,142.825 55.575,141.825" style="fill:none;stroke-width:0.050000mm;stroke:black"/>
<polygon points="72.531,141.825 72.531,142.825 71.731,142.825 71.731,145.925 72.531,145.925 72.531,151.725 71.731,151.725 71.731,154.825 72.531,154.825 72.531,155.825 86.531,155.825 86.531,154.825 87.331,154.825 87.331,151.725 86.531,151.725 86.531,145.925 87.331,145.925 87.331,142.825 86.531,142.825 86.531,141.825" style="fill:none;stroke-width:0.050000mm;stroke:black"/>
<polygon points="96.343,141.825 96.343,142.825 95.543,142.825 95.543,145.925 96.343,145.925 96.343,151.725 95.543,151.725 95.543,154.825 96.343,154.825 96.343,155.825 110.343,155.825 110.343,154.825 111.143,154.825 111.143,151.725 110.343,151.725 110.343,145.925 111.143,145.925 111.143,142.825 110.343,142.825 110.343,141.825" style="fill:none;stroke-width:0.050000mm;stroke:black"/>
<polygon points="120.156,141.825 120.156,142.825 119.356,142.825 119.356,145.925 120.156,145.925 120.156,151.725 119.356,151.725 119.356,154.825 120.156,154.825 120.156,155.825 134.156,155.825 134.156,154.825 134.956,154.825 134.956,151.725 134.156,151.725 134.156,145.925 134.956,145.925 134.956,142.825 134.156,142.825 134.156,141.825" style="fill:none;stroke-width:0.050000mm;stroke:black"/>
<polygon points="263.031,141.825 263.031,142.825 262.231,142.825 262.231,145.925 263.031,145.925 263.031,151.725 262.231,151.725 262.231,154.825 263.031,154.825 263.031,155.825 277.031,155.825 277.031,154.825 277.831,154.825 277.831,151.725 277.031,151.725 277.031,145.925 277.831,145.925 277.831,142.825 277.031,142.825 277.031,141.825" style="fill:none;stroke-width:0.050000mm;stroke:black"/>
<polygon points="286.843,141.825 286.843,142.825 286.043,142.825 286.043,145.925 286.843,145.925 286.843,151.725 286.043,151.725 286.043,154.825 286.843,154.825 286.843,155.825 300.843,155.825 300.843,154.825 301.643,154.825 301.643,151.725 300.843,151.725 300.843,145.925 301.643,145.925 301.643,142.825 300.843,142.825 300.843,141.825" style="fill:none;stroke-width:0.050000mm;stroke:black"/>
<polygon points="310.656,141.825 310.656,142.825 309.856,142.825 309.856,145.925 310.656,145.925 310.656,151.725 309.856,151.725 309.856,154.825 310.656,154.825 310.656,155.825 324.656,155.825 324.656,154.825 325.456,154.825 325.456,151.725 324.656,151.725 324.656,145.925 325.456,145.925 325.456,142.825 324.656,142.825 324.656,141.825" style="fill:none;stroke-width:0.050000mm;stroke:black"/>
<polygon points="334.468,141.825 334.468,142.825 333.668,142.825 333.668,145.925 334.468,145.925 334.468,151.725 333.668,151.725 333.668,154.825 334.468,154.825 334.468,155.825 348.468,155.825 348.468,154.825 349.268,154.825 349.268,151.725 348.468,151.725 348.468,145.925 349.268,145.925 349.268,142.825 348.468,142.825 348.468,141.825" style="fill:none;stroke-width:0.050000mm;stroke:black"/>
<polygon points="365.425,141.825 365.425,142.825 364.625,142.825 364.625,145.925 365.425,145.925 365.425,151.725 364.625,151.725 364.625,154.825 365.425,154.825 365.425,155.825 379.425,155.825 379.425,154.825 380.225,154.825 380.225,151.725 379.425,151.725 379.425,145.925 380.225,145.925 380.225,142.825 379.425,142.825 379.425,141.825" style="fill:none;stroke-width:0.050000mm;stroke:black"/>
<polygon points="384.475,141.825 384.475,142.825 383.675,142.825 383.675,145.925 384.475,145.925 384.475,151.725 383.675,151.725 383.675,154.825 384.475,154.825 384.475,155.825 398.475,155.825 398.475,154.825 399.275,154.825 399.275,151.725 398.475,151.725 398.475,145.925 399.275,145.925 399.275,142.825 398.475,142.825 398.475,141.825" style="fill:none;stroke-width:0.050000mm;stroke:black"/>
<polygon points="403.525,141.825 403.525,142.825 402.725,142.825 402.725,145.925 403.525,145.925 403.525,151.725 402.725,151.725 402.725,154.825 403.525,154.825 403.525,155.825 417.525,155.825 417.525,154.825 418.325,154.825 418.325,151.725 417.525,151.725 417.525,145.925 418.325,145.925 418.325,142.825 417.525,142.825 417.525,141.825" style="fill:none;stroke-width:0.050000mm;stroke:black"/>
<polygon points="470.200,141.825 470.200,142.825 469.400,142.825 469.400,145.925 470.200,145.925 470.200,151.725 469.400,151.725 469.400,154.825 470.200,154.825 470.200,155.825 484.200,155.825 484.200,154.825 485.000,154.825 485.000,151.725 484.200,151.725 484.200,145.925 485.000,145.925 485.000,142.825 484.200,142.825 484.200,141.825" style="fill:none;stroke-width:0.050000mm;stroke:black"/>
<polygon points="495.750,123.200 495.750,124.025 489.480,124.025 489.480,125.750 488.280,125.750 488.280,129.050 489.480,129.050 489.480,130.775 493.950,130.775 493.950,132.300 493.350,132.300 493.350,131.500 490.250,131.500 490.250,132.300 489.250,132.300 489.250,146.300 490.250,146.300 490.250,147.100 493.350,147.100 493.350,146.300 493.950,146.300 493.950,147.825 489.480,147.825 489.480,149.550 488.280,149.550 488.280,152.850 489.480,152.850 489.480,154.575 495.750,154.575 495.750,155.400 498.550,155.400 498.550,154.575 501.780,154.575 501.780,147.825 498.550,147.825 498.550,146.300 499.150,146.300 499.150,147.100 502.250,147.100 502.250,146.300 503.250,146.300 503.250,132.300 502.250,132.300 502.250,131.500 499.150,131.500 499.150,132.300 498.550,132.300 498.550,130.775 501.780,130.775 501.780,124.025 498.550,124.025 498.550,123.200" style="fill:none;stroke-width:0.050000mm;stroke:black"/>
<polygon points="82.056,122.775 82.056,123.775 81.256,123.775 81.256,126.875 82.056,126.875 82.056,127.475 80.531,127.475 80.531,124.245 73.781,124.245 73.781,127.475 72.956,127.475 72.956,130.275 73.781,130.275 73.781,136.545 75.506,136.545 75.506,137.745 78.806,137.745 78.806,136.545 80.531,136.545 80.531,132.075 82.056,132.075 82.056,132.675 81.256,132.675 81.256,135.775 82.056,135.775 82.056,136.775 96.056,136.775 96.056,135.775 96.856,135.775 96.856,132.675 96.056,132.675 96.056,132.075 97.581,132.075 97.581,136.545 99.306,136.545 99.306,137.745 102.606,137.745 102.606,136.545 104.331,136.545 104.331,130.275 105.156,130.275 105.156,127.475 104.331,127.475 104.331,124.245 97.581,124.245 97.581,127.475 96.056,127.475 96.056,126.875 96.856,126.875 96.856,123.775 96.056,123.775 96.056,122.775" style="fill:none;stroke-width:0.050000mm;stroke:black"/>
<polygon points="320.181,122.775 320.181,123.775 319.381,123.775 319.381,126.875 320.181,126.875 320.181,127.475 318.656,127.475 318.656,124.245 311.906,124.245 311.906,127.475 311.081,127.475 311.081,130.275 311.906,130.275 311.906,136.545 313.631,136.545 313.631,137.745 316.931,137.745 316.931,136.545 318.656,136.545 318.656,132.075 320.181,132.075 320.181,132.675 319.381,132.675 319.381,135.775 320.181,135.775 320.181,136.775 334.181,136.775 334.181,135.775 334.981,135.775 334.981,132.675 334.181,132.675 334.181,132.075 335.706,132.075 335.706,136.545 337.431,136.545 337.431,137.745 340.731,137.745 340.731,136.545 342.456,136.545 342.456,130.275 343.281,130.275 343.281,127.475 342.456,127.475 342.456,124.245 335.706,124.245 335.706,127.475 334.181,127.475 334.181,126.875 334.981,126.875 334.981,123.775 334.181,123.775 334.181,122.775" style="fill:none;stroke-width:0.050000mm;stroke:black"/>
<polygon points="22.525,122.775 22.525,123.775 21.724,123.775 21.724,126.875 22.525,126.875 22.525,132.675 21.724,132.675 21.724,135.775 22.525,135.775 22.525,136.775 36.525,136.775 36.525,135.775 37.324,135.775 37.324,132.675 36.525,132.675 36.525,126.875 37.324,126.875 37.324,123.775 36.525,123.775 36.525,122.775" style="fill:none;stroke-width:0.050000mm;stroke:black"/>
<polygon points="41.575,122.775 41.575,123.775 40.775,123.775 40.775,126.875 41.575,126.875 41.575,132.675 40.775,132.675 40.775,135.775 41.575,135.775 41.575,136.775 55.575,136.775 55.575,135.775 56.375,135.775 56.375,132.675 55.575,132.675 55.575,126.875 56.375,126.875 56.375,123.775 55.575,123.775 55.575,122.775" style="fill:none;stroke-width:0.050000mm;stroke:black"/>
<polygon points="113.012,122.775 113.012,123.775 112.212,123.775 112.212,126.875 113.012,126.875 113.012,132.675 112.212,132.675 112.212,135.775 113.012,135.775 113.012,136.775 127.012,136.775 127.012,135.775 127.812,135.775 127.812,132.675 127.012,132.675 127.012,126.875 127.812,126.875 127.812,123.775 127.012,123.775 127.012,122.775" style="fill:none;stroke-width:0.050000mm;stroke:black"/>
<polygon points="132.062,122.775 132.062,123.775 131.262,123.775 131.262,126.875 132.062,126.875 132.062,132.675 131.262,132.675 131.262,135.775 132.062,135.775 132.062,136.775 146.062,136.775 146.062,135.775 146.862,135.775 146.862,132.675 146.062,132.675 146.062,126.875 146.862,126.875 146.862,123.775 146.062,123.775 146.062,122.775" style="fill:none;stroke-width:0.050000mm;stroke:black"/>
<polygon points="151.112,122.775 151.112,123.775 150.312,123.775 150.312,126.875 151.112,126.875 151.112,132.675 150.312,132.675 150.312,135.775 151.112,135.775 151.112,136.775 165.112,136.775 165.112,135.775 165.912,135.775 165.912,132.675 165.112,132.675 165.112,126.875 165.912,126.875 165.912,123.775 165.112,123.775 165.112,122.775" style="fill:none;stroke-width:0.050000mm;stroke:black"/>
<polygon points="170.162,122.775 170.162,123.775 169.362,123.775 169.362,126.875 170.162,126.875 170.162,132.675 169.362,132.675 169.362,135.775 170.162,135.775 170.162,136.775 184.162,136.775 184.162,135.775 184.962,135.775 184.962,132.675 184.162,132.675 184.162,126.875 184.962,126.875 184.962,123.775 184.162,123.775 184.162,122.775" style="fill:none;stroke-width:0.050000mm;stroke:black"/>
<polygon points="189.212,122.775 189.212,123.775 188.412,123.775 188.412,126.875 189.212,126.875 189.212,132.675 188.412,132.675 188.412,135.775 189.212,135.775 189.212,136.775 203.212,136.775 203.212,135.775 204.012,135.775 204.012,132.675 203.212,132.675 203.212,126.875 204.012,126.875 204.012,123.775 203.212,123.775 203.212,122.775" style="fill:none;stroke-width:0.050000mm;stroke:black"/>
<polygon points="208.262,122.775 208.262,123.775 207.462,123.775 207.462,126.875 208.262,126.875 208.262,132.675 207.462,132.675 207.462,135.775 208.262,135.775 208.262,136.775 222.262,136.775 222.262,135.775 223.062,135.775 223.062,132.675 222.262,132.675 222.262,126.875 223.062,126.875 223.062,123.775 222.262,123.775 222.262,122.775" style="fill:none;stroke-width:0.050000mm;stroke:black"/>
<polygon points="227.312,122.775 227.312,123.775 226.512,123.775 226.512,126.875 227.312,126.875 227.312,132.675 226.512,132.675 226.512,135.775 227.312,135.775 227.312,136.775 241.312,136.775 241.312,135.775 242.112,135.775 242.112,132.675 241.312,132.675 241.312,126.875 242.112,126.875 242.112,123.775 241.312,123.775 241.312,122.775" style="fill:none;stroke-width:0.050000mm;stroke:black"/>
<polygon points="246.362,122.775 246.362,123.775 245.562,123.775 245.562,126.875 246.362,126.875 246.362,132.675 245.562,132.675 245.562,135.775 246.362,135.775 246.362,136.775 260.362,136.775 260.362,135.775 261.161,135.775 261.161,132.675 260.362,132.675 260.362,126.875 261.161,126.875 261.161,123.775 260.362,123.775 260.362,122.775" style="fill:none;stroke-width:0.050000mm;stroke:black"/>
<polygon points="265.412,122.775 265.412,123.775 264.612,123.775 264.612,126.875 265.412,126.875 265.412,132.675 264.612,132.675 264.612,135.775 265.412,135.775 265.412,136.775 279.412,136.775 279.412,135.775 280.212,135.775 280.212,132.675 279.412,132.675 279.412,126.875 280.212,126.875 280.212,123.775 279.412,123.775 279.412,122.775" style="fill:none;stroke-width:0.050000mm;stroke:black"/>
<polygon points="284.462,122.775 284.462,123.775 283.662,123.775 283.662,126.875 284.462,126.875 284.462,132.675 283.662,132.675 283.662,135.775 284.462,135.775 284.462,136.775 298.462,136.775 298.462,135.775 299.262,135.775 299.262,132.675 298.462,132.675 298.462,126.875 299.262,126.875 299.262,123.775 298.462,123.775 298.462,122.775" style="fill:none;stroke-width:0.050000mm;stroke:black"/>
<polygon points="384.475,122.775 384.475,123.775 383.675,123.775 383.675,126.875 384.475,126.875 384.475,132.675 383.675,132.675 383.675,135.775 384.475,135.775 384.475,136.775 398.475,136.775 398.475,135.775 399.275,135.775 399.275,132.675 398.475,132.675 398.475,126.875 399.275,126.875 399.275,123.775 398.475,123.775 398.475,122.775" style="fill:none;stroke-width:0.050000mm;stroke:black"/>
<polygon points="432.100,122.775 432.100,123.775 431.300,123.775 431.300,126.875 432.100,126.875 432.100,132.675 431.300,132.675 431.300,135.775 432.100,135.775 432.100,136.775 446.100,136.775 446.100,135.775 446.900,135.775 446.900,132.675 446.100,132.675 446.100,126.875 446.900,126.875 446.900,123.775 446.100,123.775 446.100,122.775" style="fill:none;stroke-width:0.050000mm;stroke:black"/>
<polygon points="451.150,122.775 451.150,123.775 450.350,123.775 450.350,126.875 451.150,126.875 451.150,132.675 450.350,132.675 450.350,135.775 451.150,135.775 451.150,136.775 465.150,136.775 465.150,135.775 465.950,135.775 465.950,132.675 465.150,132.675 465.150,126.875 465.950,126.875 465.950,123.775 465.150,123.775 465.150,122.775" style="fill:none;stroke-width:0.050000mm;stroke:black"/>
<polygon points="470.200,122.775 470.200,123.775 469.400,123.775 469.400,126.875 470.200,126.875 470.200,132.675 469.400,132.675 469.400,135.775 470.200,135.775 470.200,136.775 484.200,136.775 484.200,135.775 485.000,135.775 485.000,132.675 484.200,132.675 484.200,126.875 485.000,126.875 485.000,123.775 484.200,123.775 484.200,122.775" style="fill:none;stroke-width:0.050000mm;stroke:black"/>
<polygon points="324.943,103.725 324.943,104.725 324.143,104.725 324.143,107.824 324.943,107.824 324.943,108.425 323.418,108.425 323.418,105.195 316.668,105.195 316.668,108.425 315.843,108.425 315.843,111.225 316.668,111.225 316.668,117.494 318.393,117.494 318.393,118.695 321.693,118.695 321.693,117.494 323.418,117.494 323.418,113.024 324.943,113.024 324.943,113.625 324.143,113.625 324.143,116.725 324.943,116.725 324.943,117.725 338.943,117.725 338.943,116.725 339.743,116.725 339.743,113.625 338.943,113.625 338.943,113.024 340.468,113.024 340.468,117.494 342.193,117.494 342.193,118.695 345.493,118.695 345.493,117.494 347.218,117.494 347.218,111.225 348.043,111.225 348.043,108.425 347.218,108.425 347.218,105.195 340.468,105.195 340.468,108.425 338.943,108.425 338.943,107.824 339.743,107.824 339.743,104.725 338.943,104.725 338.943,103.725" style="fill:none;stroke-width:0.050000mm;stroke:black"/>
<polygon points="22.525,103.725 22.525,104.725 21.724,104.725 21.724,107.824 22.525,107.824 22.525,113.625 21.724,113.625 21.724,116.725 22.525,116.725 22.525,117.725 36.525,117.725 36.525,116.725 37.324,116.725 37.324,113.625 36.525,113.625 36.525,107.824 37.324,107.824 37.324,104.725 36.525,104.725 36.525,103.725" style="fill:none;stroke-width:0.050000mm;stroke:black"/>
<polygon points="41.575,103.725 41.575,104.725 40.775,104.725 40.775,107.824 41.575,107.824 41.575,113.625 40.775,113.625 40.775,116.725 41.575,116.725 41.575,117.725 55.575,117.725 55.575,116.725 56.375,116.725 56.375,113.625 55.575,113.625 55.575,107.824 56.375,107.824 56.375,104.725 55.575,104.725 55.575,103.725" style="fill:none;stroke-width:0.050000mm;stroke:black"/>
<polygon points="77.293,103.725 77.293,104.725 76.493,104.725 76.493,107.824 77.293,107.824 77.293,113.625 76.493,113.625 76.493,116.725 77.293,116.725 77.293,117.725 91.293,117.725 91.293,116.725 92.093,116.725 92.093,113.625 91.293,113.625 91.293,107.824 92.093,107.824 92.093,104.725 91.293,104.725 91.293,103.725" style="fill:none;stroke-width:0.050000mm;stroke:black"/>
<polygon points="103.487,103.725 103.487,104.725 102.687,104.725 102.687,107.824 103.487,107.824 103.487,113.625 102.687,113.625 102.687,116.725 103.487,116.725 103.487,117.725 117.487,117.725 117.487,116.725 118.287,116.725 118.287,113.625 117.487,113.625 117.487,107.824 118.287,107.824 118.287,104.725 117.487,104.725 117.487,103.725" style="fill:none;stroke-width:0.050000mm;stroke:black"/>
<polygon points="122.537,103.725 122.537,104.725 121.737,104.725 121.737,107.824 122.537,107.824 122.537,113.625 121.737,113.625 121.737,116.725 122.537,116.725 122.537,117.725 136.537,117.725 136.537,116.725 137.337,116.725 137.337,113.625 136.537,113.625 136.537,107.824 137.337,107.824 137.337,104.725 136.537,104.725 136.537,103.725" style="fill:none;stroke-width:0.050000mm;stroke:black"/>
<polygon points="141.587,103.725 141.587,104.725 140.787,104.725 140.787,107.824 141.587,107.824 141.587,113.625 140.787,113.625 140.787,116.725 141.587,116.725 141.587,117.725 155.587,117.725 155.587,116.725 156.387,116.725 156.387,113.625 155.587,113.625 155.587,107.824 156.387,107.824 156.387,104.725 155.587,104.725 155.587,103.725" style="fill:none;stroke-width:0.050000mm;stroke:black"/>
<polygon points="160.637,103.725 160.637,104.725 159.837,104.725 159.837,107.824 160.637,107.824 160.637,113.625 159.837,113.625 159.837,116.725 160.637,116.725 160.637,117.725 174.637,117.725 174.637,116.725 175.437,116.725 175.437,113.625 174.637,113.625 174.637,107.824 175.437,107.824 175.437,104.725 174.637,104.725 174.637,103.725" style="fill:none;stroke-width:0.050000mm;stroke:black"/>
<polygon points="179.687,103.725 179.687,104.725 178.887,104.725 178.887,107.824 179.687,107.824 179.687,113.625 178.887,113.625 178.887,116.725 179.687,116.725 179.687,117.725 193.687,117.725 193.687,116.725 194.487,116.725 194.487,113.625 193.687,113.625 193.687,107.824 194.487,107.824 194.487,104.725 193.687,104.725 193.687,103.725" style="fill:none;stroke-width:0.050000mm;stroke:black"/>
<polygon points="198.737,103.725 198.737,104.725 197.937,104.725 197.937,107.824 198.737,107.824 198.737,113.625 197.937,113.625 197.937,116.725 198.737,116.725 198.737,117.725 212.737,117.725 212.737,116.725 213.537,116.725 213.537,113.625 212.737,113.625 212.737,107.824 213.537,107.824 213.537,104.725 212.737,104.725 212.737,103.725" style="fill:none;stroke-width:0.050000mm;stroke:black"/>
<polygon points="217.787,103.725 217.787,104.725 216.987,104.725 216.987,107.824 217.787,107.824 217.787,113.625 216.987,113.625 216.987,116.725 217.787,116.725 217.787,117.725 231.787,117.725 231.787,116.725 232.587,116.725 232.587,113.625 231.787,113.625 231.787,107.824 232.587,107.824 232.587,104.725 231.787,104.725 231.787,103.725" style="fill:none;stroke-width:0.050000mm;stroke:black"/>
<polygon points="236.837,103.725 236.837,104.725 236.037,104.725 236.037,107.824 236.837,107.824 236.837,113.625 236.037,113.625 236.037,116.725 236.837,116.725 236.837,117.725 250.837,117.725 250.837,116.725 251.637,116.725 251.637,113.625 250.837,113.625 250.837,107.824 251.637,107.824 251.637,104.725 250.837,104.725 250.837,103.725" style="fill:none;stroke-width:0.050000mm;stroke:black"/>
<polygon points="255.887,103.725 255.887,104.725 255.087,104.725 255.087,107.824 255.887,107.824 255.887,113.625 255.087,113.625 255.087,116.725 255.887,116.725 255.887,117.725 269.887,117.725 269.887,116.725 270.687,116.725 270.687,113.625 269.887,113.625 269.887,107.824 270.687,107.824 270.687,104.725 269.887,104.725 269.887,103.725" style="fill:none;stroke-width:0.050000mm;stroke:black"/>
<polygon points="274.937,103.725 274.937,104.725 274.137,104.725 274.137,107.824 274.937,107.824 274.937,113.625 274.137,113.625 274.137,116.725 274.937,116.725 274.937,117.725 288.937,117.725 288.937,116.725 289.737,116.725 289.737,113.625 288.937,113.625 288.937,107.824 289.737,107.824 289.737,104.725 288.937,104.725 288.937,103.725" style="fill:none;stroke-width:0.050000mm;stroke:black"/>
<polygon points="293.987,103.725 293.987,104.725 293.187,104.725 293.187,107.824 293.987,107.824 293.987,113.625 293.187,113.625 293.187,116.725 293.987,116.725 293.987,117.725 307.987,117.725 307.987,116.725 308.787,116.725 308.787,113.625 307.987,113.625 307.987,107.824 308.787,107.824 308.787,104.725 307.987,104.725 307.987,103.725" style="fill:none;stroke-width:0.050000mm;stroke:black"/>
<polygon points="432.100,103.725 432.100,104.725 431.300,104.725 431.300,107.824 432.100,107.824 432.100,113.625 431.300,113.625 431.300,116.725 432.100,116.725 432.100,117.725 446.100,117.725 446.100,116.725 446.900,116.725 446.900,113.625 446.100,113.625 446.100,107.824 446.900,107.824 446.900,104.725 446.100,104.725 446.100,103.725" style="fill:none;stroke-width:0.050000mm;stroke:black"/>
<polygon points="451.150,103.725 451.150,104.725 450.350,104.725 450.350,107.824 451.150,107.824 451.150,113.625 450.350,113.625 450.350,116.725 451.150,116.725 451.150,117.725 465.150,117.725 465.150,116.725 465.950,116.725 465.950,113.625 465.150,113.625 465.150,107.824 465.950,107.824 465.950,104.725 465.150,104.725 465.150,103.725" style="fill:none;stroke-width:0.050000mm;stroke:black"/>
<polygon points="470.200,103.725 470.200,104.725 469.400,104.725 469.400,107.824 470.200,107.824 470.200,113.625 469.400,113.625 469.400,116.725 470.200,116.725 470.200,117.725 484.200,117.725 484.200,116.725 485.000,116.725 485.000,113.625 484.200,113.625 484.200,107.824 485.000,107.824 485.000,104.725 484.200,104.725 484.200,103.725" style="fill:none;stroke-width:0.050000mm;stroke:black"/>
<polygon points="489.250,103.725 489.250,104.725 488.450,104.725 488.450,107.824 489.250,107.824 489.250,113.625 488.450,113.625 488.450,116.725 489.250,116.725 489.250,117.725 503.250,117.725 503.250,116.725 504.050,116.725 504.050,113.625 503.250,113.625 503.250,107.824 504.050,107.824 504.050,104.725 503.250,104.725 503.250,103.725" style="fill:none;stroke-width:0.050000mm;stroke:black"/>
<polygon points="22.525,84.675 22.525,85.675 21.724,85.675 21.724,88.774 22.525,88.774 22.525,94.575 21.724,94.575 21.724,97.675 22.525,97.675 22.525,98.675 36.525,98.675 36.525,97.675 37.324,97.675 37.324,94.575 36.525,94.575 36.525,88.774 37.324,88.774 37.324,85.675 36.525,85.675 36.525,84.675" style="fill:none;stroke-width:0.050000mm;stroke:black"/>
<polygon points="41.575,84.675 41.575,85.675 40.775,85.675 40.775,88.774 41.575,88.774 41.575,94.575 40.775,94.575 40.775,97.675 41.575,97.675 41.575,98.675 55.575,98.675 55.575,97.675 56.375,97.675 56.375,94.575 55.575,94.575 55.575,88.774 56.375,88.774 56.375,85.675 55.575,85.675 55.575,84.675" style="fill:none;stroke-width:0.050000mm;stroke:black"/>
<polygon points="74.912,84.675 74.912,85.675 74.112,85.675 74.112,88.774 74.912,88.774 74.912,94.575 74.112,94.575 74.112,97.675 74.912,97.675 74.912,98.675 88.912,98.675 88.912,97.675 89.712,97.675 89.712,94.575 88.912,94.575 88.912,88.774 89.712,88.774 89.712,85.675 88.912,85.675 88.912,84.675" style="fill:none;stroke-width:0.050000mm;stroke:black"/>
<polygon points="98.725,84.675 98.725,85.675 97.925,85.675 97.925,88.774 98.725,88.774 98.725,94.575 97.925,94.575 97.925,97.675 98.725,97.675 98.725,98.675 112.725,98.675 112.725,97.675 113.525,97.675 113.525,94.575 112.725,94.575 112.725,88.774 113.525,88.774 113.525,85.675 112.725,85.675 112.725,84.675" style="fill:none;stroke-width:0.050000mm;stroke:black"/>
<polygon points="117.775,84.675 117.775,85.675 116.975,85.675 116.975,88.774 117.775,88.774 117.775,94.575 116.975,94.575 116.975,97.675 117.775,97.675 117.775,98.675 131.775,98.675 131.775,97.675 132.575,97.675 132.575,94.575 131.775,94.575 131.775,88.774 132.575,88.774 132.575,85.675 131.775,85.675 131.775,84.675" style="fill:none;stroke-width:0.050000mm;stroke:black"/>
<polygon points="136.825,84.675 136.825,85.675 136.025,85.675 136.025,88.774 136.825,88.774 136.825,94.575 136.025,94.575 136.025,97.675 136.825,97.675 136.825,98.675 150.825,98.675 150.825,97.675 151.625,97.675 151.625,94.575 150.825,94.575 150.825,88.774 151.625,88.774 151.625,85.675 150.825,85.675 150.825,84.675" style="fill:none;stroke-width:0.050000mm;stroke:black"/>
<polygon points="155.875,84.675 155.875,85.675 155.075,85.675 155.075,88.774 155.875,88.774 155.875,94.575 155.075,94.575 155.075,97.675 155.875,97.675 155.875,98.675 169.875,98.675 169.875,97.675 170.675,97.675 170.675,94.575 169.875,94.575 169.875,88.774 170.675,88.774 170.675,85.675 169.875,85.675 169.875,84.675" style="fill:none;stroke-width:0.050000mm;stroke:black"/>
<polygon points="174.925,84.675 174.925,85.675 174.125,85.675 174.125,88.774 174.925,88.774 174.925,94.575 174.125,94.575 174.125,97.675 174.925,97.675 174.925,98.675 188.925,98.675 188.925,97.675 189.725,97.675 189.725,94.575 188.925,94.575 188.925,88.774 189.725,88.774 189.725,85.675 188.925,85.675 188.925,84.675" style="fill:none;stroke-width:0.050000mm;stroke:black"/>
<polygon points="193.975,84.675 193.975,85.675 193.175,85.675 193.175,88.774 193.975,88.774 193.975,94.575 193.175,94.575 193.175,97.675 193.975,97.675 193.975,98.675 207.975,98.675 207.975,97.675 208.775,97.675 208.775,94.575 207.975,94.575 207.975,88.774 208.775,88.774 208.775,85.675 207.975,85.675 207.975,84.675" style="fill:none;stroke-width:0.050000mm;stroke:black"/>
<polygon points="213.025,84.675 213.025,85.675 212.225,85.675 212.225,88.774 213.025,88.774 213.025,94.575 212.225,94.575 212.225,97.675 213.025,97.675 213.025,98.675 227.025,98.675 227.025,97.675 227.825,97.675 227.825,94.575 227.025,94.575 227.025,88.774 227.825,88.774 227.825,85.675 227.025,85.675 227.025,84.675" style="fill:none;stroke-width:0.050000mm;stroke:black"/>
<polygon points="232.075,84.675 232.075,85.675 231.275,85.675 231.275,88.774 232.075,88.774 232.075,94.575 231.275,94.575 231.275,97.675 232.075,97.675 232.075,98.675 246.075,98.675 246.075,97.675 246.875,97.675 246.875,94.575 246.075,94.575 246.075,88.774 246.875,88.774 246.875,85.675 246.075,85.675 246.075,84.675" style="fill:none;stroke-width:0.050000mm;stroke:black"/>
<polygon points="251.125,84.675 251.125,85.675 250.325,85.675 250.325,88.774 251.125,88.774 251.125,94.575 250.325,94.575 250.325,97.675 251.125,97.675 251.125,98.675 265.125,98.675 265.125,97.675 265.925,97.675 265.925,94.575 265.125,94.575 265.125,88.774 265.925,88.774 265.925,85.675 265.125,85.675 265.125,84.675" style="fill:none;stroke-width:0.050000mm;stroke:black"/>
<polygon points="270.175,84.675 270.175,85.675 269.375,85.675 269.375,88.774 270.175,88.774 270.175,94.575 269.375,94.575 269.375,97.675 270.175,97.675 270.175,98.675 284.175,98.675 284.175,97.675 284.975,97.675 284.975,94.575 284.175,94.575 284.175,88.774 284.975,88.774 284.975,85.675 284.175,85.675 284.175,84.675" style="fill:none;stroke-width:0.050000mm;stroke:black"/>
<polygon points="289.225,84.675 289.225,85.675 288.425,85.675 288.425,88.774 289.225,88.774 289.225,94.575 288.425,94.575 288.425,97.675 289.225,97.675 289.225,98.675 303.225,98.675 303.225,97.675 304.025,97.675 304.025,94.575 303.225,94.575 303.225,88.774 304.025,88.774 304.025,85.675 303.225,85.675 303.225,84.675" style="fill:none;stroke-width:0.050000mm;stroke:black"/>
<polygon points="308.275,84.675 308.275,85.675 307.475,85.675 307.475,88.774 308.275,88.774 308.275,94.575 307.475,94.575 307.475,97.675 308.275,97.675 308.275,98.675 322.275,98.675 322.275,97.675 323.075,97.675 323.075,94.575 322.275,94.575 322.275,88.774 323.075,88.774 323.075,85.675 322.275,85.675 322.275,84.675" style="fill:none;stroke-width:0.050000mm;stroke:black"/>
<polygon points="332.087,84.675 332.087,85.675 331.287,85.675 331.287,88.774 332.087,88.774 332.087,94.575 331.287,94.575 331.287,97.675 332.087,97.675 332.087,98.675 346.087,98.675 346.087,97.675 346.887,97.675 346.887,94.575 346.087,94.575 346.087,88.774 346.887,88.774 346.887,85.675 346.087,85.675 346.087,84.675" style="fill:none;stroke-width:0.050000mm;stroke:black"/>
<polygon points="365.425,84.675 365.425,85.675 364.625,85.675 364.625,88.774 365.425,88.774 365.425,94.575 364.625,94.575 364.625,97.675 365.425,97.675 365.425,98.675 379.425,98.675 379.425,97.675 380.225,97.675 380.225,94.575 379.425,94.575 379.425,88.774 380.225,88.774 380.225,85.675 379.425,85.675 379.425,84.675" style="fill:none;stroke-width:0.050000mm;stroke:black"/>
<polygon points="384.475,84.675 384.475,85.675 383.675,85.675 383.675,88.774 384.475,88.774 384.475,94.575 383.675,94.575 383.675,97.675 384.475,97.675 384.475,98.675 398.475,98.675 398.475,97.675 399.275,97.675 399.275,94.575 398.475,94.575 398.475,88.774 399.275,88.774 399.275,85.675 398.475,85.675 398.475,84.675" style="fill:none;stroke-width:0.050000mm;stroke:black"/>
<polygon points="403.525,84.675 403.525,85.675 402.725,85.675 402.725,88.774 403.525,88.774 403.525,94.575 402.725,94.575 402.725,97.675 403.525,97.675 403.525,98.675 417.525,98.675 417.525,97.675 418.325,97.675 418.325,94.575 417.525,94.575 417.525,88.774 418.325,88.774 418.325,85.675 417.525,85.675 417.525,84.675" style="fill:none;stroke-width:0.050000mm;stroke:black"/>
<polygon points="432.100,84.675 432.100,85.675 431.300,85.675 431.300,88.774 432.100,88.774 432.100,94.575 431.300,94.575 431.300,97.675 432.100,97.675 432.100,98.675 446.100,98.675 446.100,97.675 446.900,97.675 446.900,94.575 446.100,94.575 446.100,88.774 446.900,88.774 446.900,85.675 446.100,85.675 446.100,84.675" style="fill:none;stroke-width:0.050000mm;stroke:black"/>
<polygon points="451.150,84.675 451.150,85.675 450.350,85.675 450.350,88.774 451.150,88.774 451.150,94.575 450.350,94.575 450.350,97.675 451.150,97.675 451.150,98.675 465.150,98.675 465.150,97.675 465.950,97.675 465.950,94.575 465.150,94.575 465.150,88.774 465.950,88.774 465.950,85.675 465.150,85.675 465.150,84.675" style="fill:none;stroke-width:0.050000mm;stroke:black"/>
<polygon points="470.200,84.675 470.200,85.675 469.400,85.675 469.400,88.774 470.200,88.774 470.200,94.575 469.400,94.575 469.400,97.675 470.200,97.675 470.200,98.675 484.200,98.675 484.200,97.675 485.000,97.675 485.000,94.575 484.200,94.575 484.200,88.774 485.000,88.774 485.000,85.675 484.200,85.675 484.200,84.675" style="fill:none;stroke-width:0.050000mm;stroke:black"/>
<polygon points="489.250,84.675 489.250,85.675 488.450,85.675 488.450,88.774 489.250,88.774 489.250,94.575 488.450,94.575 488.450,97.675 489.250,97.675 489.250,98.675 503.250,98.675 503.250,97.675 504.050,97.675 504.050,94.575 503.250,94.575 503.250,88.774 504.050,88.774 504.050,85.675 503.250,85.675 503.250,84.675" style="fill:none;stroke-width:0.050000mm;stroke:black"/>
<polygon points="327.325,65.625 327.325,66.625 326.525,66.625 326.525,69.725 327.325,69.725 327.325,70.325 325.800,70.325 325.800,67.095 319.050,67.095 319.050,70.325 318.225,70.325 318.225,73.125 319.050,73.125 319.050,79.395 320.775,79.395 320.775,80.595 324.075,80.595 324.075,79.395 325.800,79.395 325.800,74.925 327.325,74.925 327.325,75.525 326.525,75.525 326.525,78.625 327.325,78.625 327.325,79.625 341.325,79.625 341.325,78.625 342.125,78.625 342.125,75.525 341.325,75.525 341.325,74.925 342.850,74.925 342.850,79.395 344.575,79.395 344.575,80.595 347.875,80.595 347.875,79.395 349.600,79.395 349.600,73.125 350.425,73.125 350.425,70.325 349.600,70.325 349.600,67.095 342.850,67.095 342.850,70.325 341.325,70.325 341.325,69.725 342.125,69.725 342.125,66.625 341.325,66.625 341.325,65.625" style="fill:none;stroke-width:0.050000mm;stroke:black"/>
<polygon points="22.525,65.625 22.525,66.625 21.724,66.625 21.724,69.725 22.525,69.725 22.525,75.525 21.724,75.525 21.724,78.625 22.525,78.625 22.525,79.625 36.525,79.625 36.525,78.625 37.324,78.625 37.324,75.525 36.525,75.525 36.525,69.725 37.324,69.725 37.324,66.625 36.525,66.625 36.525,65.625" style="fill:none;stroke-width:0.050000mm;stroke:black"/>
<polygon points="41.575,65.625 41.575,66.625 40.775,66.625 40.775,69.725 41.575,69.725 41.575,75.525 40.775,75.525 40.775,78.625 41.575,78.625 41.575,79.625 55.575,79.625 55.575,78.625 56.375,78.625 56.375,75.525 55.575,75.525 55.575,69.725 56.375,69.725 56.375,66.625 55.575,66.625 55.575,65.625" style="fill:none;stroke-width:0.050000mm;stroke:black"/>
<polygon points="70.150,65.625 70.150,66.625 69.350,66.625 69.350,69.725 70.150,69.725 70.150,75.525 69.350,75.525 69.350,78.625 70.150,78.625 70.150,79.625 84.150,79.625 84.150,78.625 84.950,78.625 84.950,75.525 84.150,75.525 84.150,69.725 84.950,69.725 84.950,66.625 84.150,66.625 84.150,65.625" style="fill:none;stroke-width:0.050000mm;stroke:black"/>
<polygon points="89.200,65.625 89.200,66.625 88.400,66.625 88.400,69.725 89.200,69.725 89.200,75.525 88.400,75.525 88.400,78.625 89.200,78.625 89.200,79.625 103.200,79.625 103.200,78.625 104.000,78.625 104.000,75.525 103.200,75.525 103.200,69.725 104.000,69.725 104.000,66.625 103.200,66.625 103.200,65.625" style="fill:none;stroke-width:0.050000mm;stroke:black"/>
<polygon points="108.250,65.625 108.250,66.625 107.450,66.625 107.450,69.725 108.250,69.725 108.250,75.525 107.450,75.525 107.450,78.625 108.250,78.625 108.250,79.625 122.250,79.625 122.250,78.625 123.050,78.625 123.050,75.525 122.250,75.525 122.250,69.725 123.050,69.725 123.050,66.625 122.250,66.625 122.250,65.625" style="fill:none;stroke-width:0.050000mm;stroke:black"/>
<polygon points="127.300,65.625 127.300,66.625 126.500,66.625 126.500,69.725 127.300,69.725 127.300,75.525 126.500,75.525 126.500,78.625 127.300,78.625 127.300,79.625 141.300,79.625 141.300,78.625 142.100,78.625 142.100,75.525 141.300,75.525 141.300,69.725 142.100,69.725 142.100,66.625 141.300,66.625 141.300,65.625" style="fill:none;stroke-width:0.050000mm;stroke:black"/>
<polygon points="146.350,65.625 146.350,66.625 145.550,66.625 145.550,69.725 146.350,69.725 146.350,75.525 145.550,75.525 145.550,78.625 146.350,78.625 146.350,79.625 160.350,79.625 160.350,78.625 161.150,78.625 161.150,75.525 160.350,75.525 160.350,69.725 161.150,69.725 161.150,66.625 160.350,66.625 160.350,65.625" style="fill:none;stroke-width:0.050000mm;stroke:black"/>
<polygon points="165.400,65.625 165.400,66.625 164.600,66.625 164.600,69.725 165.400,69.725 165.400,75.525 164.600,75.525 164.600,78.625 165.400,78.625 165.400,79.625 179.400,79.625 179.400,78.625 180.200,78.625 180.200,75.525 179.400,75.525 179.400,69.725 180.200,69.725 180.200,66.625 179.400,66.625 179.400,65.625" style="fill:none;stroke-width:0.050000mm;stroke:black"/>
<polygon points="184.450,65.625 184.450,66.625 183.650,66.625 183.650,69.725 184.450,69.725 184.450,75.525 183.650,75.525 183.650,78.625 184.450,78.625 184.450,79.625 198.450,79.625 198.450,78.625 199.250,78.625 199.250,75.525 198.450,75.525 198.450,69.725 199.250,69.725 199.250,66.625 198.450,66.625 198.450,65.625" style="fill:none;stroke-width:0.050000mm;stroke:black"/>
<polygon points="203.500,65.625 203.500,66.625 202.700,66.625 202.700,69.725 203.500,69.725 203.500,75.525 202.700,75.525 202.700,78.625 203.500,78.625 203.500,79.625 217.500,79.625 217.500,78.625 218.300,78.625 218.300,75.525 217.500,75.525 217.500,69.725 218.300,69.725 218.300,66.625 217.500,66.625 217.500,65.625" style="fill:none;stroke-width:0.050000mm;stroke:black"/>
<polygon points="222.550,65.625 222.550,66.625 221.750,66.625 221.750,69.725 222.550,69.725 222.550,75.525 221.750,75.525 221.750,78.625 222.550,78.625 222.550,79.625 236.550,79.625 236.550,78.625 237.350,78.625 237.350,75.525 236.550,75.525 236.550,69.725 237.350,69.725 237.350,66.625 236.550,66.625 236.550,65.625" style="fill:none;stroke-width:0.050000mm;stroke:black"/>
<polygon points="241.600,65.625 241.600,66.625 240.800,66.625 240.800,69.725 241.600,69.725 241.600,75.525 240.800,75.525 240.800,78.625 241.600,78.625 241.600,79.625 255.600,79.625 255.600,78.625 256.399,78.625 256.399,75.525 255.600,75.525 255.600,69.725 256.399,69.725 256.399,66.625 255.600,66.625 255.600,65.625" style="fill:none;stroke-width:0.050000mm;stroke:black"/>
<polygon points="260.649,65.625 260.649,66.625 259.850,66.625 259.850,69.725 260.649,69.725 260.649,75.525 259.850,75.525 259.850,78.625 260.649,78.625 260.649,79.625 274.650,79.625 274.650,78.625 275.450,78.625 275.450,75.525 274.650,75.525 274.650,69.725 275.450,69.725 275.450,66.625 274.650,66.625 274.650,65.625" style="fill:none;stroke-width:0.050000mm;stroke:black"/>
<polygon points="279.700,65.625 279.700,66.625 278.900,66.625 278.900,69.725 279.700,69.725 279.700,75.525 278.900,75.525 278.900,78.625 279.700,78.625 279.700,79.625 293.700,79.625 293.700,78.625 294.500,78.625 294.500,75.525 293.700,75.525 293.700,69.725 294.500,69.725 294.500,66.625 293.700,66.625 293.700,65.625" style="fill:none;stroke-width:0.050000mm;stroke:black"/>
<polygon points="298.750,65.625 298.750,66.625 297.950,66.625 297.950,69.725 298.750,69.725 298.750,75.525 297.950,75.525 297.950,78.625 298.750,78.625 298.750,79.625 312.750,79.625 312.750,78.625 313.550,78.625 313.550,75.525 312.750,75.525 312.750,69.725 313.550,69.725 313.550,66.625 312.750,66.625 312.750,65.625" style="fill:none;stroke-width:0.050000mm;stroke:black"/>
<polygon points="365.425,65.625 365.425,66.625 364.625,66.625 364.625,69.725 365.425,69.725 365.425,75.525 364.625,75.525 364.625,78.625 365.425,78.625 365.425,79.625 379.425,79.625 379.425,78.625 380.225,78.625 380.225,75.525 379.425,75.525 379.425,69.725 380.225,69.725 380.225,66.625 379.425,66.625 379.425,65.625" style="fill:none;stroke-width:0.050000mm;stroke:black"/>
<polygon points="384.475,65.625 384.475,66.625 383.675,66.625 383.675,69.725 384.475,69.725 384.475,75.525 383.675,75.525 383.675,78.625 384.475,78.625 384.475,79.625 398.475,79.625 398.475,78.625 399.275,78.625 399.275,75.525 398.475,75.525 398.475,69.725 399.275,69.725 399.275,66.625 398.475,66.625 398.475,65.625" style="fill:none;stroke-width:0.050000mm;stroke:black"/>
<polygon points="403.525,65.625 403.525,66.625 402.725,66.625 402.725,69.725 403.525,69.725 403.525,75.525 402.725,75.525 402.725,78.625 403.525,78.625 403.525,79.625 417.525,79.625 417.525,78.625 418.325,78.625 418.325,75.525 417.525,75.525 417.525,69.725 418.325,69.725 418.325,66.625 417.525,66.625 417.525,65.625" style="fill:none;stroke-width:0.050000mm;stroke:black"/>
<polygon points="432.100,65.625 432.100,66.625 431.300,66.625 431.300,69.725 432.100,69.725 432.100,75.525 431.300,75.525 431.300,78.625 432.100,78.625 432.100,79.625 446.100,79.625 446.100,78.625 446.900,78.625 446.900,75.525 446.100,75.525 446.100,69.725 446.900,69.725 446.900,66.625 446.100,66.625 446.100,65.625" style="fill:none;stroke-width:0.050000mm;stroke:black"/>
<polygon points="451.150,65.625 451.150,66.625 450.350,66.625 450.350,69.725 451.150,69.725 451.150,75.525 450.350,75.525 450.350,78.625 451.150,78.625 451.150,79.625 465.150,79.625 465.150,78.625 465.950,78.625 465.950,75.525 465.150,75.525 465.150,69.725 465.950,69.725 465.950,66.625 465.150,66.625 465.150,65.625" style="fill:none;stroke-width:0.050000mm;stroke:black"/>
<polygon points="470.200,65.625 470.200,66.625 469.400,66.625 469.400,69.725 470.200,69.725 470.200,75.525 469.400,75.525 469.400,78.625 470.200,78.625 470.200,79.625 484.200,79.625 484.200,78.625 485.000,78.625 485.000,75.525 484.200,75.525 484.200,69.725 485.000,69.725 485.000,66.625 484.200,66.625 484.200,65.625" style="fill:none;stroke-width:0.050000mm;stroke:black"/>
<polygon points="489.250,65.625 489.250,66.625 488.450,66.625 488.450,69.725 489.250,69.725 489.250,75.525 488.450,75.525 488.450,78.625 489.250,78.625 489.250,79.625 503.250,79.625 503.250,78.625 504.050,78.625 504.050,75.525 503.250,75.525 503.250,69.725 504.050,69.725 504.050,66.625 503.250,66.625 503.250,65.625" style="fill:none;stroke-width:0.050000mm;stroke:black"/>
<polygon points="32.049,37.050 32.049,38.050 31.249,38.050 31.249,41.150 32.049,41.150 32.049,41.750 30.525,41.750 30.525,38.519 23.775,38.519 23.775,41.750 22.949,41.750 22.949,44.550 23.775,44.550 23.775,50.819 25.499,50.819 25.499,52.019 28.799,52.019 28.799,50.819 30.525,50.819 30.525,46.349 32.049,46.349 32.049,46.949 31.249,46.949 31.249,50.050 32.049,50.050 32.049,51.050 46.050,51.050 46.050,50.050 46.849,50.050 46.849,46.949 46.050,46.949 46.050,46.349 47.574,46.349 47.574,50.819 49.300,50.819 49.300,52.019 52.599,52.019 52.599,50.819 54.324,50.819 54.324,44.550 55.150,44.550 55.150,41.750 54.324,41.750 54.324,38.519 47.574,38.519 47.574,41.750 46.050,41.750 46.050,41.150 46.849,41.150 46.849,38.050 46.050,38.050 46.050,37.050" style="fill:none;stroke-width:0.050000mm;stroke:black"/>
<polygon points="70.150,37.050 70.150,38.050 69.350,38.050 69.350,41.150 70.150,41.150 70.150,46.949 69.350,46.949 69.350,50.050 70.150,50.050 70.150,51.050 84.150,51.050 84.150,50.050 84.950,50.050 84.950,46.949 84.150,46.949 84.150,41.150 84.950,41.150 84.950,38.050 84.150,38.050 84.150,37.050" style="fill:none;stroke-width:0.050000mm;stroke:black"/>
<polygon points="108.250,37.050 108.250,38.050 107.450,38.050 107.450,41.150 108.250,41.150 108.250,46.949 107.450,46.949 107.450,50.050 108.250,50.050 108.250,51.050 122.250,51.050 122.250,50.050 123.050,50.050 123.050,46.949 122.250,46.949 122.250,41.150 123.050,41.150 123.050,38.050 122.250,38.050 122.250,37.050" style="fill:none;stroke-width:0.050000mm;stroke:black"/>
<polygon points="127.300,37.050 127.300,38.050 126.500,38.050 126.500,41.150 127.300,41.150 127.300,46.949 126.500,46.949 126.500,50.050 127.300,50.050 127.300,51.050 141.300,51.050 141.300,50.050 142.100,50.050 142.100,46.949 141.300,46.949 141.300,41.150 142.100,41.150 142.100,38.050 141.300,38.050 141.300,37.050" style="fill:none;stroke-width:0.050000mm;stroke:black"/>
<polygon points="146.350,37.050 146.350,38.050 145.550,38.050 145.550,41.150 146.350,41.150 146.350,46.949 145.550,46.949 145.550,50.050 146.350,50.050 146.350,51.050 160.350,51.050 160.350,50.050 161.150,50.050 161.150,46.949 160.350,46.949 160.350,41.150 161.150,41.150 161.150,38.050 160.350,38.050 160.350,37.050" style="fill:none;stroke-width:0.050000mm;stroke:black"/>
<polygon points="165.400,37.050 165.400,38.050 164.600,38.050 164.600,41.150 165.400,41.150 165.400,46.949 164.600,46.949 164.600,50.050 165.400,50.050 165.400,51.050 179.400,51.050 179.400,50.050 180.200,50.050 180.200,46.949 179.400,46.949 179.400,41.150 180.200,41.150 180.200,38.050 179.400,38.050 179.400,37.050" style="fill:none;stroke-width:0.050000mm;stroke:black"/>
<polygon points="193.975,37.050 193.975,38.050 193.175,38.050 193.175,41.150 193.975,41.150 193.975,46.949 193.175,46.949 193.175,50.050 193.975,50.050 193.975,51.050 207.975,51.050 207.975,50.050 208.775,50.050 208.775,46.949 207.975,46.949 207.975,41.150 208.775,41.150 208.775,38.050 207.975,38.050 207.975,37.050" style="fill:none;stroke-width:0.050000mm;stroke:black"/>
<polygon points="213.025,37.050 213.025,38.050 212.225,38.050 212.225,41.150 213.025,41.150 213.025,46.949 212.225,46.949 212.225,50.050 213.025,50.050 213.025,51.050 227.025,51.050 227.025,50.050 227.825,50.050 227.825,46.949 227.025,46.949 227.025,41.150 227.825,41.150 227.825,38.050 227.025,38.050 227.025,37.050" style="fill:none;stroke-width:0.050000mm;stroke:black"/>
<polygon points="232.075,37.050 232.075,38.050 231.275,38.050 231.275,41.150 232.075,41.150 232.075,46.949 231.275,46.949 231.275,50.050 232.075,50.050 232.075,51.050 246.075,51.050 246.075,50.050 246.875,50.050 246.875,46.949 246.075,46.949 246.075,41.150 246.875,41.150 246.875,38.050 246.075,38.050 246.075,37.050" style="fill:none;stroke-width:0.050000mm;stroke:black"/>
<polygon points="251.125,37.050 251.125,38.050 250.325,38.050 250.325,41.150 251.125,41.150 251.125,46.949 250.325,46.949 250.325,50.050 251.125,50.050 251.125,51.050 265.125,51.050 265.125,50.050 265.925,50.050 265.925,46.949 265.125,46.949 265.125,41.150 265.925,41.150 265.925,38.050 265.125,38.050 265.125,37.050" style="fill:none;stroke-width:0.050000mm;stroke:black"/>
<polygon points="279.700,37.050 279.700,38.050 278.900,38.050 278.900,41.150 279.700,41.150 279.700,46.949 278.900,46.949 278.900,50.050 279.700,50.050 279.700,51.050 293.700,51.050 293.700,50.050 294.500,50.050 294.500,46.949 293.700,46.949 293.700,41.150 294.500,41.150 294.500,38.050 293.700,38.050 293.700,37.050" style="fill:none;stroke-width:0.050000mm;stroke:black"/>
<polygon points="298.750,37.050 298.750,38.050 297.950,38.050 297.950,41.150 298.750,41.150 298.750,46.949 297.950,46.949 297.950,50.050 298.750,50.050 298.750,51.050 312.750,51.050 312.750,50.050 313.550,50.050 313.550,46.949 312.750,46.949 312.750,41.150 313.550,41.150 313.550,38.050 312.750,38.050 312.750,37.050" style="fill:none;stroke-width:0.050000mm;stroke:black"/>
<polygon points="317.800,37.050 317.800,38.050 317.000,38.050 317.000,41.150 317.800,41.150 317.800,46.949 317.000,46.949 317.000,50.050 317.800,50.050 317.800,51.050 331.800,51.050 331.800,50.050 332.600,50.050 332.600,46.949 331.800,46.949 331.800,41.150 332.600,41.150 332.600,38.050 331.800,38.050 331.800,37.050" style="fill:none;stroke-width:0.050000mm;stroke:black"/>
<polygon points="336.850,37.050 336.850,38.050 336.050,38.050 336.050,41.150 336.850,41.150 336.850,46.949 336.050,46.949 336.050,50.050 336.850,50.050 336.850,51.050 350.850,51.050 350.850,50.050 351.650,50.050 351.650,46.949 350.850,46.949 350.850,41.150 351.650,41.150 351.650,38.050 350.850,38.050 350.850,37.050" style="fill:none;stroke-width:0.050000mm;stroke:black"/>
<polygon points="365.425,37.050 365.425,38.050 364.625,38.050 364.625,41.150 365.425,41.150 365.425,46.949 364.625,46.949 364.625,50.050 365.425,50.050 365.425,51.050 379.425,51.050 379.425,50.050 380.225,50.050 380.225,46.949 379.425,46.949 379.425,41.150 380.225,41.150 380.225,38.050 379.425,38.050 379.425,37.050" style="fill:none;stroke-width:0.050000mm;stroke:black"/>
<polygon points="384.475,37.050 384.475,38.050 383.675,38.050 383.675,41.150 384.475,41.150 384.475,46.949 383.675,46.949 383.675,50.050 384.475,50.050 384.475,51.050 398.475,51.050 398.475,50.050 399.275,50.050 399.275,46.949 398.475,46.949 398.475,41.150 399.275,41.150 399.275,38.050 398.475,38.050 398.475,37.050" style="fill:none;stroke-width:0.050000mm;stroke:black"/>
<polygon points="403.525,37.050 403.525,38.050 402.725,38.050 402.725,41.150 403.525,41.150 403.525,46.949 402.725,46.949 402.725,50.050 403.525,50.050 403.525,51.050 417.525,51.050 417.525,50.050 418.325,50.050 418.325,46.949 417.525,46.949 417.525,41.150 418.325,41.150 418.325,38.050 417.525,38.050 417.525,37.050" style="fill:none;stroke-width:0.050000mm;stroke:black"/>
<polygon points="432.100,37.050 432.100,38.050 431.300,38.050 431.300,41.150 432.100,41.150 432.100,46.949 431.300,46.949 431.300,50.050 432.100,50.050 432.100,51.050 446.100,51.050 446.100,50.050 446.900,50.050 446.900,46.949 446.100,46.949 446.100,41.150 446.900,41.150 446.900,38.050 446.100,38.050 446.100,37.050" style="fill:none;stroke-width:0.050000mm;stroke:black"/>
<polygon points="451.150,37.050 451.150,38.050 450.350,38.050 450.350,41.150 451.150,41.150 451.150,46.949 450.350,46.949 450.350,50.050 451.150,50.050 451.150,51.050 465.150,51.050 465.150,50.050 465.950,50.050 465.950,46.949 465.150,46.949 465.150,41.150 465.950,41.150 465.950,38.050 465.150,38.050 465.150,37.050" style="fill:none;stroke-width:0.050000mm;stroke:black"/>
<polygon points="470.200,37.050 470.200,38.050 469.400,38.050 469.400,41.150 470.200,41.150 470.200,46.949 469.400,46.949 469.400,50.050 470.200,50.050 470.200,51.050 484.200,51.050 484.200,50.050 485.000,50.050 485.000,46.949 484.200,46.949 484.200,41.150 485.000,41.150 485.000,38.050 484.200,38.050 484.200,37.050" style="fill:none;stroke-width:0.050000mm;stroke:black"/>
<polygon points="489.250,37.050 489.250,38.050 488.450,38.050 488.450,41.150 489.250,41.150 489.250,46.949 488.450,46.949 488.450,50.050 489.250,50.050 489.250,51.050 503.250,51.050 503.250,50.050 504.050,50.050 504.050,46.949 503.250,46.949 503.250,41.150 504.050,41.150 504.050,38.050 503.250,38.050 503.250,37.050" style="fill:none;stroke-width:0.050000mm;stroke:black"/>
</svg>
